<?xml version="1.0"?>
<svg version="1.1" id="topsvg"
xmlns="http://www.w3.org/2000/svg" xmlns:xlink="http://www.w3.org/1999/xlink"
xmlns:cml="http://www.xml-cml.org/schema" x="0" y="0" width="200px" height="200px" viewBox="0 0 100 100">
<title>OBDepict</title>
<rect x="0" y="0" width="100" height="100" fill="white"/>
<text text-anchor="middle" font-size="6" fill ="black" font-family="sans-serif"
x="50" y="98" ></text>
<g transform="translate(0,0)">
<svg width="100" height="100" x="0" y="0" viewBox="0 0 328.336 277.667"
font-family="sans-serif" stroke="rgb(0,0,0)" stroke-width="2"  stroke-linecap="round">
<line x1="53.0" y1="197.7" x2="67.0" y2="197.7" stroke="rgb(0,0,0)"  stroke-width="2.0"/>
<line x1="80.0" y1="210.7" x2="80.0" y2="224.7" stroke="rgb(0,0,0)"  stroke-width="2.0"/>
<line x1="93.0" y1="194.7" x2="107.0" y2="194.7" stroke="rgb(0,0,0)"  stroke-width="2.0"/>
<line x1="93.0" y1="200.7" x2="107.0" y2="200.7" stroke="rgb(0,0,0)"  stroke-width="2.0"/>
<line x1="80.0" y1="184.7" x2="80.0" y2="157.7" stroke="rgb(0,0,0)"  stroke-width="2.0"/>
<line x1="80.0" y1="157.7" x2="103.4" y2="144.2" stroke="rgb(0,0,0)"  stroke-width="2.0"/>
<line x1="114.6" y1="124.7" x2="114.6" y2="97.7" stroke="rgb(0,0,0)"  stroke-width="2.0"/>
<polygon points="114.641016 97.667154 87.580949 96.255496 89.172502 88.415409 " stroke-width="2.000000" fill="rgb(0,0,0)"  stroke="rgb(0,0,0)" />
<line x1="154.7" y1="109.3" x2="153.1" y2="109.2" stroke="rgb(0,0,0)"  stroke-width="2.0"/>
<line x1="155.1" y1="113.6" x2="152.2" y2="113.5" stroke="rgb(0,0,0)"  stroke-width="2.0"/>
<line x1="155.5" y1="118.0" x2="151.3" y2="117.7" stroke="rgb(0,0,0)"  stroke-width="2.0"/>
<line x1="155.9" y1="122.3" x2="150.5" y2="122.0" stroke="rgb(0,0,0)"  stroke-width="2.0"/>
<line x1="156.3" y1="126.6" x2="149.6" y2="126.2" stroke="rgb(0,0,0)"  stroke-width="2.0"/>
<line x1="156.7" y1="130.9" x2="148.8" y2="130.5" stroke="rgb(0,0,0)"  stroke-width="2.0"/>
<line x1="154.1" y1="103.9" x2="176.8" y2="118.6" stroke="rgb(0,0,0)"  stroke-width="2.0"/>
<line x1="256.4" y1="166.8" x2="279.1" y2="181.5" stroke="rgb(0,0,0)"  stroke-width="2.0"/>
<line x1="253.2" y1="171.8" x2="275.8" y2="186.5" stroke="rgb(0,0,0)"  stroke-width="2.0"/>
<line x1="218.5" y1="200.4" x2="217.7" y2="214.4" stroke="rgb(0,0,0)"  stroke-width="2.0"/>
<line x1="187.0" y1="168.3" x2="162.9" y2="180.6" stroke="rgb(0,0,0)"  stroke-width="2.0"/>
<line x1="184.2" y1="163.0" x2="160.2" y2="175.2" stroke="rgb(0,0,0)"  stroke-width="2.0"/>
<line x1="114.6" y1="97.7" x2="108.4" y2="58.2" stroke="rgb(0,0,0)"  stroke-width="2.0"/>
<line x1="108.4" y1="58.2" x2="144.0" y2="40.0" stroke="rgb(0,0,0)"  stroke-width="2.0"/>
<line x1="144.0" y1="40.0" x2="172.3" y2="68.3" stroke="rgb(0,0,0)"  stroke-width="2.0"/>
<line x1="172.3" y1="68.3" x2="154.1" y2="103.9" stroke="rgb(0,0,0)"  stroke-width="2.0"/>
<line x1="154.1" y1="103.9" x2="114.6" y2="97.7" stroke="rgb(0,0,0)"  stroke-width="2.0"/>
<line x1="199.3" y1="119.8" x2="223.3" y2="107.6" stroke="rgb(0,0,0)"  stroke-width="2.0"/>
<line x1="223.3" y1="107.6" x2="256.9" y2="129.3" stroke="rgb(0,0,0)"  stroke-width="2.0"/>
<line x1="224.4" y1="116.9" x2="247.9" y2="132.1" stroke="rgb(0,0,0)"  stroke-width="2.0"/>
<line x1="256.9" y1="129.3" x2="254.8" y2="169.3" stroke="rgb(0,0,0)"  stroke-width="2.0"/>
<line x1="254.8" y1="169.3" x2="230.7" y2="181.5" stroke="rgb(0,0,0)"  stroke-width="2.0"/>
<line x1="208.2" y1="180.4" x2="185.6" y2="165.7" stroke="rgb(0,0,0)"  stroke-width="2.0"/>
<line x1="185.6" y1="165.7" x2="187.0" y2="138.7" stroke="rgb(0,0,0)"  stroke-width="2.0"/>
<text x="22.000000" y="205.667154" fill="rgb(255,12,12)"  stroke="rgb(255,12,12)" stroke-width="1" font-size="16" >HO</text>
<text x="74.000000" y="205.667154" fill="rgb(255,127,0)"  stroke="rgb(255,127,0)" stroke-width="1" font-size="16" >P</text>
<text x="74.000000" y="245.667154" fill="rgb(255,12,12)"  stroke="rgb(255,12,12)" stroke-width="1" font-size="16" >OH</text>
<text x="114.000000" y="205.667154" fill="rgb(255,12,12)"  stroke="rgb(255,12,12)" stroke-width="1" font-size="16" >O</text>
<text x="108.641016" y="145.667154" fill="rgb(255,12,12)"  stroke="rgb(255,12,12)" stroke-width="1" font-size="16" >O</text>
<text x="69.440582" y="97.709391" fill="rgb(191,191,191)"  stroke="rgb(191,191,191)" stroke-width="1" font-size="16" >H</text>
<text x="146.055112" y="151.869714" fill="rgb(191,191,191)"  stroke="rgb(191,191,191)" stroke-width="1" font-size="16" >H</text>
<text x="181.695372" y="133.710094" fill="rgb(12,12,255)"  stroke="rgb(12,12,255)" stroke-width="1" font-size="16" >N</text>
<text x="282.335841" y="199.066778" fill="rgb(255,12,12)"  stroke="rgb(255,12,12)" stroke-width="1" font-size="16" >O</text>
<text x="213.148757" y="195.440836" fill="rgb(12,12,255)"  stroke="rgb(12,12,255)" stroke-width="1" font-size="16" >N</text>
<text x="211.055319" y="235.386018" fill="rgb(191,191,191)"  stroke="rgb(191,191,191)" stroke-width="1" font-size="16" >H</text>
<text x="143.961673" y="191.814895" fill="rgb(255,12,12)"  stroke="rgb(255,12,12)" stroke-width="1" font-size="16" >O</text>
</svg>
</g>
</svg>

