<?xml version="1.0"?>
<svg version="1.1" id="topsvg"
xmlns="http://www.w3.org/2000/svg" xmlns:xlink="http://www.w3.org/1999/xlink"
xmlns:cml="http://www.xml-cml.org/schema" x="0" y="0" width="200px" height="200px" viewBox="0 0 100 100">
<title>OBDepict</title>
<rect x="0" y="0" width="100" height="100" fill="white"/>
<text text-anchor="middle" font-size="6" fill ="black" font-family="sans-serif"
x="50" y="98" ></text>
<g transform="translate(0,0)">
<svg width="100" height="100" x="0" y="0" viewBox="0 0 349.819 239.898"
font-family="sans-serif" stroke="rgb(0,0,0)" stroke-width="2"  stroke-linecap="round">
<polygon points="211.693 182.416 229.325 161.841 234.565 167.886 " stroke-width="2" fill="rgb(0,0,0)"  stroke="rgb(0,0,0)" />
<polygon points="229.623 120.228 251.98 104.917 255.476 112.113 " stroke-width="2" fill="rgb(0,0,0)"  stroke="rgb(0,0,0)" />
<line x1="229.6" y1="120.2" x2="231.5" y2="93.3" stroke="rgb(0,0,0)"  stroke-width="2.0"/>
<line x1="247.5" y1="161.1" x2="246.4" y2="162.3" stroke="rgb(0,0,0)"  stroke-width="2.0"/>
<line x1="251.0" y1="163.8" x2="248.9" y2="165.8" stroke="rgb(0,0,0)"  stroke-width="2.0"/>
<line x1="254.4" y1="166.4" x2="251.4" y2="169.3" stroke="rgb(0,0,0)"  stroke-width="2.0"/>
<line x1="257.8" y1="169.1" x2="253.9" y2="172.9" stroke="rgb(0,0,0)"  stroke-width="2.0"/>
<line x1="261.3" y1="171.7" x2="256.4" y2="176.4" stroke="rgb(0,0,0)"  stroke-width="2.0"/>
<line x1="264.7" y1="174.4" x2="259.0" y2="179.9" stroke="rgb(0,0,0)"  stroke-width="2.0"/>
<line x1="243.2" y1="157.8" x2="282.1" y2="148.2" stroke="rgb(0,0,0)"  stroke-width="2.0"/>
<line x1="282.1" y1="148.2" x2="300.8" y2="167.7" stroke="rgb(0,0,0)"  stroke-width="2.0"/>
<polygon points="178.564065 160.000000 153.354584 150.064102 157.354584 143.135898 " stroke-width="2.000000" fill="rgb(0,0,0)"  stroke="rgb(0,0,0)" />
<line x1="74.6" y1="140.0" x2="51.3" y2="153.5" stroke="rgb(0,0,0)"  stroke-width="2.0"/>
<line x1="73.1" y1="102.6" x2="49.8" y2="89.1" stroke="rgb(0,0,0)"  stroke-width="2.0"/>
<line x1="76.1" y1="97.4" x2="52.8" y2="83.9" stroke="rgb(0,0,0)"  stroke-width="2.0"/>
<line x1="109.3" y1="67.0" x2="109.3" y2="53.0" stroke="rgb(0,0,0)"  stroke-width="2.0"/>
<line x1="142.4" y1="97.4" x2="165.8" y2="83.9" stroke="rgb(0,0,0)"  stroke-width="2.0"/>
<line x1="145.4" y1="102.6" x2="168.8" y2="89.1" stroke="rgb(0,0,0)"  stroke-width="2.0"/>
<line x1="211.7" y1="182.4" x2="175.7" y2="199.9" stroke="rgb(0,0,0)"  stroke-width="2.0"/>
<line x1="175.7" y1="199.9" x2="178.6" y2="160.0" stroke="rgb(0,0,0)"  stroke-width="2.0"/>
<line x1="178.6" y1="160.0" x2="211.7" y2="182.4" stroke="rgb(0,0,0)"  stroke-width="2.0"/>
<line x1="189.6" y1="121.6" x2="229.6" y2="120.2" stroke="rgb(0,0,0)"  stroke-width="2.0"/>
<line x1="229.6" y1="120.2" x2="243.2" y2="157.8" stroke="rgb(0,0,0)"  stroke-width="2.0"/>
<line x1="243.2" y1="157.8" x2="211.7" y2="182.4" stroke="rgb(0,0,0)"  stroke-width="2.0"/>
<line x1="178.6" y1="160.0" x2="189.6" y2="121.6" stroke="rgb(0,0,0)"  stroke-width="2.0"/>
<line x1="132.7" y1="146.5" x2="109.3" y2="160.0" stroke="rgb(0,0,0)"  stroke-width="2.0"/>
<line x1="109.3" y1="160.0" x2="74.6" y2="140.0" stroke="rgb(0,0,0)"  stroke-width="2.0"/>
<line x1="107.7" y1="150.8" x2="83.4" y2="136.8" stroke="rgb(0,0,0)"  stroke-width="2.0"/>
<line x1="74.6" y1="140.0" x2="74.6" y2="100.0" stroke="rgb(0,0,0)"  stroke-width="2.0"/>
<line x1="74.6" y1="100.0" x2="98.0" y2="86.5" stroke="rgb(0,0,0)"  stroke-width="2.0"/>
<line x1="120.5" y1="86.5" x2="143.9" y2="100.0" stroke="rgb(0,0,0)"  stroke-width="2.0"/>
<line x1="143.9" y1="100.0" x2="143.9" y2="127.0" stroke="rgb(0,0,0)"  stroke-width="2.0"/>
<text x="235.919546" y="164.217953" fill="rgb(191,191,191)"  stroke="rgb(191,191,191)" stroke-width="1" font-size="16" >H</text>
<text x="259.600731" y="110.745861" fill="rgb(191,191,191)"  stroke="rgb(191,191,191)" stroke-width="1" font-size="16" >H</text>
<text x="226.471957" y="88.329699" fill="rgb(255,12,12)"  stroke="rgb(255,12,12)" stroke-width="1" font-size="16" >OH</text>
<text x="264.993479" y="194.649975" fill="rgb(191,191,191)"  stroke="rgb(191,191,191)" stroke-width="1" font-size="16" >H</text>
<text x="303.819410" y="185.029838" fill="rgb(255,12,12)"  stroke="rgb(255,12,12)" stroke-width="1" font-size="16" >OH</text>
<text x="137.923048" y="148.000000" fill="rgb(12,12,255)"  stroke="rgb(12,12,255)" stroke-width="1" font-size="16" >N</text>
<text x="14.000000" y="168.000000" fill="rgb(102,102,102)"  stroke="rgb(102,102,102)" stroke-width="1" font-size="16" >H</text>
<text x="26.000000" y="171.680000" fill="rgb(102,102,102)"  stroke="rgb(102,102,102)" stroke-width="1" font-size="13" >3</text>
<text x="32.500000" y="168.000000" fill="rgb(102,102,102)"  stroke="rgb(102,102,102)" stroke-width="1" font-size="16" >C</text>
<text x="34.000000" y="88.000000" fill="rgb(255,12,12)"  stroke="rgb(255,12,12)" stroke-width="1" font-size="16" >O</text>
<text x="103.282032" y="88.000000" fill="rgb(12,12,255)"  stroke="rgb(12,12,255)" stroke-width="1" font-size="16" >N</text>
<text x="103.282032" y="48.000000" fill="rgb(191,191,191)"  stroke="rgb(191,191,191)" stroke-width="1" font-size="16" >H</text>
<text x="172.564065" y="88.000000" fill="rgb(255,12,12)"  stroke="rgb(255,12,12)" stroke-width="1" font-size="16" >O</text>
</svg>
</g>
</svg>

