<?xml version="1.0"?>
<svg version="1.1" id="topsvg"
xmlns="http://www.w3.org/2000/svg" xmlns:xlink="http://www.w3.org/1999/xlink"
xmlns:cml="http://www.xml-cml.org/schema" x="0" y="0" width="200px" height="200px" viewBox="0 0 100 100">
<title>OBDepict</title>
<rect x="0" y="0" width="100" height="100" fill="white"/>
<text text-anchor="middle" font-size="6" fill ="black" font-family="sans-serif"
x="50" y="98" ></text>
<g transform="translate(0,0)">
<svg width="100" height="100" x="0" y="0" viewBox="0 0 316.569 299.849"
font-family="sans-serif" stroke="rgb(0,0,0)" stroke-width="2"  stroke-linecap="round">
<line x1="213.0" y1="164.7" x2="213.0" y2="163.1" stroke="rgb(0,0,0)"  stroke-width="2.0"/>
<line x1="208.6" y1="165.1" x2="208.8" y2="162.2" stroke="rgb(0,0,0)"  stroke-width="2.0"/>
<line x1="204.3" y1="165.5" x2="204.5" y2="161.4" stroke="rgb(0,0,0)"  stroke-width="2.0"/>
<line x1="200.0" y1="165.9" x2="200.3" y2="160.5" stroke="rgb(0,0,0)"  stroke-width="2.0"/>
<line x1="195.7" y1="166.4" x2="196.0" y2="159.6" stroke="rgb(0,0,0)"  stroke-width="2.0"/>
<line x1="191.4" y1="166.8" x2="191.8" y2="158.8" stroke="rgb(0,0,0)"  stroke-width="2.0"/>
<line x1="229.6" y1="210.8" x2="228.1" y2="211.2" stroke="rgb(0,0,0)"  stroke-width="2.0"/>
<line x1="232.0" y1="216.7" x2="229.3" y2="217.5" stroke="rgb(0,0,0)"  stroke-width="2.0"/>
<line x1="234.4" y1="222.7" x2="230.4" y2="223.9" stroke="rgb(0,0,0)"  stroke-width="2.0"/>
<line x1="236.8" y1="228.7" x2="231.6" y2="230.2" stroke="rgb(0,0,0)"  stroke-width="2.0"/>
<line x1="239.2" y1="234.7" x2="232.7" y2="236.5" stroke="rgb(0,0,0)"  stroke-width="2.0"/>
<line x1="241.6" y1="240.6" x2="233.9" y2="242.8" stroke="rgb(0,0,0)"  stroke-width="2.0"/>
<line x1="237.7" y1="241.7" x2="264.0" y2="248.2" stroke="rgb(0,0,0)"  stroke-width="2.0"/>
<line x1="189.5" y1="228.1" x2="188.2" y2="227.2" stroke="rgb(0,0,0)"  stroke-width="2.0"/>
<line x1="187.5" y1="232.0" x2="185.2" y2="230.3" stroke="rgb(0,0,0)"  stroke-width="2.0"/>
<line x1="185.5" y1="235.8" x2="182.1" y2="233.4" stroke="rgb(0,0,0)"  stroke-width="2.0"/>
<line x1="183.5" y1="239.6" x2="179.1" y2="236.5" stroke="rgb(0,0,0)"  stroke-width="2.0"/>
<line x1="181.5" y1="243.5" x2="176.1" y2="239.5" stroke="rgb(0,0,0)"  stroke-width="2.0"/>
<line x1="179.5" y1="247.3" x2="173.0" y2="242.6" stroke="rgb(0,0,0)"  stroke-width="2.0"/>
<line x1="192.0" y1="223.3" x2="203.0" y2="248.0" stroke="rgb(0,0,0)"  stroke-width="2.0"/>
<polygon points="178.564065 160.000000 174.564065 133.200000 182.564065 133.200000 " stroke-width="2.000000" fill="rgb(0,0,0)"  stroke="rgb(0,0,0)" />
<line x1="178.6" y1="160.0" x2="155.2" y2="146.5" stroke="rgb(0,0,0)"  stroke-width="2.0"/>
<line x1="74.6" y1="140.0" x2="51.3" y2="153.5" stroke="rgb(0,0,0)"  stroke-width="2.0"/>
<line x1="73.1" y1="102.6" x2="49.8" y2="89.1" stroke="rgb(0,0,0)"  stroke-width="2.0"/>
<line x1="76.1" y1="97.4" x2="52.8" y2="83.9" stroke="rgb(0,0,0)"  stroke-width="2.0"/>
<line x1="109.3" y1="67.0" x2="109.3" y2="53.0" stroke="rgb(0,0,0)"  stroke-width="2.0"/>
<line x1="142.4" y1="97.4" x2="165.8" y2="83.9" stroke="rgb(0,0,0)"  stroke-width="2.0"/>
<line x1="145.4" y1="102.6" x2="168.8" y2="89.1" stroke="rgb(0,0,0)"  stroke-width="2.0"/>
<line x1="218.3" y1="164.2" x2="256.4" y2="176.5" stroke="rgb(0,0,0)"  stroke-width="2.0"/>
<line x1="256.4" y1="176.5" x2="226.7" y2="203.3" stroke="rgb(0,0,0)"  stroke-width="2.0"/>
<line x1="226.7" y1="203.3" x2="218.3" y2="164.2" stroke="rgb(0,0,0)"  stroke-width="2.0"/>
<line x1="192.0" y1="223.3" x2="162.3" y2="196.5" stroke="rgb(0,0,0)"  stroke-width="2.0"/>
<line x1="162.3" y1="196.5" x2="178.6" y2="160.0" stroke="rgb(0,0,0)"  stroke-width="2.0"/>
<line x1="178.6" y1="160.0" x2="218.3" y2="164.2" stroke="rgb(0,0,0)"  stroke-width="2.0"/>
<line x1="226.7" y1="203.3" x2="192.0" y2="223.3" stroke="rgb(0,0,0)"  stroke-width="2.0"/>
<line x1="132.7" y1="146.5" x2="109.3" y2="160.0" stroke="rgb(0,0,0)"  stroke-width="2.0"/>
<line x1="109.3" y1="160.0" x2="74.6" y2="140.0" stroke="rgb(0,0,0)"  stroke-width="2.0"/>
<line x1="107.7" y1="150.8" x2="83.4" y2="136.8" stroke="rgb(0,0,0)"  stroke-width="2.0"/>
<line x1="74.6" y1="140.0" x2="74.6" y2="100.0" stroke="rgb(0,0,0)"  stroke-width="2.0"/>
<line x1="74.6" y1="100.0" x2="98.0" y2="86.5" stroke="rgb(0,0,0)"  stroke-width="2.0"/>
<line x1="120.5" y1="86.5" x2="143.9" y2="100.0" stroke="rgb(0,0,0)"  stroke-width="2.0"/>
<line x1="143.9" y1="100.0" x2="143.9" y2="127.0" stroke="rgb(0,0,0)"  stroke-width="2.0"/>
<text x="172.399759" y="170.087700" fill="rgb(191,191,191)"  stroke="rgb(191,191,191)" stroke-width="1" font-size="16" >H</text>
<text x="270.569022" y="259.361491" fill="rgb(255,12,12)"  stroke="rgb(255,12,12)" stroke-width="1" font-size="16" >OH</text>
<text x="162.508982" y="263.667722" fill="rgb(191,191,191)"  stroke="rgb(191,191,191)" stroke-width="1" font-size="16" >H</text>
<text x="202.289858" y="267.848861" fill="rgb(255,12,12)"  stroke="rgb(255,12,12)" stroke-width="1" font-size="16" >OH</text>
<text x="172.564065" y="128.000000" fill="rgb(191,191,191)"  stroke="rgb(191,191,191)" stroke-width="1" font-size="16" >H</text>
<text x="137.923048" y="148.000000" fill="rgb(12,12,255)"  stroke="rgb(12,12,255)" stroke-width="1" font-size="16" >N</text>
<text x="14.000000" y="168.000000" fill="rgb(102,102,102)"  stroke="rgb(102,102,102)" stroke-width="1" font-size="16" >H</text>
<text x="26.000000" y="171.680000" fill="rgb(102,102,102)"  stroke="rgb(102,102,102)" stroke-width="1" font-size="13" >3</text>
<text x="32.500000" y="168.000000" fill="rgb(102,102,102)"  stroke="rgb(102,102,102)" stroke-width="1" font-size="16" >C</text>
<text x="34.000000" y="88.000000" fill="rgb(255,12,12)"  stroke="rgb(255,12,12)" stroke-width="1" font-size="16" >O</text>
<text x="103.282032" y="88.000000" fill="rgb(12,12,255)"  stroke="rgb(12,12,255)" stroke-width="1" font-size="16" >N</text>
<text x="103.282032" y="48.000000" fill="rgb(191,191,191)"  stroke="rgb(191,191,191)" stroke-width="1" font-size="16" >H</text>
<text x="172.564065" y="88.000000" fill="rgb(255,12,12)"  stroke="rgb(255,12,12)" stroke-width="1" font-size="16" >O</text>
</svg>
</g>
</svg>

