<?xml version="1.0"?>
<svg version="1.1" id="topsvg"
xmlns="http://www.w3.org/2000/svg" xmlns:xlink="http://www.w3.org/1999/xlink"
xmlns:cml="http://www.xml-cml.org/schema" x="0" y="0" width="200px" height="200px" viewBox="0 0 100 100">
<title>OBDepict</title>
<rect x="0" y="0" width="100" height="100" fill="white"/>
<text text-anchor="middle" font-size="6" fill ="black" font-family="sans-serif"
x="50" y="98" ></text>
<g transform="translate(0,0)">
<svg width="100" height="100" x="0" y="0" viewBox="0 0 240.561 228.852"
font-family="sans-serif" stroke="rgb(0,0,0)" stroke-width="2"  stroke-linecap="round">
<line x1="104.7" y1="60.1" x2="114.1" y2="49.7" stroke="rgb(0,0,0)"  stroke-width="2.0"/>
<line x1="200.6" y1="148.9" x2="177.1" y2="181.2" stroke="rgb(0,0,0)"  stroke-width="2.0"/>
<line x1="191.2" y1="149.5" x2="174.8" y2="172.1" stroke="rgb(0,0,0)"  stroke-width="2.0"/>
<line x1="177.1" y1="181.2" x2="151.4" y2="172.9" stroke="rgb(0,0,0)"  stroke-width="2.0"/>
<line x1="139.0" y1="155.9" x2="139.0" y2="128.9" stroke="rgb(0,0,0)"  stroke-width="2.0"/>
<line x1="139.0" y1="128.9" x2="164.5" y2="120.6" stroke="rgb(0,0,0)"  stroke-width="2.0"/>
<line x1="146.9" y1="133.8" x2="164.8" y2="128.0" stroke="rgb(0,0,0)"  stroke-width="2.0"/>
<line x1="184.7" y1="127.0" x2="200.6" y2="148.9" stroke="rgb(0,0,0)"  stroke-width="2.0"/>
<line x1="45.4" y1="90.0" x2="56.3" y2="65.5" stroke="rgb(0,0,0)"  stroke-width="2.0"/>
<line x1="52.8" y1="91.1" x2="60.4" y2="74.0" stroke="rgb(0,0,0)"  stroke-width="2.0"/>
<line x1="56.3" y1="65.5" x2="83.1" y2="68.4" stroke="rgb(0,0,0)"  stroke-width="2.0"/>
<line x1="98.8" y1="82.4" x2="104.4" y2="108.9" stroke="rgb(0,0,0)"  stroke-width="2.0"/>
<line x1="104.4" y1="108.9" x2="69.7" y2="128.9" stroke="rgb(0,0,0)"  stroke-width="2.0"/>
<line x1="95.6" y1="105.6" x2="71.3" y2="119.6" stroke="rgb(0,0,0)"  stroke-width="2.0"/>
<line x1="69.7" y1="128.9" x2="49.7" y2="110.8" stroke="rgb(0,0,0)"  stroke-width="2.0"/>
<line x1="127.7" y1="175.4" x2="104.4" y2="188.9" stroke="rgb(0,0,0)"  stroke-width="2.0"/>
<line x1="104.4" y1="188.9" x2="81.2" y2="175.5" stroke="rgb(0,0,0)"  stroke-width="2.0"/>
<line x1="102.8" y1="179.6" x2="86.5" y2="170.2" stroke="rgb(0,0,0)"  stroke-width="2.0"/>
<line x1="69.7" y1="155.9" x2="69.7" y2="128.9" stroke="rgb(0,0,0)"  stroke-width="2.0"/>
<line x1="104.4" y1="108.9" x2="139.0" y2="128.9" stroke="rgb(0,0,0)"  stroke-width="2.0"/>
<text x="133.007825" y="176.851697" fill="rgb(12,12,255)"  stroke="rgb(12,12,255)" stroke-width="1" font-size="16" >N</text>
<text x="63.725793" y="176.851697" fill="rgb(12,12,255)"  stroke="rgb(12,12,255)" stroke-width="1" font-size="16" >N</text>
<text x="34.000000" y="110.086473" fill="rgb(12,12,255)"  stroke="rgb(12,12,255)" stroke-width="1" font-size="16" >N</text>
<text x="90.050342" y="77.725793" fill="rgb(12,12,255)"  stroke="rgb(12,12,255)" stroke-width="1" font-size="16" >N</text>
<text x="116.815566" y="48.000000" fill="rgb(191,191,191)"  stroke="rgb(191,191,191)" stroke-width="1" font-size="16" >H</text>
<text x="171.050086" y="124.491017" fill="rgb(12,12,255)"  stroke="rgb(12,12,255)" stroke-width="1" font-size="16" >N</text>
</svg>
</g>
</svg>

