<?xml version="1.0"?>
<svg version="1.1" id="topsvg"
xmlns="http://www.w3.org/2000/svg" xmlns:xlink="http://www.w3.org/1999/xlink"
xmlns:cml="http://www.xml-cml.org/schema" x="0" y="0" width="200px" height="200px" viewBox="0 0 100 100">
<title>OBDepict</title>
<rect x="0" y="0" width="100" height="100" fill="white"/>
<text text-anchor="middle" font-size="6" fill ="black" font-family="sans-serif"
x="50" y="98" ></text>
<g transform="translate(0,0)">
<svg width="100" height="100" x="0" y="0" viewBox="0 0 343.41 216.542"
font-family="sans-serif" stroke="rgb(0,0,0)" stroke-width="2"  stroke-linecap="round">
<line x1="51.3" y1="46.5" x2="74.6" y2="60.0" stroke="rgb(0,0,0)"  stroke-width="2.0"/>
<line x1="155.2" y1="106.5" x2="178.6" y2="120.0" stroke="rgb(0,0,0)"  stroke-width="2.0"/>
<line x1="174.3" y1="123.4" x2="173.5" y2="122.0" stroke="rgb(0,0,0)"  stroke-width="2.0"/>
<line x1="170.9" y1="126.1" x2="169.5" y2="123.6" stroke="rgb(0,0,0)"  stroke-width="2.0"/>
<line x1="167.5" y1="128.8" x2="165.5" y2="125.2" stroke="rgb(0,0,0)"  stroke-width="2.0"/>
<line x1="164.1" y1="131.5" x2="161.4" y2="126.8" stroke="rgb(0,0,0)"  stroke-width="2.0"/>
<line x1="160.7" y1="134.2" x2="157.4" y2="128.3" stroke="rgb(0,0,0)"  stroke-width="2.0"/>
<line x1="157.4" y1="136.9" x2="153.4" y2="129.9" stroke="rgb(0,0,0)"  stroke-width="2.0"/>
<polygon points="240.117735 100.000000 266.352808 93.220550 267.189036 101.176725 " stroke-width="2.000000" fill="rgb(0,0,0)"  stroke="rgb(0,0,0)" />
<line x1="240.1" y1="100.0" x2="251.1" y2="75.3" stroke="rgb(0,0,0)"  stroke-width="2.0"/>
<line x1="243.0" y1="144.6" x2="241.6" y2="145.2" stroke="rgb(0,0,0)"  stroke-width="2.0"/>
<line x1="245.4" y1="148.2" x2="242.7" y2="149.4" stroke="rgb(0,0,0)"  stroke-width="2.0"/>
<line x1="247.7" y1="151.9" x2="243.9" y2="153.6" stroke="rgb(0,0,0)"  stroke-width="2.0"/>
<line x1="250.0" y1="155.5" x2="245.0" y2="157.8" stroke="rgb(0,0,0)"  stroke-width="2.0"/>
<line x1="252.3" y1="159.2" x2="246.2" y2="161.9" stroke="rgb(0,0,0)"  stroke-width="2.0"/>
<line x1="254.7" y1="162.9" x2="247.4" y2="166.1" stroke="rgb(0,0,0)"  stroke-width="2.0"/>
<line x1="240.1" y1="140.0" x2="279.9" y2="144.2" stroke="rgb(0,0,0)"  stroke-width="2.0"/>
<line x1="279.9" y1="144.2" x2="295.8" y2="122.3" stroke="rgb(0,0,0)"  stroke-width="2.0"/>
<line x1="112.3" y1="120.0" x2="112.3" y2="147.0" stroke="rgb(0,0,0)"  stroke-width="2.0"/>
<line x1="106.3" y1="120.0" x2="106.3" y2="147.0" stroke="rgb(0,0,0)"  stroke-width="2.0"/>
<line x1="178.6" y1="120.0" x2="202.1" y2="87.6" stroke="rgb(0,0,0)"  stroke-width="2.0"/>
<line x1="202.1" y1="87.6" x2="240.1" y2="100.0" stroke="rgb(0,0,0)"  stroke-width="2.0"/>
<line x1="240.1" y1="100.0" x2="240.1" y2="140.0" stroke="rgb(0,0,0)"  stroke-width="2.0"/>
<line x1="240.1" y1="140.0" x2="214.4" y2="148.3" stroke="rgb(0,0,0)"  stroke-width="2.0"/>
<line x1="194.4" y1="141.8" x2="178.6" y2="120.0" stroke="rgb(0,0,0)"  stroke-width="2.0"/>
<line x1="74.6" y1="60.0" x2="109.3" y2="40.0" stroke="rgb(0,0,0)"  stroke-width="2.0"/>
<line x1="109.3" y1="40.0" x2="143.9" y2="60.0" stroke="rgb(0,0,0)"  stroke-width="2.0"/>
<line x1="110.9" y1="49.2" x2="135.1" y2="63.2" stroke="rgb(0,0,0)"  stroke-width="2.0"/>
<line x1="143.9" y1="60.0" x2="143.9" y2="87.0" stroke="rgb(0,0,0)"  stroke-width="2.0"/>
<line x1="132.7" y1="106.5" x2="109.3" y2="120.0" stroke="rgb(0,0,0)"  stroke-width="2.0"/>
<line x1="109.3" y1="120.0" x2="85.9" y2="106.5" stroke="rgb(0,0,0)"  stroke-width="2.0"/>
<line x1="74.6" y1="86.8" x2="74.6" y2="60.0" stroke="rgb(0,0,0)"  stroke-width="2.0"/>
<line x1="81.8" y1="84.8" x2="81.8" y2="66.0" stroke="rgb(0,0,0)"  stroke-width="2.0"/>
<text x="14.000000" y="48.000000" fill="rgb(12,12,255)"  stroke="rgb(12,12,255)" stroke-width="1" font-size="16" >H</text>
<text x="26.000000" y="51.680000" fill="rgb(12,12,255)"  stroke="rgb(12,12,255)" stroke-width="1" font-size="13" >2</text>
<text x="32.500000" y="48.000000" fill="rgb(12,12,255)"  stroke="rgb(12,12,255)" stroke-width="1" font-size="16" >N</text>
<text x="137.923048" y="108.000000" fill="rgb(12,12,255)"  stroke="rgb(12,12,255)" stroke-width="1" font-size="16" >N</text>
<text x="137.923048" y="148.000000" fill="rgb(191,191,191)"  stroke="rgb(191,191,191)" stroke-width="1" font-size="16" >H</text>
<text x="273.898611" y="103.818861" fill="rgb(191,191,191)"  stroke="rgb(191,191,191)" stroke-width="1" font-size="16" >H</text>
<text x="250.387201" y="71.458182" fill="rgb(255,12,12)"  stroke="rgb(255,12,12)" stroke-width="1" font-size="16" >OH</text>
<text x="250.387201" y="184.541818" fill="rgb(191,191,191)"  stroke="rgb(191,191,191)" stroke-width="1" font-size="16" >H</text>
<text x="297.410021" y="119.820459" fill="rgb(255,12,12)"  stroke="rgb(255,12,12)" stroke-width="1" font-size="16" >OH</text>
<text x="196.075475" y="160.360680" fill="rgb(255,12,12)"  stroke="rgb(255,12,12)" stroke-width="1" font-size="16" >O</text>
<text x="103.282032" y="168.000000" fill="rgb(255,12,12)"  stroke="rgb(255,12,12)" stroke-width="1" font-size="16" >O</text>
<text x="68.641016" y="108.000000" fill="rgb(12,12,255)"  stroke="rgb(12,12,255)" stroke-width="1" font-size="16" >N</text>
</svg>
</g>
</svg>

