<?xml version="1.0"?>
<svg version="1.1" id="topsvg"
xmlns="http://www.w3.org/2000/svg" xmlns:xlink="http://www.w3.org/1999/xlink"
xmlns:cml="http://www.xml-cml.org/schema" x="0" y="0" width="200px" height="200px" viewBox="0 0 100 100">
<title>OBDepict</title>
<rect x="0" y="0" width="100" height="100" fill="white"/>
<text text-anchor="middle" font-size="6" fill ="black" font-family="sans-serif"
x="50" y="98" ></text>
<g transform="translate(0,0)">
<svg width="100" height="100" x="0" y="0" viewBox="0 0 245.477 250.403"
font-family="sans-serif" stroke="rgb(0,0,0)" stroke-width="2"  stroke-linecap="round">
<line x1="194.2" y1="76.9" x2="170.8" y2="90.4" stroke="rgb(0,0,0)"  stroke-width="2.0"/>
<line x1="136.2" y1="150.4" x2="136.2" y2="177.4" stroke="rgb(0,0,0)"  stroke-width="2.0"/>
<line x1="124.9" y1="196.9" x2="112.8" y2="203.9" stroke="rgb(0,0,0)"  stroke-width="2.0"/>
<line x1="59.5" y1="65.7" x2="55.2" y2="52.4" stroke="rgb(0,0,0)"  stroke-width="2.0"/>
<line x1="55.8" y1="132.1" x2="40.0" y2="110.4" stroke="rgb(0,0,0)"  stroke-width="2.0"/>
<line x1="60.4" y1="126.2" x2="49.4" y2="111.0" stroke="rgb(0,0,0)"  stroke-width="2.0"/>
<line x1="40.0" y1="110.4" x2="55.9" y2="88.6" stroke="rgb(0,0,0)"  stroke-width="2.0"/>
<line x1="75.9" y1="82.1" x2="101.6" y2="90.4" stroke="rgb(0,0,0)"  stroke-width="2.0"/>
<line x1="101.6" y1="90.4" x2="101.6" y2="130.4" stroke="rgb(0,0,0)"  stroke-width="2.0"/>
<line x1="101.6" y1="130.4" x2="75.9" y2="138.7" stroke="rgb(0,0,0)"  stroke-width="2.0"/>
<line x1="170.8" y1="90.4" x2="170.8" y2="117.2" stroke="rgb(0,0,0)"  stroke-width="2.0"/>
<line x1="163.6" y1="96.4" x2="163.6" y2="115.2" stroke="rgb(0,0,0)"  stroke-width="2.0"/>
<line x1="159.6" y1="136.9" x2="136.2" y2="150.4" stroke="rgb(0,0,0)"  stroke-width="2.0"/>
<line x1="136.2" y1="150.4" x2="101.6" y2="130.4" stroke="rgb(0,0,0)"  stroke-width="2.0"/>
<line x1="134.6" y1="141.2" x2="110.3" y2="127.2" stroke="rgb(0,0,0)"  stroke-width="2.0"/>
<line x1="101.6" y1="90.4" x2="124.8" y2="77.0" stroke="rgb(0,0,0)"  stroke-width="2.0"/>
<line x1="110.3" y1="93.6" x2="126.6" y2="84.2" stroke="rgb(0,0,0)"  stroke-width="2.0"/>
<line x1="147.5" y1="76.9" x2="170.8" y2="90.4" stroke="rgb(0,0,0)"  stroke-width="2.0"/>
<text x="201.476719" y="78.402940" fill="rgb(12,12,255)"  stroke="rgb(12,12,255)" stroke-width="1" font-size="16" >NH</text>
<text x="225.476719" y="82.082940" fill="rgb(12,12,255)"  stroke="rgb(12,12,255)" stroke-width="1" font-size="13" >2</text>
<text x="164.835703" y="138.402940" fill="rgb(12,12,255)"  stroke="rgb(12,12,255)" stroke-width="1" font-size="16" >N</text>
<text x="130.194687" y="198.402940" fill="rgb(12,12,255)"  stroke="rgb(12,12,255)" stroke-width="1" font-size="16" >NH</text>
<text x="83.553671" y="218.402940" fill="rgb(255,12,12)"  stroke="rgb(255,12,12)" stroke-width="1" font-size="16" >HO</text>
<text x="57.511410" y="150.763620" fill="rgb(12,12,255)"  stroke="rgb(12,12,255)" stroke-width="1" font-size="16" >N</text>
<text x="57.511410" y="86.042261" fill="rgb(12,12,255)"  stroke="rgb(12,12,255)" stroke-width="1" font-size="16" >N</text>
<text x="45.150730" y="48.000000" fill="rgb(191,191,191)"  stroke="rgb(191,191,191)" stroke-width="1" font-size="16" >H</text>
<text x="130.194687" y="78.402940" fill="rgb(12,12,255)"  stroke="rgb(12,12,255)" stroke-width="1" font-size="16" >N</text>
</svg>
</g>
</svg>

