<?xml version="1.0"?>
<svg version="1.1" id="topsvg"
xmlns="http://www.w3.org/2000/svg" xmlns:xlink="http://www.w3.org/1999/xlink"
xmlns:cml="http://www.xml-cml.org/schema" x="0" y="0" width="200px" height="200px" viewBox="0 0 100 100">
<title>OBDepict</title>
<rect x="0" y="0" width="100" height="100" fill="white"/>
<text text-anchor="middle" font-size="6" fill ="black" font-family="sans-serif"
x="50" y="98" ></text>
<g transform="translate(0,0)">
<svg width="100" height="100" x="0" y="0" viewBox="0 0 183.923 220"
font-family="sans-serif" stroke="rgb(0,0,0)" stroke-width="2"  stroke-linecap="round">
<line x1="51.3" y1="173.5" x2="63.4" y2="166.5" stroke="rgb(0,0,0)"  stroke-width="2.0"/>
<line x1="74.6" y1="147.0" x2="74.6" y2="120.0" stroke="rgb(0,0,0)"  stroke-width="2.0"/>
<line x1="109.3" y1="60.0" x2="132.7" y2="46.5" stroke="rgb(0,0,0)"  stroke-width="2.0"/>
<line x1="74.6" y1="120.0" x2="51.4" y2="106.6" stroke="rgb(0,0,0)"  stroke-width="2.0"/>
<line x1="73.0" y1="110.8" x2="56.8" y2="101.4" stroke="rgb(0,0,0)"  stroke-width="2.0"/>
<line x1="40.0" y1="87.0" x2="40.0" y2="60.0" stroke="rgb(0,0,0)"  stroke-width="2.0"/>
<line x1="40.0" y1="60.0" x2="74.6" y2="40.0" stroke="rgb(0,0,0)"  stroke-width="2.0"/>
<line x1="48.8" y1="63.2" x2="73.0" y2="49.2" stroke="rgb(0,0,0)"  stroke-width="2.0"/>
<line x1="74.6" y1="40.0" x2="109.3" y2="60.0" stroke="rgb(0,0,0)"  stroke-width="2.0"/>
<line x1="109.3" y1="60.0" x2="109.3" y2="86.8" stroke="rgb(0,0,0)"  stroke-width="2.0"/>
<line x1="102.1" y1="66.0" x2="102.1" y2="84.8" stroke="rgb(0,0,0)"  stroke-width="2.0"/>
<line x1="98.0" y1="106.5" x2="74.6" y2="120.0" stroke="rgb(0,0,0)"  stroke-width="2.0"/>
<text x="14.000000" y="188.000000" fill="rgb(102,102,102)"  stroke="rgb(102,102,102)" stroke-width="1" font-size="16" >H</text>
<text x="26.000000" y="191.680000" fill="rgb(102,102,102)"  stroke="rgb(102,102,102)" stroke-width="1" font-size="13" >3</text>
<text x="32.500000" y="188.000000" fill="rgb(102,102,102)"  stroke="rgb(102,102,102)" stroke-width="1" font-size="16" >C</text>
<text x="68.641016" y="168.000000" fill="rgb(255,12,12)"  stroke="rgb(255,12,12)" stroke-width="1" font-size="16" >O</text>
<text x="34.000000" y="108.000000" fill="rgb(12,12,255)"  stroke="rgb(12,12,255)" stroke-width="1" font-size="16" >N</text>
<text x="139.923048" y="48.000000" fill="rgb(12,12,255)"  stroke="rgb(12,12,255)" stroke-width="1" font-size="16" >NH</text>
<text x="163.923048" y="51.680000" fill="rgb(12,12,255)"  stroke="rgb(12,12,255)" stroke-width="1" font-size="13" >2</text>
<text x="103.282032" y="108.000000" fill="rgb(12,12,255)"  stroke="rgb(12,12,255)" stroke-width="1" font-size="16" >N</text>
</svg>
</g>
</svg>

