<?xml version="1.0"?>
<svg version="1.1" id="topsvg"
xmlns="http://www.w3.org/2000/svg" xmlns:xlink="http://www.w3.org/1999/xlink"
xmlns:cml="http://www.xml-cml.org/schema" x="0" y="0" width="200px" height="200px" viewBox="0 0 100 100">
<title>OBDepict</title>
<rect x="0" y="0" width="100" height="100" fill="white"/>
<text text-anchor="middle" font-size="6" fill ="black" font-family="sans-serif"
x="50" y="98" ></text>
<g transform="translate(0,0)">
<svg width="100" height="100" x="0" y="0" viewBox="0 0 245.477 200"
font-family="sans-serif" stroke="rgb(0,0,0)" stroke-width="2"  stroke-linecap="round">
<line x1="106.3" y1="147.0" x2="106.3" y2="120.0" stroke="rgb(0,0,0)"  stroke-width="2.0"/>
<line x1="112.3" y1="147.0" x2="112.3" y2="120.0" stroke="rgb(0,0,0)"  stroke-width="2.0"/>
<line x1="63.4" y1="106.5" x2="51.3" y2="113.5" stroke="rgb(0,0,0)"  stroke-width="2.0"/>
<line x1="205.5" y1="80.0" x2="182.0" y2="112.4" stroke="rgb(0,0,0)"  stroke-width="2.0"/>
<line x1="196.1" y1="80.6" x2="179.7" y2="103.3" stroke="rgb(0,0,0)"  stroke-width="2.0"/>
<line x1="182.0" y1="112.4" x2="156.3" y2="104.0" stroke="rgb(0,0,0)"  stroke-width="2.0"/>
<line x1="143.9" y1="87.0" x2="143.9" y2="60.0" stroke="rgb(0,0,0)"  stroke-width="2.0"/>
<line x1="143.9" y1="60.0" x2="169.4" y2="51.7" stroke="rgb(0,0,0)"  stroke-width="2.0"/>
<line x1="151.9" y1="65.0" x2="169.7" y2="59.2" stroke="rgb(0,0,0)"  stroke-width="2.0"/>
<line x1="189.6" y1="58.2" x2="205.5" y2="80.0" stroke="rgb(0,0,0)"  stroke-width="2.0"/>
<line x1="109.3" y1="120.0" x2="85.9" y2="106.5" stroke="rgb(0,0,0)"  stroke-width="2.0"/>
<line x1="74.6" y1="87.0" x2="74.6" y2="60.0" stroke="rgb(0,0,0)"  stroke-width="2.0"/>
<line x1="74.6" y1="60.0" x2="109.3" y2="40.0" stroke="rgb(0,0,0)"  stroke-width="2.0"/>
<line x1="83.4" y1="63.2" x2="107.7" y2="49.2" stroke="rgb(0,0,0)"  stroke-width="2.0"/>
<line x1="109.3" y1="40.0" x2="143.9" y2="60.0" stroke="rgb(0,0,0)"  stroke-width="2.0"/>
<line x1="132.7" y1="106.5" x2="109.3" y2="120.0" stroke="rgb(0,0,0)"  stroke-width="2.0"/>
<text x="103.282032" y="168.000000" fill="rgb(255,12,12)"  stroke="rgb(255,12,12)" stroke-width="1" font-size="16" >O</text>
<text x="68.641016" y="108.000000" fill="rgb(12,12,255)"  stroke="rgb(12,12,255)" stroke-width="1" font-size="16" >N</text>
<text x="34.000000" y="128.000000" fill="rgb(191,191,191)"  stroke="rgb(191,191,191)" stroke-width="1" font-size="16" >H</text>
<text x="175.965309" y="55.639320" fill="rgb(12,12,255)"  stroke="rgb(12,12,255)" stroke-width="1" font-size="16" >N</text>
<text x="137.923048" y="108.000000" fill="rgb(12,12,255)"  stroke="rgb(12,12,255)" stroke-width="1" font-size="16" >N</text>
</svg>
</g>
</svg>

