<?xml version="1.0"?>
<svg version="1.1" id="topsvg"
xmlns="http://www.w3.org/2000/svg" xmlns:xlink="http://www.w3.org/1999/xlink"
xmlns:cml="http://www.xml-cml.org/schema" x="0" y="0" width="200px" height="200px" viewBox="0 0 100 100">
<title>OBDepict</title>
<rect x="0" y="0" width="100" height="100" fill="white"/>
<text text-anchor="middle" font-size="6" fill ="black" font-family="sans-serif"
x="50" y="98" ></text>
<g transform="translate(0,0)">
<svg width="100" height="100" x="0" y="0" viewBox="0 0 218.564 329.282"
font-family="sans-serif" stroke="rgb(0,0,0)" stroke-width="2"  stroke-linecap="round">
<line x1="167.3" y1="233.5" x2="143.9" y2="220.0" stroke="rgb(0,0,0)"  stroke-width="2.0"/>
<polygon points="143.923048 220.000000 153.858947 194.790519 160.787150 198.790519 " stroke-width="2.000000" fill="rgb(0,0,0)"  stroke="rgb(0,0,0)" />
<line x1="143.9" y1="220.0" x2="109.3" y2="200.0" stroke="rgb(0,0,0)"  stroke-width="2.0"/>
<line x1="109.3" y1="200.0" x2="109.3" y2="173.0" stroke="rgb(0,0,0)"  stroke-width="2.0"/>
<line x1="106.3" y1="80.0" x2="106.3" y2="53.0" stroke="rgb(0,0,0)"  stroke-width="2.0"/>
<line x1="112.3" y1="80.0" x2="112.3" y2="53.0" stroke="rgb(0,0,0)"  stroke-width="2.0"/>
<line x1="63.4" y1="93.5" x2="51.3" y2="86.5" stroke="rgb(0,0,0)"  stroke-width="2.0"/>
<line x1="76.1" y1="142.6" x2="52.8" y2="156.1" stroke="rgb(0,0,0)"  stroke-width="2.0"/>
<line x1="73.1" y1="137.4" x2="49.8" y2="150.9" stroke="rgb(0,0,0)"  stroke-width="2.0"/>
<line x1="143.9" y1="220.0" x2="123.9" y2="254.6" stroke="rgb(0,0,0)"  stroke-width="2.0"/>
<line x1="123.9" y1="254.6" x2="96.9" y2="254.6" stroke="rgb(0,0,0)"  stroke-width="2.0"/>
<line x1="126.5" y1="253.1" x2="140.0" y2="276.5" stroke="rgb(0,0,0)"  stroke-width="2.0"/>
<line x1="121.3" y1="256.1" x2="134.8" y2="279.5" stroke="rgb(0,0,0)"  stroke-width="2.0"/>
<line x1="120.5" y1="153.5" x2="143.9" y2="140.0" stroke="rgb(0,0,0)"  stroke-width="2.0"/>
<line x1="143.9" y1="140.0" x2="143.9" y2="100.0" stroke="rgb(0,0,0)"  stroke-width="2.0"/>
<line x1="136.7" y1="134.0" x2="136.7" y2="106.0" stroke="rgb(0,0,0)"  stroke-width="2.0"/>
<line x1="143.9" y1="100.0" x2="109.3" y2="80.0" stroke="rgb(0,0,0)"  stroke-width="2.0"/>
<line x1="109.3" y1="80.0" x2="85.9" y2="93.5" stroke="rgb(0,0,0)"  stroke-width="2.0"/>
<line x1="74.6" y1="113.0" x2="74.6" y2="140.0" stroke="rgb(0,0,0)"  stroke-width="2.0"/>
<line x1="74.6" y1="140.0" x2="98.0" y2="153.5" stroke="rgb(0,0,0)"  stroke-width="2.0"/>
<text x="174.564065" y="248.000000" fill="rgb(12,12,255)"  stroke="rgb(12,12,255)" stroke-width="1" font-size="16" >NH</text>
<text x="198.564065" y="251.680000" fill="rgb(12,12,255)"  stroke="rgb(12,12,255)" stroke-width="1" font-size="13" >2</text>
<text x="157.923048" y="193.358984" fill="rgb(191,191,191)"  stroke="rgb(191,191,191)" stroke-width="1" font-size="16" >H</text>
<text x="103.282032" y="168.000000" fill="rgb(12,12,255)"  stroke="rgb(12,12,255)" stroke-width="1" font-size="16" >N</text>
<text x="103.282032" y="48.000000" fill="rgb(255,12,12)"  stroke="rgb(255,12,12)" stroke-width="1" font-size="16" >O</text>
<text x="68.641016" y="108.000000" fill="rgb(12,12,255)"  stroke="rgb(12,12,255)" stroke-width="1" font-size="16" >N</text>
<text x="34.000000" y="88.000000" fill="rgb(191,191,191)"  stroke="rgb(191,191,191)" stroke-width="1" font-size="16" >H</text>
<text x="34.000000" y="168.000000" fill="rgb(255,12,12)"  stroke="rgb(255,12,12)" stroke-width="1" font-size="16" >O</text>
<text x="65.923048" y="262.641016" fill="rgb(255,12,12)"  stroke="rgb(255,12,12)" stroke-width="1" font-size="16" >HO</text>
<text x="137.923048" y="297.282032" fill="rgb(255,12,12)"  stroke="rgb(255,12,12)" stroke-width="1" font-size="16" >O</text>
</svg>
</g>
</svg>

