<?xml version="1.0"?>
<svg version="1.1" id="topsvg"
xmlns="http://www.w3.org/2000/svg" xmlns:xlink="http://www.w3.org/1999/xlink"
xmlns:cml="http://www.xml-cml.org/schema" x="0" y="0" width="200px" height="200px" viewBox="0 0 100 100">
<title>OBDepict</title>
<rect x="0" y="0" width="100" height="100" fill="white"/>
<text text-anchor="middle" font-size="6" fill ="black" font-family="sans-serif"
x="50" y="98" ></text>
<g transform="translate(0,0)">
<svg width="100" height="100" x="0" y="0" viewBox="0 0 218.564 200"
font-family="sans-serif" stroke="rgb(0,0,0)" stroke-width="2"  stroke-linecap="round">
<line x1="109.3" y1="147.0" x2="109.3" y2="133.0" stroke="rgb(0,0,0)"  stroke-width="2.0"/>
<line x1="76.1" y1="102.6" x2="52.8" y2="116.1" stroke="rgb(0,0,0)"  stroke-width="2.0"/>
<line x1="73.1" y1="97.4" x2="49.8" y2="110.9" stroke="rgb(0,0,0)"  stroke-width="2.0"/>
<line x1="155.2" y1="53.5" x2="167.3" y2="46.5" stroke="rgb(0,0,0)"  stroke-width="2.0"/>
<line x1="145.4" y1="97.4" x2="168.8" y2="110.9" stroke="rgb(0,0,0)"  stroke-width="2.0"/>
<line x1="142.4" y1="102.6" x2="165.8" y2="116.1" stroke="rgb(0,0,0)"  stroke-width="2.0"/>
<line x1="98.0" y1="113.5" x2="74.6" y2="100.0" stroke="rgb(0,0,0)"  stroke-width="2.0"/>
<line x1="74.6" y1="100.0" x2="74.6" y2="60.0" stroke="rgb(0,0,0)"  stroke-width="2.0"/>
<line x1="74.6" y1="60.0" x2="109.3" y2="40.0" stroke="rgb(0,0,0)"  stroke-width="2.0"/>
<line x1="83.4" y1="63.2" x2="107.7" y2="49.2" stroke="rgb(0,0,0)"  stroke-width="2.0"/>
<line x1="109.3" y1="40.0" x2="132.7" y2="53.5" stroke="rgb(0,0,0)"  stroke-width="2.0"/>
<line x1="143.9" y1="73.0" x2="143.9" y2="100.0" stroke="rgb(0,0,0)"  stroke-width="2.0"/>
<line x1="143.9" y1="100.0" x2="120.5" y2="113.5" stroke="rgb(0,0,0)"  stroke-width="2.0"/>
<text x="105.282032" y="168.000000" fill="rgb(102,102,102)"  stroke="rgb(102,102,102)" stroke-width="1" font-size="16" >CH</text>
<text x="129.282032" y="171.680000" fill="rgb(102,102,102)"  stroke="rgb(102,102,102)" stroke-width="1" font-size="13" >3</text>
<text x="103.282032" y="128.000000" fill="rgb(12,12,255)"  stroke="rgb(12,12,255)" stroke-width="1" font-size="16" >N</text>
<text x="34.000000" y="128.000000" fill="rgb(255,12,12)"  stroke="rgb(255,12,12)" stroke-width="1" font-size="16" >O</text>
<text x="137.923048" y="68.000000" fill="rgb(12,12,255)"  stroke="rgb(12,12,255)" stroke-width="1" font-size="16" >N</text>
<text x="172.564065" y="48.000000" fill="rgb(191,191,191)"  stroke="rgb(191,191,191)" stroke-width="1" font-size="16" >H</text>
<text x="172.564065" y="128.000000" fill="rgb(255,12,12)"  stroke="rgb(255,12,12)" stroke-width="1" font-size="16" >O</text>
</svg>
</g>
</svg>

