<?xml version="1.0"?>
<svg version="1.1" id="topsvg"
xmlns="http://www.w3.org/2000/svg" xmlns:xlink="http://www.w3.org/1999/xlink"
xmlns:cml="http://www.xml-cml.org/schema" x="0" y="0" width="200px" height="200px" viewBox="0 0 100 100">
<title>OBDepict</title>
<rect x="0" y="0" width="100" height="100" fill="white"/>
<text text-anchor="middle" font-size="6" fill ="black" font-family="sans-serif"
x="50" y="98" ></text>
<g transform="translate(0,0)">
<svg width="100" height="100" x="0" y="0" viewBox="0 0 329.613 200.927"
font-family="sans-serif" stroke="rgb(0,0,0)" stroke-width="2"  stroke-linecap="round">
<polygon points="171.683 65.7823 149.73 51.4876 155.067 45.5287 " stroke-width="2" fill="rgb(0,0,0)"  stroke="rgb(0,0,0)" />
<polygon points="237.104 103.553 274.245 111.519 271.753 119.121 " stroke-width="2" fill="rgb(0,0,0)"  stroke="rgb(0,0,0)" />
<line x1="273.0" y1="115.3" x2="283.9" y2="93.1" stroke="rgb(0,0,0)"  stroke-width="2.0"/>
<line x1="167.6" y1="106.8" x2="166.8" y2="105.4" stroke="rgb(0,0,0)"  stroke-width="2.0"/>
<line x1="164.4" y1="109.4" x2="162.9" y2="107.0" stroke="rgb(0,0,0)"  stroke-width="2.0"/>
<line x1="161.1" y1="112.1" x2="159.0" y2="108.5" stroke="rgb(0,0,0)"  stroke-width="2.0"/>
<line x1="157.9" y1="114.7" x2="155.1" y2="110.0" stroke="rgb(0,0,0)"  stroke-width="2.0"/>
<line x1="154.6" y1="117.3" x2="151.2" y2="111.5" stroke="rgb(0,0,0)"  stroke-width="2.0"/>
<line x1="151.4" y1="119.9" x2="147.4" y2="113.0" stroke="rgb(0,0,0)"  stroke-width="2.0"/>
<line x1="171.7" y1="103.6" x2="150.2" y2="91.2" stroke="rgb(0,0,0)"  stroke-width="2.0"/>
<line x1="73.7" y1="88.1" x2="51.6" y2="76.9" stroke="rgb(0,0,0)"  stroke-width="2.0"/>
<line x1="75.6" y1="125.8" x2="54.9" y2="139.3" stroke="rgb(0,0,0)"  stroke-width="2.0"/>
<line x1="101.6" y1="105.7" x2="79.5" y2="94.5" stroke="rgb(0,0,0)"  stroke-width="2.0"/>
<line x1="104.3" y1="100.4" x2="82.2" y2="89.1" stroke="rgb(0,0,0)"  stroke-width="2.0"/>
<line x1="194.2" y1="103.9" x2="192.8" y2="103.1" stroke="rgb(0,0,0)"  stroke-width="2.0"/>
<line x1="192.7" y1="107.8" x2="190.2" y2="106.3" stroke="rgb(0,0,0)"  stroke-width="2.0"/>
<line x1="191.2" y1="111.7" x2="187.6" y2="109.6" stroke="rgb(0,0,0)"  stroke-width="2.0"/>
<line x1="189.7" y1="115.5" x2="185.0" y2="112.8" stroke="rgb(0,0,0)"  stroke-width="2.0"/>
<line x1="188.2" y1="119.4" x2="182.4" y2="116.1" stroke="rgb(0,0,0)"  stroke-width="2.0"/>
<line x1="186.7" y1="123.3" x2="179.8" y2="119.3" stroke="rgb(0,0,0)"  stroke-width="2.0"/>
<line x1="196.1" y1="99.0" x2="233.9" y2="150.4" stroke="rgb(0,0,0)"  stroke-width="2.0"/>
<line x1="171.7" y1="65.8" x2="193.1" y2="53.4" stroke="rgb(0,0,0)"  stroke-width="2.0"/>
<line x1="215.7" y1="53.4" x2="237.1" y2="65.8" stroke="rgb(0,0,0)"  stroke-width="2.0"/>
<line x1="237.1" y1="65.8" x2="237.1" y2="103.6" stroke="rgb(0,0,0)"  stroke-width="2.0"/>
<line x1="237.1" y1="103.6" x2="196.1" y2="99.0" stroke="rgb(0,0,0)"  stroke-width="2.0"/>
<line x1="196.1" y1="99.0" x2="171.7" y2="65.8" stroke="rgb(0,0,0)"  stroke-width="2.0"/>
<line x1="237.1" y1="103.6" x2="215.6" y2="115.9" stroke="rgb(0,0,0)"  stroke-width="2.0"/>
<line x1="193.1" y1="115.9" x2="171.7" y2="103.6" stroke="rgb(0,0,0)"  stroke-width="2.0"/>
<line x1="171.7" y1="103.6" x2="171.7" y2="65.8" stroke="rgb(0,0,0)"  stroke-width="2.0"/>
<line x1="127.4" y1="78.8" x2="105.3" y2="67.5" stroke="rgb(0,0,0)"  stroke-width="2.0"/>
<line x1="105.3" y1="67.5" x2="73.7" y2="88.1" stroke="rgb(0,0,0)"  stroke-width="2.0"/>
<line x1="104.2" y1="76.8" x2="82.6" y2="90.9" stroke="rgb(0,0,0)"  stroke-width="2.0"/>
<line x1="73.7" y1="88.1" x2="75.6" y2="125.8" stroke="rgb(0,0,0)"  stroke-width="2.0"/>
<line x1="75.6" y1="125.8" x2="98.2" y2="137.3" stroke="rgb(0,0,0)"  stroke-width="2.0"/>
<line x1="84.2" y1="122.1" x2="99.5" y2="129.9" stroke="rgb(0,0,0)"  stroke-width="2.0"/>
<line x1="107.2" y1="130.1" x2="103.0" y2="103.0" stroke="rgb(0,0,0)"  stroke-width="2.0"/>
<line x1="103.0" y1="103.0" x2="127.4" y2="90.6" stroke="rgb(0,0,0)"  stroke-width="2.0"/>
<text x="136.900155" y="48.000000" fill="rgb(191,191,191)"  stroke="rgb(191,191,191)" stroke-width="1" font-size="16" >H</text>
<text x="198.396195" y="54.895772" fill="rgb(255,12,12)"  stroke="rgb(255,12,12)" stroke-width="1" font-size="16" >O</text>
<text x="283.613251" y="89.395930" fill="rgb(255,12,12)"  stroke="rgb(255,12,12)" stroke-width="1" font-size="16" >OH</text>
<text x="198.390612" y="130.439851" fill="rgb(255,12,12)"  stroke="rgb(255,12,12)" stroke-width="1" font-size="16" >O</text>
<text x="132.355447" y="130.798349" fill="rgb(191,191,191)"  stroke="rgb(191,191,191)" stroke-width="1" font-size="16" >H</text>
<text x="132.975894" y="92.672647" fill="rgb(12,12,255)"  stroke="rgb(12,12,255)" stroke-width="1" font-size="16" >N</text>
<text x="14.000000" y="78.950236" fill="rgb(102,102,102)"  stroke="rgb(102,102,102)" stroke-width="1" font-size="16" >H</text>
<text x="26.000000" y="82.630236" fill="rgb(102,102,102)"  stroke="rgb(102,102,102)" stroke-width="1" font-size="13" >3</text>
<text x="32.500000" y="78.950236" fill="rgb(102,102,102)"  stroke="rgb(102,102,102)" stroke-width="1" font-size="16" >C</text>
<text x="17.953166" y="154.381128" fill="rgb(12,12,255)"  stroke="rgb(12,12,255)" stroke-width="1" font-size="16" >H</text>
<text x="29.953166" y="158.061128" fill="rgb(12,12,255)"  stroke="rgb(12,12,255)" stroke-width="1" font-size="13" >2</text>
<text x="36.453166" y="154.381128" fill="rgb(12,12,255)"  stroke="rgb(12,12,255)" stroke-width="1" font-size="16" >N</text>
<text x="103.278234" y="150.957587" fill="rgb(12,12,255)"  stroke="rgb(12,12,255)" stroke-width="1" font-size="16" >N</text>
<text x="63.302995" y="93.880858" fill="rgb(255,12,12)"  stroke="rgb(255,12,12)" stroke-width="1" font-size="16" >O</text>
<text x="170.897348" y="140.281994" fill="rgb(191,191,191)"  stroke="rgb(191,191,191)" stroke-width="1" font-size="16" >H</text>
<text x="235.559034" y="168.927135" fill="rgb(255,12,12)"  stroke="rgb(255,12,12)" stroke-width="1" font-size="16" >OH</text>
</svg>
</g>
</svg>

