<?xml version="1.0"?>
<svg version="1.1" id="topsvg"
xmlns="http://www.w3.org/2000/svg" xmlns:xlink="http://www.w3.org/1999/xlink"
xmlns:cml="http://www.xml-cml.org/schema" x="0" y="0" width="200px" height="200px" viewBox="0 0 100 100">
<title>OBDepict</title>
<rect x="0" y="0" width="100" height="100" fill="white"/>
<text text-anchor="middle" font-size="6" fill ="black" font-family="sans-serif"
x="50" y="98" ></text>
<g transform="translate(0,0)">
<svg width="100" height="100" x="0" y="0" viewBox="0 0 357.128 320"
font-family="sans-serif" stroke="rgb(0,0,0)" stroke-width="2"  stroke-linecap="round">
<line x1="63.4" y1="46.5" x2="40.0" y2="60.0" stroke="rgb(0,0,0)"  stroke-width="2.0"/>
<line x1="40.0" y1="60.0" x2="40.0" y2="100.0" stroke="rgb(0,0,0)"  stroke-width="2.0"/>
<line x1="40.0" y1="100.0" x2="63.4" y2="113.5" stroke="rgb(0,0,0)"  stroke-width="2.0"/>
<line x1="74.6" y1="133.0" x2="74.6" y2="160.0" stroke="rgb(0,0,0)"  stroke-width="2.0"/>
<line x1="74.6" y1="160.0" x2="98.0" y2="173.5" stroke="rgb(0,0,0)"  stroke-width="2.0"/>
<line x1="178.6" y1="180.0" x2="213.2" y2="160.0" stroke="rgb(0,0,0)"  stroke-width="2.0"/>
<line x1="213.2" y1="160.0" x2="247.8" y2="180.0" stroke="rgb(0,0,0)"  stroke-width="2.0"/>
<line x1="180.1" y1="217.4" x2="203.4" y2="230.9" stroke="rgb(0,0,0)"  stroke-width="2.0"/>
<line x1="177.1" y1="222.6" x2="200.4" y2="236.1" stroke="rgb(0,0,0)"  stroke-width="2.0"/>
<line x1="143.9" y1="253.0" x2="143.9" y2="267.0" stroke="rgb(0,0,0)"  stroke-width="2.0"/>
<line x1="110.8" y1="222.6" x2="87.4" y2="236.1" stroke="rgb(0,0,0)"  stroke-width="2.0"/>
<line x1="107.8" y1="217.4" x2="84.4" y2="230.9" stroke="rgb(0,0,0)"  stroke-width="2.0"/>
<line x1="247.8" y1="180.0" x2="282.5" y2="160.0" stroke="rgb(0,0,0)"  stroke-width="2.0"/>
<line x1="256.6" y1="183.2" x2="280.9" y2="169.2" stroke="rgb(0,0,0)"  stroke-width="2.0"/>
<line x1="282.5" y1="160.0" x2="317.1" y2="180.0" stroke="rgb(0,0,0)"  stroke-width="2.0"/>
<line x1="317.1" y1="180.0" x2="317.1" y2="220.0" stroke="rgb(0,0,0)"  stroke-width="2.0"/>
<line x1="309.9" y1="186.0" x2="309.9" y2="214.0" stroke="rgb(0,0,0)"  stroke-width="2.0"/>
<line x1="317.1" y1="220.0" x2="282.5" y2="240.0" stroke="rgb(0,0,0)"  stroke-width="2.0"/>
<line x1="282.5" y1="240.0" x2="247.8" y2="220.0" stroke="rgb(0,0,0)"  stroke-width="2.0"/>
<line x1="280.9" y1="230.8" x2="256.6" y2="216.8" stroke="rgb(0,0,0)"  stroke-width="2.0"/>
<line x1="247.8" y1="220.0" x2="247.8" y2="180.0" stroke="rgb(0,0,0)"  stroke-width="2.0"/>
<line x1="120.5" y1="173.5" x2="143.9" y2="160.0" stroke="rgb(0,0,0)"  stroke-width="2.0"/>
<line x1="143.9" y1="160.0" x2="178.6" y2="180.0" stroke="rgb(0,0,0)"  stroke-width="2.0"/>
<line x1="145.5" y1="169.2" x2="169.8" y2="183.2" stroke="rgb(0,0,0)"  stroke-width="2.0"/>
<line x1="178.6" y1="180.0" x2="178.6" y2="220.0" stroke="rgb(0,0,0)"  stroke-width="2.0"/>
<line x1="178.6" y1="220.0" x2="155.2" y2="233.5" stroke="rgb(0,0,0)"  stroke-width="2.0"/>
<line x1="132.7" y1="233.5" x2="109.3" y2="220.0" stroke="rgb(0,0,0)"  stroke-width="2.0"/>
<line x1="109.3" y1="220.0" x2="109.3" y2="193.0" stroke="rgb(0,0,0)"  stroke-width="2.0"/>
<text x="68.641016" y="48.000000" fill="rgb(255,12,12)"  stroke="rgb(255,12,12)" stroke-width="1" font-size="16" >OH</text>
<text x="68.641016" y="128.000000" fill="rgb(255,12,12)"  stroke="rgb(255,12,12)" stroke-width="1" font-size="16" >O</text>
<text x="103.282032" y="188.000000" fill="rgb(12,12,255)"  stroke="rgb(12,12,255)" stroke-width="1" font-size="16" >N</text>
<text x="207.205081" y="248.000000" fill="rgb(255,12,12)"  stroke="rgb(255,12,12)" stroke-width="1" font-size="16" >O</text>
<text x="137.923048" y="248.000000" fill="rgb(12,12,255)"  stroke="rgb(12,12,255)" stroke-width="1" font-size="16" >N</text>
<text x="137.923048" y="288.000000" fill="rgb(191,191,191)"  stroke="rgb(191,191,191)" stroke-width="1" font-size="16" >H</text>
<text x="68.641016" y="248.000000" fill="rgb(255,12,12)"  stroke="rgb(255,12,12)" stroke-width="1" font-size="16" >O</text>
</svg>
</g>
</svg>

