<?xml version="1.0"?>
<svg version="1.1" id="topsvg"
xmlns="http://www.w3.org/2000/svg" xmlns:xlink="http://www.w3.org/1999/xlink"
xmlns:cml="http://www.xml-cml.org/schema" x="0" y="0" width="200px" height="200px" viewBox="0 0 100 100">
<title>OBDepict</title>
<rect x="0" y="0" width="100" height="100" fill="white"/>
<text text-anchor="middle" font-size="6" fill ="black" font-family="sans-serif"
x="50" y="98" ></text>
<g transform="translate(0,0)">
<svg width="100" height="100" x="0" y="0" viewBox="0 0 344.798 276.542"
font-family="sans-serif" stroke="rgb(0,0,0)" stroke-width="2"  stroke-linecap="round">
<line x1="296.6" y1="131.3" x2="279.6" y2="110.3" stroke="rgb(0,0,0)"  stroke-width="2.0"/>
<line x1="279.6" y1="110.3" x2="240.1" y2="116.5" stroke="rgb(0,0,0)"  stroke-width="2.0"/>
<line x1="240.7" y1="121.9" x2="239.1" y2="121.9" stroke="rgb(0,0,0)"  stroke-width="2.0"/>
<line x1="241.1" y1="126.2" x2="238.3" y2="126.1" stroke="rgb(0,0,0)"  stroke-width="2.0"/>
<line x1="241.6" y1="130.6" x2="237.4" y2="130.4" stroke="rgb(0,0,0)"  stroke-width="2.0"/>
<line x1="242.0" y1="134.9" x2="236.6" y2="134.6" stroke="rgb(0,0,0)"  stroke-width="2.0"/>
<line x1="242.5" y1="139.2" x2="235.8" y2="138.9" stroke="rgb(0,0,0)"  stroke-width="2.0"/>
<line x1="243.0" y1="143.5" x2="235.0" y2="143.1" stroke="rgb(0,0,0)"  stroke-width="2.0"/>
<line x1="173.5" y1="94.6" x2="174.3" y2="93.2" stroke="rgb(0,0,0)"  stroke-width="2.0"/>
<line x1="169.5" y1="93.0" x2="170.9" y2="90.5" stroke="rgb(0,0,0)"  stroke-width="2.0"/>
<line x1="165.5" y1="91.4" x2="167.5" y2="87.8" stroke="rgb(0,0,0)"  stroke-width="2.0"/>
<line x1="161.4" y1="89.8" x2="164.1" y2="85.1" stroke="rgb(0,0,0)"  stroke-width="2.0"/>
<line x1="157.4" y1="88.2" x2="160.7" y2="82.4" stroke="rgb(0,0,0)"  stroke-width="2.0"/>
<line x1="153.4" y1="86.6" x2="157.4" y2="79.7" stroke="rgb(0,0,0)"  stroke-width="2.0"/>
<polygon points="240.117735 76.541818 266.352808 69.762368 267.189036 77.718543 " stroke-width="2.000000" fill="rgb(0,0,0)"  stroke="rgb(0,0,0)" />
<line x1="240.1" y1="76.5" x2="251.1" y2="51.9" stroke="rgb(0,0,0)"  stroke-width="2.0"/>
<line x1="178.6" y1="96.5" x2="155.2" y2="110.0" stroke="rgb(0,0,0)"  stroke-width="2.0"/>
<line x1="109.3" y1="176.5" x2="109.3" y2="216.5" stroke="rgb(0,0,0)"  stroke-width="2.0"/>
<line x1="109.3" y1="216.5" x2="85.9" y2="230.0" stroke="rgb(0,0,0)"  stroke-width="2.0"/>
<line x1="76.1" y1="159.1" x2="52.8" y2="172.6" stroke="rgb(0,0,0)"  stroke-width="2.0"/>
<line x1="73.1" y1="153.9" x2="49.8" y2="167.4" stroke="rgb(0,0,0)"  stroke-width="2.0"/>
<line x1="63.4" y1="110.0" x2="51.3" y2="103.0" stroke="rgb(0,0,0)"  stroke-width="2.0"/>
<line x1="106.3" y1="96.5" x2="106.3" y2="69.5" stroke="rgb(0,0,0)"  stroke-width="2.0"/>
<line x1="112.3" y1="96.5" x2="112.3" y2="69.5" stroke="rgb(0,0,0)"  stroke-width="2.0"/>
<line x1="240.1" y1="116.5" x2="214.4" y2="124.9" stroke="rgb(0,0,0)"  stroke-width="2.0"/>
<line x1="194.4" y1="118.4" x2="178.6" y2="96.5" stroke="rgb(0,0,0)"  stroke-width="2.0"/>
<line x1="178.6" y1="96.5" x2="202.1" y2="64.2" stroke="rgb(0,0,0)"  stroke-width="2.0"/>
<line x1="202.1" y1="64.2" x2="240.1" y2="76.5" stroke="rgb(0,0,0)"  stroke-width="2.0"/>
<line x1="240.1" y1="76.5" x2="240.1" y2="116.5" stroke="rgb(0,0,0)"  stroke-width="2.0"/>
<line x1="143.9" y1="129.5" x2="143.9" y2="156.5" stroke="rgb(0,0,0)"  stroke-width="2.0"/>
<line x1="143.9" y1="156.5" x2="109.3" y2="176.5" stroke="rgb(0,0,0)"  stroke-width="2.0"/>
<line x1="135.1" y1="153.3" x2="110.9" y2="167.3" stroke="rgb(0,0,0)"  stroke-width="2.0"/>
<line x1="109.3" y1="176.5" x2="74.6" y2="156.5" stroke="rgb(0,0,0)"  stroke-width="2.0"/>
<line x1="74.6" y1="156.5" x2="74.6" y2="129.5" stroke="rgb(0,0,0)"  stroke-width="2.0"/>
<line x1="85.9" y1="110.0" x2="109.3" y2="96.5" stroke="rgb(0,0,0)"  stroke-width="2.0"/>
<line x1="109.3" y1="96.5" x2="132.7" y2="110.0" stroke="rgb(0,0,0)"  stroke-width="2.0"/>
<text x="298.798085" y="149.370278" fill="rgb(255,12,12)"  stroke="rgb(255,12,12)" stroke-width="1" font-size="16" >OH</text>
<text x="232.390245" y="164.504498" fill="rgb(191,191,191)"  stroke="rgb(191,191,191)" stroke-width="1" font-size="16" >H</text>
<text x="196.075475" y="136.902498" fill="rgb(255,12,12)"  stroke="rgb(255,12,12)" stroke-width="1" font-size="16" >O</text>
<text x="137.923048" y="84.541818" fill="rgb(191,191,191)"  stroke="rgb(191,191,191)" stroke-width="1" font-size="16" >H</text>
<text x="273.898611" y="80.360680" fill="rgb(191,191,191)"  stroke="rgb(191,191,191)" stroke-width="1" font-size="16" >H</text>
<text x="250.387201" y="48.000000" fill="rgb(255,12,12)"  stroke="rgb(255,12,12)" stroke-width="1" font-size="16" >OH</text>
<text x="137.923048" y="124.541818" fill="rgb(12,12,255)"  stroke="rgb(12,12,255)" stroke-width="1" font-size="16" >N</text>
<text x="56.641016" y="244.541818" fill="rgb(255,12,12)"  stroke="rgb(255,12,12)" stroke-width="1" font-size="16" >HO</text>
<text x="34.000000" y="184.541818" fill="rgb(255,12,12)"  stroke="rgb(255,12,12)" stroke-width="1" font-size="16" >O</text>
<text x="68.641016" y="124.541818" fill="rgb(12,12,255)"  stroke="rgb(12,12,255)" stroke-width="1" font-size="16" >N</text>
<text x="34.000000" y="104.541818" fill="rgb(191,191,191)"  stroke="rgb(191,191,191)" stroke-width="1" font-size="16" >H</text>
<text x="103.282032" y="64.541818" fill="rgb(255,12,12)"  stroke="rgb(255,12,12)" stroke-width="1" font-size="16" >O</text>
</svg>
</g>
</svg>

