<?xml version="1.0"?>
<svg version="1.1" id="topsvg"
xmlns="http://www.w3.org/2000/svg" xmlns:xlink="http://www.w3.org/1999/xlink"
xmlns:cml="http://www.xml-cml.org/schema" x="0" y="0" width="200px" height="200px" viewBox="0 0 100 100">
<title>OBDepict</title>
<rect x="0" y="0" width="100" height="100" fill="white"/>
<text text-anchor="middle" font-size="6" fill ="black" font-family="sans-serif"
x="50" y="98" ></text>
<g transform="translate(0,0)">
<svg width="100" height="100" x="0" y="0" viewBox="0 0 210.836 250.403"
font-family="sans-serif" stroke="rgb(0,0,0)" stroke-width="2"  stroke-linecap="round">
<line x1="159.6" y1="46.5" x2="147.5" y2="53.5" stroke="rgb(0,0,0)"  stroke-width="2.0"/>
<line x1="136.2" y1="73.0" x2="136.2" y2="100.0" stroke="rgb(0,0,0)"  stroke-width="2.0"/>
<line x1="59.5" y1="184.7" x2="55.2" y2="198.0" stroke="rgb(0,0,0)"  stroke-width="2.0"/>
<line x1="40.0" y1="140.0" x2="55.8" y2="118.3" stroke="rgb(0,0,0)"  stroke-width="2.0"/>
<line x1="49.4" y1="139.4" x2="60.4" y2="124.2" stroke="rgb(0,0,0)"  stroke-width="2.0"/>
<line x1="75.9" y1="111.7" x2="101.6" y2="120.0" stroke="rgb(0,0,0)"  stroke-width="2.0"/>
<line x1="101.6" y1="120.0" x2="101.6" y2="160.0" stroke="rgb(0,0,0)"  stroke-width="2.0"/>
<line x1="94.4" y1="126.0" x2="94.4" y2="154.0" stroke="rgb(0,0,0)"  stroke-width="2.0"/>
<line x1="101.6" y1="160.0" x2="75.9" y2="168.3" stroke="rgb(0,0,0)"  stroke-width="2.0"/>
<line x1="55.9" y1="161.8" x2="40.0" y2="140.0" stroke="rgb(0,0,0)"  stroke-width="2.0"/>
<line x1="136.2" y1="100.0" x2="159.4" y2="113.4" stroke="rgb(0,0,0)"  stroke-width="2.0"/>
<line x1="137.8" y1="109.2" x2="154.1" y2="118.6" stroke="rgb(0,0,0)"  stroke-width="2.0"/>
<line x1="170.8" y1="133.0" x2="170.8" y2="160.0" stroke="rgb(0,0,0)"  stroke-width="2.0"/>
<line x1="170.8" y1="160.0" x2="147.6" y2="173.4" stroke="rgb(0,0,0)"  stroke-width="2.0"/>
<line x1="162.0" y1="156.8" x2="145.8" y2="166.2" stroke="rgb(0,0,0)"  stroke-width="2.0"/>
<line x1="124.9" y1="173.5" x2="101.6" y2="160.0" stroke="rgb(0,0,0)"  stroke-width="2.0"/>
<line x1="101.6" y1="120.0" x2="136.2" y2="100.0" stroke="rgb(0,0,0)"  stroke-width="2.0"/>
<text x="166.835703" y="48.000000" fill="rgb(102,102,102)"  stroke="rgb(102,102,102)" stroke-width="1" font-size="16" >CH</text>
<text x="190.835703" y="51.680000" fill="rgb(102,102,102)"  stroke="rgb(102,102,102)" stroke-width="1" font-size="13" >3</text>
<text x="118.194687" y="68.000000" fill="rgb(12,12,255)"  stroke="rgb(12,12,255)" stroke-width="1" font-size="16" >HN</text>
<text x="164.835703" y="128.000000" fill="rgb(12,12,255)"  stroke="rgb(12,12,255)" stroke-width="1" font-size="16" >N</text>
<text x="130.194687" y="188.000000" fill="rgb(12,12,255)"  stroke="rgb(12,12,255)" stroke-width="1" font-size="16" >N</text>
<text x="57.511410" y="180.360680" fill="rgb(12,12,255)"  stroke="rgb(12,12,255)" stroke-width="1" font-size="16" >N</text>
<text x="45.150730" y="218.402940" fill="rgb(191,191,191)"  stroke="rgb(191,191,191)" stroke-width="1" font-size="16" >H</text>
<text x="57.511410" y="115.639320" fill="rgb(12,12,255)"  stroke="rgb(12,12,255)" stroke-width="1" font-size="16" >N</text>
</svg>
</g>
</svg>

