<?xml version="1.0"?>
<svg version="1.1" id="topsvg"
xmlns="http://www.w3.org/2000/svg" xmlns:xlink="http://www.w3.org/1999/xlink"
xmlns:cml="http://www.xml-cml.org/schema" x="0" y="0" width="200px" height="200px" viewBox="0 0 100 100">
<title>OBDepict</title>
<rect x="0" y="0" width="100" height="100" fill="white"/>
<text text-anchor="middle" font-size="6" fill ="black" font-family="sans-serif"
x="50" y="98" ></text>
<g transform="translate(0,0)">
<svg width="100" height="100" x="0" y="0" viewBox="0 0 426.41 320"
font-family="sans-serif" stroke="rgb(0,0,0)" stroke-width="2"  stroke-linecap="round">
<line x1="351.8" y1="187.0" x2="351.8" y2="160.0" stroke="rgb(0,0,0)"  stroke-width="2.0"/>
<line x1="351.8" y1="160.0" x2="375.2" y2="146.5" stroke="rgb(0,0,0)"  stroke-width="2.0"/>
<line x1="351.8" y1="160.0" x2="317.1" y2="140.0" stroke="rgb(0,0,0)"  stroke-width="2.0"/>
<line x1="282.5" y1="160.0" x2="282.5" y2="200.0" stroke="rgb(0,0,0)"  stroke-width="2.0"/>
<line x1="282.5" y1="200.0" x2="247.8" y2="220.0" stroke="rgb(0,0,0)"  stroke-width="2.0"/>
<line x1="236.6" y1="146.5" x2="213.2" y2="160.0" stroke="rgb(0,0,0)"  stroke-width="2.0"/>
<line x1="213.2" y1="160.0" x2="189.8" y2="146.5" stroke="rgb(0,0,0)"  stroke-width="2.0"/>
<line x1="167.3" y1="146.5" x2="143.9" y2="160.0" stroke="rgb(0,0,0)"  stroke-width="2.0"/>
<line x1="143.9" y1="160.0" x2="109.3" y2="140.0" stroke="rgb(0,0,0)"  stroke-width="2.0"/>
<line x1="246.3" y1="102.6" x2="223.0" y2="89.1" stroke="rgb(0,0,0)"  stroke-width="2.0"/>
<line x1="249.3" y1="97.4" x2="226.0" y2="83.9" stroke="rgb(0,0,0)"  stroke-width="2.0"/>
<line x1="282.5" y1="67.0" x2="282.5" y2="53.0" stroke="rgb(0,0,0)"  stroke-width="2.0"/>
<line x1="315.6" y1="97.4" x2="339.0" y2="83.9" stroke="rgb(0,0,0)"  stroke-width="2.0"/>
<line x1="318.6" y1="102.6" x2="342.0" y2="89.1" stroke="rgb(0,0,0)"  stroke-width="2.0"/>
<line x1="247.8" y1="220.0" x2="213.2" y2="200.0" stroke="rgb(0,0,0)"  stroke-width="2.0"/>
<line x1="239.0" y1="223.2" x2="214.8" y2="209.2" stroke="rgb(0,0,0)"  stroke-width="2.0"/>
<line x1="213.2" y1="200.0" x2="178.6" y2="220.0" stroke="rgb(0,0,0)"  stroke-width="2.0"/>
<line x1="178.6" y1="220.0" x2="178.6" y2="260.0" stroke="rgb(0,0,0)"  stroke-width="2.0"/>
<line x1="185.8" y1="226.0" x2="185.8" y2="254.0" stroke="rgb(0,0,0)"  stroke-width="2.0"/>
<line x1="178.6" y1="260.0" x2="213.2" y2="280.0" stroke="rgb(0,0,0)"  stroke-width="2.0"/>
<line x1="213.2" y1="280.0" x2="247.8" y2="260.0" stroke="rgb(0,0,0)"  stroke-width="2.0"/>
<line x1="214.8" y1="270.8" x2="239.0" y2="256.8" stroke="rgb(0,0,0)"  stroke-width="2.0"/>
<line x1="247.8" y1="260.0" x2="247.8" y2="220.0" stroke="rgb(0,0,0)"  stroke-width="2.0"/>
<line x1="109.3" y1="140.0" x2="74.6" y2="160.0" stroke="rgb(0,0,0)"  stroke-width="2.0"/>
<line x1="100.5" y1="136.8" x2="76.2" y2="150.8" stroke="rgb(0,0,0)"  stroke-width="2.0"/>
<line x1="74.6" y1="160.0" x2="40.0" y2="140.0" stroke="rgb(0,0,0)"  stroke-width="2.0"/>
<line x1="40.0" y1="140.0" x2="40.0" y2="100.0" stroke="rgb(0,0,0)"  stroke-width="2.0"/>
<line x1="47.2" y1="134.0" x2="47.2" y2="106.0" stroke="rgb(0,0,0)"  stroke-width="2.0"/>
<line x1="40.0" y1="100.0" x2="74.6" y2="80.0" stroke="rgb(0,0,0)"  stroke-width="2.0"/>
<line x1="74.6" y1="80.0" x2="109.3" y2="100.0" stroke="rgb(0,0,0)"  stroke-width="2.0"/>
<line x1="76.2" y1="89.2" x2="100.5" y2="103.2" stroke="rgb(0,0,0)"  stroke-width="2.0"/>
<line x1="109.3" y1="100.0" x2="109.3" y2="140.0" stroke="rgb(0,0,0)"  stroke-width="2.0"/>
<line x1="317.1" y1="140.0" x2="282.5" y2="160.0" stroke="rgb(0,0,0)"  stroke-width="2.0"/>
<line x1="308.3" y1="136.8" x2="284.1" y2="150.8" stroke="rgb(0,0,0)"  stroke-width="2.0"/>
<line x1="282.5" y1="160.0" x2="259.1" y2="146.5" stroke="rgb(0,0,0)"  stroke-width="2.0"/>
<line x1="247.8" y1="127.0" x2="247.8" y2="100.0" stroke="rgb(0,0,0)"  stroke-width="2.0"/>
<line x1="247.8" y1="100.0" x2="271.2" y2="86.5" stroke="rgb(0,0,0)"  stroke-width="2.0"/>
<line x1="293.7" y1="86.5" x2="317.1" y2="100.0" stroke="rgb(0,0,0)"  stroke-width="2.0"/>
<line x1="317.1" y1="100.0" x2="317.1" y2="140.0" stroke="rgb(0,0,0)"  stroke-width="2.0"/>
<text x="347.769145" y="208.000000" fill="rgb(102,102,102)"  stroke="rgb(102,102,102)" stroke-width="1" font-size="16" >CH</text>
<text x="371.769145" y="211.680000" fill="rgb(102,102,102)"  stroke="rgb(102,102,102)" stroke-width="1" font-size="13" >3</text>
<text x="382.410162" y="148.000000" fill="rgb(102,102,102)"  stroke="rgb(102,102,102)" stroke-width="1" font-size="16" >CH</text>
<text x="406.410162" y="151.680000" fill="rgb(102,102,102)"  stroke="rgb(102,102,102)" stroke-width="1" font-size="13" >3</text>
<text x="241.846097" y="148.000000" fill="rgb(12,12,255)"  stroke="rgb(12,12,255)" stroke-width="1" font-size="16" >N</text>
<text x="172.564065" y="148.000000" fill="rgb(255,12,12)"  stroke="rgb(255,12,12)" stroke-width="1" font-size="16" >O</text>
<text x="207.205081" y="88.000000" fill="rgb(255,12,12)"  stroke="rgb(255,12,12)" stroke-width="1" font-size="16" >O</text>
<text x="276.487113" y="88.000000" fill="rgb(12,12,255)"  stroke="rgb(12,12,255)" stroke-width="1" font-size="16" >N</text>
<text x="276.487113" y="48.000000" fill="rgb(191,191,191)"  stroke="rgb(191,191,191)" stroke-width="1" font-size="16" >H</text>
<text x="345.769145" y="88.000000" fill="rgb(255,12,12)"  stroke="rgb(255,12,12)" stroke-width="1" font-size="16" >O</text>
</svg>
</g>
</svg>

