<?xml version="1.0"?>
<svg version="1.1" id="topsvg"
xmlns="http://www.w3.org/2000/svg" xmlns:xlink="http://www.w3.org/1999/xlink"
xmlns:cml="http://www.xml-cml.org/schema" x="0" y="0" width="200px" height="200px" viewBox="0 0 100 100">
<title>OBDepict</title>
<rect x="0" y="0" width="100" height="100" fill="white"/>
<text text-anchor="middle" font-size="6" fill ="black" font-family="sans-serif"
x="50" y="98" ></text>
<g transform="translate(0,0)">
<svg width="100" height="100" x="0" y="0" viewBox="0 0 357.996 263.088"
font-family="sans-serif" stroke="rgb(0,0,0)" stroke-width="2"  stroke-linecap="round">
<line x1="162.0" y1="107.5" x2="139.9" y2="120.3" stroke="rgb(0,0,0)"  stroke-width="2.0"/>
<line x1="139.9" y1="158.7" x2="173.2" y2="178.0" stroke="rgb(0,0,0)"  stroke-width="2.0"/>
<line x1="200.3" y1="163.3" x2="199.5" y2="161.9" stroke="rgb(0,0,0)"  stroke-width="2.0"/>
<line x1="195.3" y1="166.9" x2="193.8" y2="164.4" stroke="rgb(0,0,0)"  stroke-width="2.0"/>
<line x1="190.3" y1="170.5" x2="188.2" y2="166.9" stroke="rgb(0,0,0)"  stroke-width="2.0"/>
<line x1="185.3" y1="174.2" x2="182.5" y2="169.5" stroke="rgb(0,0,0)"  stroke-width="2.0"/>
<line x1="180.2" y1="177.8" x2="176.9" y2="172.0" stroke="rgb(0,0,0)"  stroke-width="2.0"/>
<line x1="175.2" y1="181.4" x2="171.2" y2="174.5" stroke="rgb(0,0,0)"  stroke-width="2.0"/>
<line x1="206.5" y1="158.7" x2="203.2" y2="133.5" stroke="rgb(0,0,0)"  stroke-width="2.0"/>
<polygon points="233.739762 131.543823 236.545626 105.617381 244.273033 107.687933 " stroke-width="2.000000" fill="rgb(0,0,0)"  stroke="rgb(0,0,0)" />
<line x1="233.7" y1="131.5" x2="179.3" y2="77.2" stroke="rgb(0,0,0)"  stroke-width="2.0"/>
<line x1="179.3" y1="77.2" x2="185.9" y2="52.6" stroke="rgb(0,0,0)"  stroke-width="2.0"/>
<line x1="281.6" y1="175.8" x2="306.2" y2="182.3" stroke="rgb(0,0,0)"  stroke-width="2.0"/>
<line x1="280.1" y1="181.5" x2="304.7" y2="188.1" stroke="rgb(0,0,0)"  stroke-width="2.0"/>
<line x1="218.6" y1="198.0" x2="200.6" y2="216.0" stroke="rgb(0,0,0)"  stroke-width="2.0"/>
<line x1="214.4" y1="193.8" x2="196.4" y2="211.8" stroke="rgb(0,0,0)"  stroke-width="2.0"/>
<line x1="106.6" y1="191.0" x2="106.6" y2="203.4" stroke="rgb(0,0,0)"  stroke-width="2.0"/>
<line x1="74.8" y1="161.3" x2="52.8" y2="174.1" stroke="rgb(0,0,0)"  stroke-width="2.0"/>
<line x1="71.8" y1="156.1" x2="49.8" y2="168.9" stroke="rgb(0,0,0)"  stroke-width="2.0"/>
<line x1="62.1" y1="113.8" x2="51.3" y2="107.5" stroke="rgb(0,0,0)"  stroke-width="2.0"/>
<line x1="103.6" y1="101.0" x2="103.6" y2="75.6" stroke="rgb(0,0,0)"  stroke-width="2.0"/>
<line x1="109.6" y1="101.0" x2="109.6" y2="75.6" stroke="rgb(0,0,0)"  stroke-width="2.0"/>
<line x1="206.5" y1="158.7" x2="233.7" y2="131.5" stroke="rgb(0,0,0)"  stroke-width="2.0"/>
<line x1="233.7" y1="131.5" x2="258.3" y2="138.1" stroke="rgb(0,0,0)"  stroke-width="2.0"/>
<line x1="274.3" y1="154.1" x2="280.8" y2="178.6" stroke="rgb(0,0,0)"  stroke-width="2.0"/>
<line x1="280.8" y1="178.6" x2="262.8" y2="196.7" stroke="rgb(0,0,0)"  stroke-width="2.0"/>
<line x1="241.1" y1="202.5" x2="216.5" y2="195.9" stroke="rgb(0,0,0)"  stroke-width="2.0"/>
<line x1="216.5" y1="195.9" x2="206.5" y2="158.7" stroke="rgb(0,0,0)"  stroke-width="2.0"/>
<line x1="139.9" y1="120.3" x2="139.9" y2="158.7" stroke="rgb(0,0,0)"  stroke-width="2.0"/>
<line x1="132.7" y1="126.3" x2="132.7" y2="152.7" stroke="rgb(0,0,0)"  stroke-width="2.0"/>
<line x1="139.9" y1="158.7" x2="117.9" y2="171.5" stroke="rgb(0,0,0)"  stroke-width="2.0"/>
<line x1="95.4" y1="171.5" x2="73.3" y2="158.7" stroke="rgb(0,0,0)"  stroke-width="2.0"/>
<line x1="73.3" y1="158.7" x2="73.3" y2="133.3" stroke="rgb(0,0,0)"  stroke-width="2.0"/>
<line x1="84.6" y1="113.8" x2="106.6" y2="101.0" stroke="rgb(0,0,0)"  stroke-width="2.0"/>
<line x1="106.6" y1="101.0" x2="139.9" y2="120.3" stroke="rgb(0,0,0)"  stroke-width="2.0"/>
<text x="169.234678" y="109.047930" fill="rgb(102,102,102)"  stroke="rgb(102,102,102)" stroke-width="1" font-size="16" >CH</text>
<text x="193.234678" y="112.727930" fill="rgb(102,102,102)"  stroke="rgb(102,102,102)" stroke-width="1" font-size="13" >3</text>
<text x="175.523109" y="128.607743" fill="rgb(102,102,102)"  stroke="rgb(102,102,102)" stroke-width="1" font-size="16" >H</text>
<text x="187.523109" y="132.287743" fill="rgb(102,102,102)"  stroke="rgb(102,102,102)" stroke-width="1" font-size="13" >3</text>
<text x="194.023109" y="128.607743" fill="rgb(102,102,102)"  stroke="rgb(102,102,102)" stroke-width="1" font-size="16" >C</text>
<text x="237.694340" y="102.392829" fill="rgb(191,191,191)"  stroke="rgb(191,191,191)" stroke-width="1" font-size="16" >H</text>
<text x="183.301511" y="48.000000" fill="rgb(255,12,12)"  stroke="rgb(255,12,12)" stroke-width="1" font-size="16" >OH</text>
<text x="264.890755" y="149.498401" fill="rgb(12,12,255)"  stroke="rgb(12,12,255)" stroke-width="1" font-size="16" >NH</text>
<text x="311.996327" y="196.603973" fill="rgb(255,12,12)"  stroke="rgb(255,12,12)" stroke-width="1" font-size="16" >O</text>
<text x="247.648919" y="213.845809" fill="rgb(12,12,255)"  stroke="rgb(12,12,255)" stroke-width="1" font-size="16" >N</text>
<text x="247.648919" y="229.845809" fill="rgb(12,12,255)"  stroke="rgb(12,12,255)" stroke-width="1" font-size="16" >H</text>
<text x="183.301511" y="231.087645" fill="rgb(255,12,12)"  stroke="rgb(255,12,12)" stroke-width="1" font-size="16" >O</text>
<text x="100.617339" y="185.971007" fill="rgb(12,12,255)"  stroke="rgb(12,12,255)" stroke-width="1" font-size="16" >N</text>
<text x="100.617339" y="224.432545" fill="rgb(191,191,191)"  stroke="rgb(191,191,191)" stroke-width="1" font-size="16" >H</text>
<text x="34.000000" y="185.971007" fill="rgb(255,12,12)"  stroke="rgb(255,12,12)" stroke-width="1" font-size="16" >O</text>
<text x="67.308669" y="128.278699" fill="rgb(12,12,255)"  stroke="rgb(12,12,255)" stroke-width="1" font-size="16" >N</text>
<text x="34.000000" y="109.047930" fill="rgb(191,191,191)"  stroke="rgb(191,191,191)" stroke-width="1" font-size="16" >H</text>
<text x="100.617339" y="70.586391" fill="rgb(255,12,12)"  stroke="rgb(255,12,12)" stroke-width="1" font-size="16" >O</text>
</svg>
</g>
</svg>

