<?xml version="1.0"?>
<svg version="1.1" id="topsvg"
xmlns="http://www.w3.org/2000/svg" xmlns:xlink="http://www.w3.org/1999/xlink"
xmlns:cml="http://www.xml-cml.org/schema" x="0" y="0" width="200px" height="200px" viewBox="0 0 100 100">
<title>OBDepict</title>
<rect x="0" y="0" width="100" height="100" fill="white"/>
<text text-anchor="middle" font-size="6" fill ="black" font-family="sans-serif"
x="50" y="98" ></text>
<g transform="translate(0,0)">
<svg width="100" height="100" x="0" y="0" viewBox="0 0 410.878 234.014"
font-family="sans-serif" stroke="rgb(0,0,0)" stroke-width="2"  stroke-linecap="round">
<line x1="359.6" y1="123.5" x2="337.5" y2="136.2" stroke="rgb(0,0,0)"  stroke-width="2.0"/>
<line x1="229.5" y1="113.2" x2="166.8" y2="126.5" stroke="rgb(0,0,0)"  stroke-width="2.0"/>
<polygon points="166.825223 126.479348 171.061427 152.249037 163.061762 152.322309 " stroke-width="2.000000" fill="rgb(0,0,0)"  stroke="rgb(0,0,0)" />
<polygon points="106.624599 110.348639 81.814069 102.196348 85.445993 95.068296 " stroke-width="2.000000" fill="rgb(0,0,0)"  stroke="rgb(0,0,0)" />
<line x1="127.6" y1="72.8" x2="129.2" y2="73.1" stroke="rgb(0,0,0)"  stroke-width="2.0"/>
<line x1="127.6" y1="68.6" x2="130.5" y2="69.1" stroke="rgb(0,0,0)"  stroke-width="2.0"/>
<line x1="127.6" y1="64.5" x2="131.8" y2="65.1" stroke="rgb(0,0,0)"  stroke-width="2.0"/>
<line x1="127.7" y1="60.3" x2="133.0" y2="61.1" stroke="rgb(0,0,0)"  stroke-width="2.0"/>
<line x1="127.7" y1="56.1" x2="134.3" y2="57.2" stroke="rgb(0,0,0)"  stroke-width="2.0"/>
<line x1="127.7" y1="51.9" x2="135.6" y2="53.2" stroke="rgb(0,0,0)"  stroke-width="2.0"/>
<line x1="127.6" y1="78.0" x2="107.8" y2="62.0" stroke="rgb(0,0,0)"  stroke-width="2.0"/>
<line x1="169.8" y1="86.4" x2="170.0" y2="88.0" stroke="rgb(0,0,0)"  stroke-width="2.0"/>
<line x1="173.8" y1="85.1" x2="174.2" y2="88.0" stroke="rgb(0,0,0)"  stroke-width="2.0"/>
<line x1="177.7" y1="83.9" x2="178.4" y2="88.0" stroke="rgb(0,0,0)"  stroke-width="2.0"/>
<line x1="181.7" y1="82.6" x2="182.6" y2="88.0" stroke="rgb(0,0,0)"  stroke-width="2.0"/>
<line x1="185.7" y1="81.3" x2="186.7" y2="87.9" stroke="rgb(0,0,0)"  stroke-width="2.0"/>
<line x1="189.7" y1="80.0" x2="190.9" y2="87.9" stroke="rgb(0,0,0)"  stroke-width="2.0"/>
<line x1="164.8" y1="88.0" x2="174.0" y2="64.2" stroke="rgb(0,0,0)"  stroke-width="2.0"/>
<line x1="106.6" y1="110.3" x2="74.3" y2="131.3" stroke="rgb(0,0,0)"  stroke-width="2.0"/>
<line x1="74.3" y1="131.3" x2="51.6" y2="119.7" stroke="rgb(0,0,0)"  stroke-width="2.0"/>
<line x1="77.3" y1="131.2" x2="78.7" y2="156.7" stroke="rgb(0,0,0)"  stroke-width="2.0"/>
<line x1="71.3" y1="131.5" x2="72.7" y2="157.0" stroke="rgb(0,0,0)"  stroke-width="2.0"/>
<line x1="257.8" y1="75.3" x2="283.5" y2="78.0" stroke="rgb(0,0,0)"  stroke-width="2.0"/>
<line x1="263.1" y1="83.1" x2="280.6" y2="84.9" stroke="rgb(0,0,0)"  stroke-width="2.0"/>
<line x1="298.9" y1="92.0" x2="304.2" y2="117.0" stroke="rgb(0,0,0)"  stroke-width="2.0"/>
<line x1="304.2" y1="117.0" x2="270.8" y2="136.2" stroke="rgb(0,0,0)"  stroke-width="2.0"/>
<line x1="295.4" y1="113.7" x2="272.4" y2="127.0" stroke="rgb(0,0,0)"  stroke-width="2.0"/>
<line x1="270.8" y1="136.2" x2="251.8" y2="119.2" stroke="rgb(0,0,0)"  stroke-width="2.0"/>
<line x1="247.5" y1="98.6" x2="257.8" y2="75.3" stroke="rgb(0,0,0)"  stroke-width="2.0"/>
<line x1="166.8" y1="126.5" x2="143.0" y2="135.6" stroke="rgb(0,0,0)"  stroke-width="2.0"/>
<line x1="122.7" y1="130.2" x2="106.6" y2="110.3" stroke="rgb(0,0,0)"  stroke-width="2.0"/>
<line x1="106.6" y1="110.3" x2="127.6" y2="78.0" stroke="rgb(0,0,0)"  stroke-width="2.0"/>
<line x1="127.6" y1="78.0" x2="164.8" y2="88.0" stroke="rgb(0,0,0)"  stroke-width="2.0"/>
<line x1="164.8" y1="88.0" x2="166.8" y2="126.5" stroke="rgb(0,0,0)"  stroke-width="2.0"/>
<line x1="337.5" y1="136.2" x2="337.5" y2="162.0" stroke="rgb(0,0,0)"  stroke-width="2.0"/>
<line x1="330.3" y1="142.2" x2="330.3" y2="159.9" stroke="rgb(0,0,0)"  stroke-width="2.0"/>
<line x1="326.3" y1="181.3" x2="304.2" y2="194.0" stroke="rgb(0,0,0)"  stroke-width="2.0"/>
<line x1="304.2" y1="194.0" x2="281.8" y2="181.1" stroke="rgb(0,0,0)"  stroke-width="2.0"/>
<line x1="302.6" y1="184.8" x2="287.3" y2="175.9" stroke="rgb(0,0,0)"  stroke-width="2.0"/>
<line x1="270.8" y1="161.8" x2="270.8" y2="136.2" stroke="rgb(0,0,0)"  stroke-width="2.0"/>
<line x1="304.2" y1="117.0" x2="337.5" y2="136.2" stroke="rgb(0,0,0)"  stroke-width="2.0"/>
<text x="366.877701" y="124.977108" fill="rgb(12,12,255)"  stroke="rgb(12,12,255)" stroke-width="1" font-size="16" >NH</text>
<text x="390.877701" y="128.657108" fill="rgb(12,12,255)"  stroke="rgb(12,12,255)" stroke-width="1" font-size="13" >2</text>
<text x="331.519685" y="182.754886" fill="rgb(12,12,255)"  stroke="rgb(12,12,255)" stroke-width="1" font-size="16" >N</text>
<text x="264.803654" y="182.754886" fill="rgb(12,12,255)"  stroke="rgb(12,12,255)" stroke-width="1" font-size="16" >N</text>
<text x="236.178816" y="118.462447" fill="rgb(12,12,255)"  stroke="rgb(12,12,255)" stroke-width="1" font-size="16" >N</text>
<text x="290.153219" y="87.300311" fill="rgb(12,12,255)"  stroke="rgb(12,12,255)" stroke-width="1" font-size="16" >N</text>
<text x="161.178016" y="172.996251" fill="rgb(191,191,191)"  stroke="rgb(191,191,191)" stroke-width="1" font-size="16" >H</text>
<text x="124.865088" y="148.283151" fill="rgb(255,12,12)"  stroke="rgb(255,12,12)" stroke-width="1" font-size="16" >O</text>
<text x="66.304348" y="100.861598" fill="rgb(191,191,191)"  stroke="rgb(191,191,191)" stroke-width="1" font-size="16" >H</text>
<text x="127.628912" y="48.000000" fill="rgb(191,191,191)"  stroke="rgb(191,191,191)" stroke-width="1" font-size="16" >H</text>
<text x="79.668777" y="61.803803" fill="rgb(255,12,12)"  stroke="rgb(255,12,12)" stroke-width="1" font-size="16" >HO</text>
<text x="196.853611" y="89.987994" fill="rgb(191,191,191)"  stroke="rgb(191,191,191)" stroke-width="1" font-size="16" >H</text>
<text x="172.613122" y="60.053483" fill="rgb(255,12,12)"  stroke="rgb(255,12,12)" stroke-width="1" font-size="16" >OH</text>
<text x="22.000000" y="121.840287" fill="rgb(255,12,12)"  stroke="rgb(255,12,12)" stroke-width="1" font-size="16" >HO</text>
<text x="70.336155" y="177.793058" fill="rgb(255,12,12)"  stroke="rgb(255,12,12)" stroke-width="1" font-size="16" >O</text>
</svg>
</g>
</svg>

