<?xml version="1.0"?>
<svg version="1.1" id="topsvg"
xmlns="http://www.w3.org/2000/svg" xmlns:xlink="http://www.w3.org/1999/xlink"
xmlns:cml="http://www.xml-cml.org/schema" x="0" y="0" width="200px" height="200px" viewBox="0 0 100 100">
<title>OBDepict</title>
<rect x="0" y="0" width="100" height="100" fill="white"/>
<text text-anchor="middle" font-size="6" fill ="black" font-family="sans-serif"
x="50" y="98" ></text>
<g transform="translate(0,0)">
<svg width="100" height="100" x="0" y="0" viewBox="0 0 355.155 294.536"
font-family="sans-serif" stroke="rgb(0,0,0)" stroke-width="2"  stroke-linecap="round">
<polygon points="129.695 157.527 109.395 142.415 115.126 136.833 " stroke-width="2" fill="rgb(0,0,0)"  stroke="rgb(0,0,0)" />
<polygon points="190.211 198.201 225.506 208.185 222.502 215.6 " stroke-width="2" fill="rgb(0,0,0)"  stroke="rgb(0,0,0)" />
<line x1="224.0" y1="211.9" x2="235.7" y2="191.6" stroke="rgb(0,0,0)"  stroke-width="2.0"/>
<line x1="255.2" y1="180.3" x2="265.7" y2="180.3" stroke="rgb(0,0,0)"  stroke-width="2.0"/>
<line x1="278.7" y1="193.3" x2="278.7" y2="203.8" stroke="rgb(0,0,0)"  stroke-width="2.0"/>
<line x1="291.7" y1="180.3" x2="302.2" y2="180.3" stroke="rgb(0,0,0)"  stroke-width="2.0"/>
<line x1="275.7" y1="167.3" x2="275.7" y2="156.9" stroke="rgb(0,0,0)"  stroke-width="2.0"/>
<line x1="281.7" y1="167.3" x2="281.7" y2="156.9" stroke="rgb(0,0,0)"  stroke-width="2.0"/>
<line x1="123.1" y1="196.8" x2="122.4" y2="195.4" stroke="rgb(0,0,0)"  stroke-width="2.0"/>
<line x1="119.8" y1="199.1" x2="118.6" y2="196.5" stroke="rgb(0,0,0)"  stroke-width="2.0"/>
<line x1="116.6" y1="201.4" x2="114.7" y2="197.7" stroke="rgb(0,0,0)"  stroke-width="2.0"/>
<line x1="113.3" y1="203.8" x2="110.9" y2="198.9" stroke="rgb(0,0,0)"  stroke-width="2.0"/>
<line x1="110.0" y1="206.1" x2="107.1" y2="200.0" stroke="rgb(0,0,0)"  stroke-width="2.0"/>
<line x1="106.7" y1="208.4" x2="103.2" y2="201.2" stroke="rgb(0,0,0)"  stroke-width="2.0"/>
<line x1="127.2" y1="193.9" x2="77.5" y2="160.5" stroke="rgb(0,0,0)"  stroke-width="2.0"/>
<line x1="119.0" y1="75.8" x2="114.5" y2="52.8" stroke="rgb(0,0,0)"  stroke-width="2.0"/>
<line x1="148.9" y1="195.8" x2="147.6" y2="194.9" stroke="rgb(0,0,0)"  stroke-width="2.0"/>
<line x1="147.2" y1="199.5" x2="144.8" y2="197.9" stroke="rgb(0,0,0)"  stroke-width="2.0"/>
<line x1="145.5" y1="203.2" x2="142.0" y2="200.8" stroke="rgb(0,0,0)"  stroke-width="2.0"/>
<line x1="143.7" y1="206.9" x2="139.2" y2="203.8" stroke="rgb(0,0,0)"  stroke-width="2.0"/>
<line x1="142.0" y1="210.6" x2="136.4" y2="206.8" stroke="rgb(0,0,0)"  stroke-width="2.0"/>
<line x1="140.3" y1="214.2" x2="133.7" y2="209.8" stroke="rgb(0,0,0)"  stroke-width="2.0"/>
<line x1="151.0" y1="191.1" x2="184.3" y2="243.6" stroke="rgb(0,0,0)"  stroke-width="2.0"/>
<line x1="129.7" y1="157.5" x2="150.8" y2="147.2" stroke="rgb(0,0,0)"  stroke-width="2.0"/>
<line x1="173.2" y1="148.7" x2="192.7" y2="161.8" stroke="rgb(0,0,0)"  stroke-width="2.0"/>
<line x1="192.7" y1="161.8" x2="190.2" y2="198.2" stroke="rgb(0,0,0)"  stroke-width="2.0"/>
<line x1="190.2" y1="198.2" x2="151.0" y2="191.1" stroke="rgb(0,0,0)"  stroke-width="2.0"/>
<line x1="151.0" y1="191.1" x2="129.7" y2="157.5" stroke="rgb(0,0,0)"  stroke-width="2.0"/>
<line x1="190.2" y1="198.2" x2="169.1" y2="208.5" stroke="rgb(0,0,0)"  stroke-width="2.0"/>
<line x1="146.7" y1="207.0" x2="127.2" y2="193.9" stroke="rgb(0,0,0)"  stroke-width="2.0"/>
<line x1="127.2" y1="193.9" x2="129.7" y2="157.5" stroke="rgb(0,0,0)"  stroke-width="2.0"/>
<line x1="57.2" y1="144.4" x2="40.0" y2="128.4" stroke="rgb(0,0,0)"  stroke-width="2.0"/>
<line x1="40.0" y1="128.4" x2="50.3" y2="106.3" stroke="rgb(0,0,0)"  stroke-width="2.0"/>
<line x1="49.1" y1="126.0" x2="55.8" y2="111.4" stroke="rgb(0,0,0)"  stroke-width="2.0"/>
<line x1="68.3" y1="96.9" x2="91.5" y2="99.7" stroke="rgb(0,0,0)"  stroke-width="2.0"/>
<line x1="91.5" y1="99.7" x2="59.7" y2="117.5" stroke="rgb(0,0,0)"  stroke-width="2.0"/>
<line x1="59.7" y1="117.5" x2="64.2" y2="140.5" stroke="rgb(0,0,0)"  stroke-width="2.0"/>
<line x1="119.0" y1="75.8" x2="141.2" y2="83.4" stroke="rgb(0,0,0)"  stroke-width="2.0"/>
<line x1="141.5" y1="79.5" x2="117.1" y2="63.2" stroke="rgb(0,0,0)"  stroke-width="2.0"/>
<line x1="136.1" y1="84.6" x2="118.1" y2="72.6" stroke="rgb(0,0,0)"  stroke-width="2.0"/>
<line x1="117.1" y1="63.2" x2="87.7" y2="72.6" stroke="rgb(0,0,0)"  stroke-width="2.0"/>
<line x1="70.2" y1="90.0" x2="59.7" y2="117.5" stroke="rgb(0,0,0)"  stroke-width="2.0"/>
<line x1="76.3" y1="94.1" x2="68.6" y2="114.4" stroke="rgb(0,0,0)"  stroke-width="2.0"/>
<line x1="91.5" y1="99.7" x2="119.0" y2="75.8" stroke="rgb(0,0,0)"  stroke-width="2.0"/>
<line x1="91.3" y1="90.4" x2="109.8" y2="74.3" stroke="rgb(0,0,0)"  stroke-width="2.0"/>
<text x="97.672933" y="138.806201" fill="rgb(191,191,191)"  stroke="rgb(191,191,191)" stroke-width="1" font-size="16" >H</text>
<text x="156.439382" y="149.490249" fill="rgb(255,12,12)"  stroke="rgb(255,12,12)" stroke-width="1" font-size="16" >O</text>
<text x="236.233798" y="188.316665" fill="rgb(255,12,12)"  stroke="rgb(255,12,12)" stroke-width="1" font-size="16" >O</text>
<text x="272.694280" y="188.316665" fill="rgb(255,127,0)"  stroke="rgb(255,127,0)" stroke-width="1" font-size="16" >P</text>
<text x="272.694280" y="224.777148" fill="rgb(255,12,12)"  stroke="rgb(255,12,12)" stroke-width="1" font-size="16" >OH</text>
<text x="309.154763" y="188.316665" fill="rgb(255,12,12)"  stroke="rgb(255,12,12)" stroke-width="1" font-size="16" >OH</text>
<text x="272.694280" y="151.856183" fill="rgb(255,12,12)"  stroke="rgb(255,12,12)" stroke-width="1" font-size="16" >O</text>
<text x="151.466801" y="222.237819" fill="rgb(255,12,12)"  stroke="rgb(255,12,12)" stroke-width="1" font-size="16" >O</text>
<text x="88.016337" y="218.160711" fill="rgb(191,191,191)"  stroke="rgb(191,191,191)" stroke-width="1" font-size="16" >H</text>
<text x="60.701483" y="161.232088" fill="rgb(12,12,255)"  stroke="rgb(12,12,255)" stroke-width="1" font-size="16" >N</text>
<text x="49.351941" y="103.350516" fill="rgb(12,12,255)"  stroke="rgb(12,12,255)" stroke-width="1" font-size="16" >N</text>
<text x="85.999978" y="48.000000" fill="rgb(12,12,255)"  stroke="rgb(12,12,255)" stroke-width="1" font-size="16" >H</text>
<text x="97.999978" y="51.680000" fill="rgb(12,12,255)"  stroke="rgb(12,12,255)" stroke-width="1" font-size="13" >2</text>
<text x="104.499978" y="48.000000" fill="rgb(12,12,255)"  stroke="rgb(12,12,255)" stroke-width="1" font-size="16" >N</text>
<text x="147.501717" y="95.584518" fill="rgb(12,12,255)"  stroke="rgb(12,12,255)" stroke-width="1" font-size="16" >N</text>
<text x="69.323812" y="84.527089" fill="rgb(12,12,255)"  stroke="rgb(12,12,255)" stroke-width="1" font-size="16" >N</text>
<text x="124.082398" y="230.297125" fill="rgb(191,191,191)"  stroke="rgb(191,191,191)" stroke-width="1" font-size="16" >H</text>
<text x="185.231260" y="262.536481" fill="rgb(255,12,12)"  stroke="rgb(255,12,12)" stroke-width="1" font-size="16" >OH</text>
</svg>
</g>
</svg>

