<?xml version="1.0"?>
<svg version="1.1" id="topsvg"
xmlns="http://www.w3.org/2000/svg" xmlns:xlink="http://www.w3.org/1999/xlink"
xmlns:cml="http://www.xml-cml.org/schema" x="0" y="0" width="200px" height="200px" viewBox="0 0 100 100">
<title>OBDepict</title>
<rect x="0" y="0" width="100" height="100" fill="white"/>
<text text-anchor="middle" font-size="6" fill ="black" font-family="sans-serif"
x="50" y="98" ></text>
<g transform="translate(0,0)">
<svg width="100" height="100" x="0" y="0" viewBox="0 0 337.299 323.12"
font-family="sans-serif" stroke="rgb(0,0,0)" stroke-width="2"  stroke-linecap="round">
<line x1="286.0" y1="153.5" x2="262.7" y2="140.0" stroke="rgb(0,0,0)"  stroke-width="2.0"/>
<line x1="151.3" y1="164.7" x2="143.0" y2="190.4" stroke="rgb(0,0,0)"  stroke-width="2.0"/>
<line x1="143.0" y1="190.4" x2="116.6" y2="196.0" stroke="rgb(0,0,0)"  stroke-width="2.0"/>
<line x1="99.8" y1="211.1" x2="91.5" y2="236.8" stroke="rgb(0,0,0)"  stroke-width="2.0"/>
<line x1="91.5" y1="236.8" x2="52.4" y2="245.1" stroke="rgb(0,0,0)"  stroke-width="2.0"/>
<line x1="52.4" y1="245.1" x2="44.0" y2="270.8" stroke="rgb(0,0,0)"  stroke-width="2.0"/>
<line x1="225.0" y1="80.0" x2="225.0" y2="53.0" stroke="rgb(0,0,0)"  stroke-width="2.0"/>
<line x1="231.0" y1="80.0" x2="231.0" y2="53.0" stroke="rgb(0,0,0)"  stroke-width="2.0"/>
<line x1="273.9" y1="93.5" x2="286.0" y2="86.5" stroke="rgb(0,0,0)"  stroke-width="2.0"/>
<line x1="193.4" y1="140.0" x2="167.7" y2="148.3" stroke="rgb(0,0,0)"  stroke-width="2.0"/>
<line x1="147.7" y1="141.8" x2="131.8" y2="120.0" stroke="rgb(0,0,0)"  stroke-width="2.0"/>
<line x1="131.8" y1="120.0" x2="147.6" y2="98.3" stroke="rgb(0,0,0)"  stroke-width="2.0"/>
<line x1="141.2" y1="119.4" x2="152.2" y2="104.2" stroke="rgb(0,0,0)"  stroke-width="2.0"/>
<line x1="167.7" y1="91.7" x2="193.4" y2="100.0" stroke="rgb(0,0,0)"  stroke-width="2.0"/>
<line x1="193.4" y1="100.0" x2="193.4" y2="140.0" stroke="rgb(0,0,0)"  stroke-width="2.0"/>
<line x1="186.2" y1="106.0" x2="186.2" y2="134.0" stroke="rgb(0,0,0)"  stroke-width="2.0"/>
<line x1="262.7" y1="113.0" x2="262.7" y2="140.0" stroke="rgb(0,0,0)"  stroke-width="2.0"/>
<line x1="262.7" y1="140.0" x2="239.4" y2="153.4" stroke="rgb(0,0,0)"  stroke-width="2.0"/>
<line x1="253.9" y1="136.8" x2="237.6" y2="146.2" stroke="rgb(0,0,0)"  stroke-width="2.0"/>
<line x1="216.8" y1="153.5" x2="193.4" y2="140.0" stroke="rgb(0,0,0)"  stroke-width="2.0"/>
<line x1="193.4" y1="100.0" x2="228.0" y2="80.0" stroke="rgb(0,0,0)"  stroke-width="2.0"/>
<line x1="228.0" y1="80.0" x2="251.4" y2="93.5" stroke="rgb(0,0,0)"  stroke-width="2.0"/>
<text x="293.299156" y="168.000000" fill="rgb(12,12,255)"  stroke="rgb(12,12,255)" stroke-width="1" font-size="16" >NH</text>
<text x="317.299156" y="171.680000" fill="rgb(12,12,255)"  stroke="rgb(12,12,255)" stroke-width="1" font-size="13" >2</text>
<text x="222.017124" y="168.000000" fill="rgb(12,12,255)"  stroke="rgb(12,12,255)" stroke-width="1" font-size="16" >N</text>
<text x="149.333847" y="160.360680" fill="rgb(12,12,255)"  stroke="rgb(12,12,255)" stroke-width="1" font-size="16" >N</text>
<text x="97.847264" y="206.719408" fill="rgb(255,12,12)"  stroke="rgb(255,12,12)" stroke-width="1" font-size="16" >O</text>
<text x="22.000000" y="291.120397" fill="rgb(255,12,12)"  stroke="rgb(255,12,12)" stroke-width="1" font-size="16" >HO</text>
<text x="149.333847" y="95.639320" fill="rgb(12,12,255)"  stroke="rgb(12,12,255)" stroke-width="1" font-size="16" >N</text>
<text x="222.017124" y="48.000000" fill="rgb(255,12,12)"  stroke="rgb(255,12,12)" stroke-width="1" font-size="16" >O</text>
<text x="256.658140" y="108.000000" fill="rgb(12,12,255)"  stroke="rgb(12,12,255)" stroke-width="1" font-size="16" >N</text>
<text x="291.299156" y="88.000000" fill="rgb(191,191,191)"  stroke="rgb(191,191,191)" stroke-width="1" font-size="16" >H</text>
</svg>
</g>
</svg>

