<?xml version="1.0"?>
<svg version="1.1" id="topsvg"
xmlns="http://www.w3.org/2000/svg" xmlns:xlink="http://www.w3.org/1999/xlink"
xmlns:cml="http://www.xml-cml.org/schema" x="0" y="0" width="200px" height="200px" viewBox="0 0 100 100">
<title>OBDepict</title>
<rect x="0" y="0" width="100" height="100" fill="white"/>
<text text-anchor="middle" font-size="6" fill ="black" font-family="sans-serif"
x="50" y="98" ></text>
<g transform="translate(0,0)">
<svg width="100" height="100" x="0" y="0" viewBox="0 0 410.388 233.786"
font-family="sans-serif" stroke="rgb(0,0,0)" stroke-width="2"  stroke-linecap="round">
<line x1="359.1" y1="123.4" x2="337.1" y2="136.1" stroke="rgb(0,0,0)"  stroke-width="2.0"/>
<line x1="229.2" y1="113.1" x2="166.6" y2="126.4" stroke="rgb(0,0,0)"  stroke-width="2.0"/>
<polygon points="166.637612 126.351420 170.873466 152.082934 162.873801 152.156206 " stroke-width="2.000000" fill="rgb(0,0,0)"  stroke="rgb(0,0,0)" />
<polygon points="106.526042 110.244573 81.749527 102.109614 85.381451 94.981561 " stroke-width="2.000000" fill="rgb(0,0,0)"  stroke="rgb(0,0,0)" />
<line x1="106.5" y1="110.2" x2="74.3" y2="131.2" stroke="rgb(0,0,0)"  stroke-width="2.0"/>
<line x1="74.3" y1="131.2" x2="51.6" y2="119.6" stroke="rgb(0,0,0)"  stroke-width="2.0"/>
<line x1="127.5" y1="72.8" x2="129.1" y2="73.0" stroke="rgb(0,0,0)"  stroke-width="2.0"/>
<line x1="127.5" y1="68.6" x2="130.3" y2="69.1" stroke="rgb(0,0,0)"  stroke-width="2.0"/>
<line x1="127.5" y1="64.4" x2="131.6" y2="65.1" stroke="rgb(0,0,0)"  stroke-width="2.0"/>
<line x1="127.5" y1="60.3" x2="132.9" y2="61.1" stroke="rgb(0,0,0)"  stroke-width="2.0"/>
<line x1="127.5" y1="56.1" x2="134.2" y2="57.1" stroke="rgb(0,0,0)"  stroke-width="2.0"/>
<line x1="127.6" y1="51.9" x2="135.5" y2="53.2" stroke="rgb(0,0,0)"  stroke-width="2.0"/>
<line x1="127.5" y1="78.0" x2="107.7" y2="62.0" stroke="rgb(0,0,0)"  stroke-width="2.0"/>
<line x1="169.6" y1="86.3" x2="169.8" y2="87.9" stroke="rgb(0,0,0)"  stroke-width="2.0"/>
<line x1="173.6" y1="85.1" x2="174.0" y2="87.9" stroke="rgb(0,0,0)"  stroke-width="2.0"/>
<line x1="177.5" y1="83.8" x2="178.2" y2="87.9" stroke="rgb(0,0,0)"  stroke-width="2.0"/>
<line x1="181.5" y1="82.5" x2="182.4" y2="87.9" stroke="rgb(0,0,0)"  stroke-width="2.0"/>
<line x1="185.5" y1="81.2" x2="186.5" y2="87.9" stroke="rgb(0,0,0)"  stroke-width="2.0"/>
<line x1="189.5" y1="80.0" x2="190.7" y2="87.9" stroke="rgb(0,0,0)"  stroke-width="2.0"/>
<line x1="164.6" y1="87.9" x2="173.7" y2="64.2" stroke="rgb(0,0,0)"  stroke-width="2.0"/>
<line x1="257.5" y1="75.2" x2="283.2" y2="77.9" stroke="rgb(0,0,0)"  stroke-width="2.0"/>
<line x1="262.7" y1="83.0" x2="280.3" y2="84.9" stroke="rgb(0,0,0)"  stroke-width="2.0"/>
<line x1="298.5" y1="92.0" x2="303.8" y2="116.9" stroke="rgb(0,0,0)"  stroke-width="2.0"/>
<line x1="303.8" y1="116.9" x2="270.5" y2="136.1" stroke="rgb(0,0,0)"  stroke-width="2.0"/>
<line x1="295.0" y1="113.6" x2="272.1" y2="126.9" stroke="rgb(0,0,0)"  stroke-width="2.0"/>
<line x1="270.5" y1="136.1" x2="251.5" y2="119.1" stroke="rgb(0,0,0)"  stroke-width="2.0"/>
<line x1="247.2" y1="98.5" x2="257.5" y2="75.2" stroke="rgb(0,0,0)"  stroke-width="2.0"/>
<line x1="166.6" y1="126.4" x2="142.9" y2="135.5" stroke="rgb(0,0,0)"  stroke-width="2.0"/>
<line x1="122.5" y1="130.0" x2="106.5" y2="110.2" stroke="rgb(0,0,0)"  stroke-width="2.0"/>
<line x1="106.5" y1="110.2" x2="127.5" y2="78.0" stroke="rgb(0,0,0)"  stroke-width="2.0"/>
<line x1="127.5" y1="78.0" x2="164.6" y2="87.9" stroke="rgb(0,0,0)"  stroke-width="2.0"/>
<line x1="164.6" y1="87.9" x2="166.6" y2="126.4" stroke="rgb(0,0,0)"  stroke-width="2.0"/>
<line x1="337.1" y1="136.1" x2="337.1" y2="161.9" stroke="rgb(0,0,0)"  stroke-width="2.0"/>
<line x1="329.9" y1="142.1" x2="329.9" y2="159.7" stroke="rgb(0,0,0)"  stroke-width="2.0"/>
<line x1="325.8" y1="181.1" x2="303.8" y2="193.8" stroke="rgb(0,0,0)"  stroke-width="2.0"/>
<line x1="303.8" y1="193.8" x2="281.5" y2="180.9" stroke="rgb(0,0,0)"  stroke-width="2.0"/>
<line x1="302.2" y1="184.6" x2="286.9" y2="175.7" stroke="rgb(0,0,0)"  stroke-width="2.0"/>
<line x1="270.5" y1="161.6" x2="270.5" y2="136.1" stroke="rgb(0,0,0)"  stroke-width="2.0"/>
<line x1="303.8" y1="116.9" x2="337.1" y2="136.1" stroke="rgb(0,0,0)"  stroke-width="2.0"/>
<text x="366.388236" y="124.863236" fill="rgb(12,12,255)"  stroke="rgb(12,12,255)" stroke-width="1" font-size="16" >NH</text>
<text x="390.388236" y="128.543236" fill="rgb(12,12,255)"  stroke="rgb(12,12,255)" stroke-width="1" font-size="13" >2</text>
<text x="331.079567" y="182.555544" fill="rgb(12,12,255)"  stroke="rgb(12,12,255)" stroke-width="1" font-size="16" >N</text>
<text x="264.462228" y="182.555544" fill="rgb(12,12,255)"  stroke="rgb(12,12,255)" stroke-width="1" font-size="16" >N</text>
<text x="235.879735" y="118.358213" fill="rgb(12,12,255)"  stroke="rgb(12,12,255)" stroke-width="1" font-size="16" >N</text>
<text x="289.774294" y="87.242175" fill="rgb(12,12,255)"  stroke="rgb(12,12,255)" stroke-width="1" font-size="16" >N</text>
<text x="160.989883" y="172.811345" fill="rgb(191,191,191)"  stroke="rgb(191,191,191)" stroke-width="1" font-size="16" >H</text>
<text x="124.730672" y="148.134803" fill="rgb(255,12,12)"  stroke="rgb(255,12,12)" stroke-width="1" font-size="16" >O</text>
<text x="66.256560" y="100.783400" fill="rgb(191,191,191)"  stroke="rgb(191,191,191)" stroke-width="1" font-size="16" >H</text>
<text x="22.000000" y="121.731056" fill="rgb(255,12,12)"  stroke="rgb(255,12,12)" stroke-width="1" font-size="16" >HO</text>
<text x="127.490407" y="48.000000" fill="rgb(191,191,191)"  stroke="rgb(191,191,191)" stroke-width="1" font-size="16" >H</text>
<text x="79.583468" y="61.783383" fill="rgb(255,12,12)"  stroke="rgb(255,12,12)" stroke-width="1" font-size="16" >HO</text>
<text x="196.612704" y="89.925882" fill="rgb(191,191,191)"  stroke="rgb(191,191,191)" stroke-width="1" font-size="16" >H</text>
<text x="172.408073" y="60.035652" fill="rgb(255,12,12)"  stroke="rgb(255,12,12)" stroke-width="1" font-size="16" >OH</text>
</svg>
</g>
</svg>

