<?xml version="1.0"?>
<svg version="1.1" id="topsvg"
xmlns="http://www.w3.org/2000/svg" xmlns:xlink="http://www.w3.org/1999/xlink"
xmlns:cml="http://www.xml-cml.org/schema" x="0" y="0" width="200px" height="200px" viewBox="0 0 100 100">
<title>OBDepict</title>
<rect x="0" y="0" width="100" height="100" fill="white"/>
<text text-anchor="middle" font-size="6" fill ="black" font-family="sans-serif"
x="50" y="98" ></text>
<g transform="translate(0,0)">
<svg width="100" height="100" x="0" y="0" viewBox="0 0 336.168 231.487"
font-family="sans-serif" stroke="rgb(0,0,0)" stroke-width="2"  stroke-linecap="round">
<line x1="284.9" y1="185.0" x2="261.5" y2="171.5" stroke="rgb(0,0,0)"  stroke-width="2.0"/>
<line x1="181.0" y1="125.0" x2="157.6" y2="111.5" stroke="rgb(0,0,0)"  stroke-width="2.0"/>
<polygon points="157.604012 111.486584 178.813493 94.622482 182.813493 101.550685 " stroke-width="2.000000" fill="rgb(0,0,0)"  stroke="rgb(0,0,0)" />
<polygon points="96.050342 131.486584 69.815269 138.266034 68.979041 130.309859 " stroke-width="2.000000" fill="rgb(0,0,0)"  stroke="rgb(0,0,0)" />
<line x1="96.1" y1="131.5" x2="79.8" y2="168.0" stroke="rgb(0,0,0)"  stroke-width="2.0"/>
<line x1="79.8" y1="168.0" x2="52.9" y2="170.9" stroke="rgb(0,0,0)"  stroke-width="2.0"/>
<line x1="93.1" y1="86.9" x2="94.6" y2="86.3" stroke="rgb(0,0,0)"  stroke-width="2.0"/>
<line x1="90.8" y1="83.3" x2="93.4" y2="82.1" stroke="rgb(0,0,0)"  stroke-width="2.0"/>
<line x1="88.5" y1="79.6" x2="92.3" y2="77.9" stroke="rgb(0,0,0)"  stroke-width="2.0"/>
<line x1="86.2" y1="75.9" x2="91.1" y2="73.7" stroke="rgb(0,0,0)"  stroke-width="2.0"/>
<line x1="83.8" y1="72.3" x2="90.0" y2="69.6" stroke="rgb(0,0,0)"  stroke-width="2.0"/>
<line x1="81.5" y1="68.6" x2="88.8" y2="65.4" stroke="rgb(0,0,0)"  stroke-width="2.0"/>
<line x1="96.1" y1="91.5" x2="69.2" y2="88.7" stroke="rgb(0,0,0)"  stroke-width="2.0"/>
<line x1="137.5" y1="74.9" x2="138.6" y2="76.1" stroke="rgb(0,0,0)"  stroke-width="2.0"/>
<line x1="140.3" y1="71.6" x2="142.2" y2="73.7" stroke="rgb(0,0,0)"  stroke-width="2.0"/>
<line x1="143.1" y1="68.3" x2="145.8" y2="71.3" stroke="rgb(0,0,0)"  stroke-width="2.0"/>
<line x1="145.8" y1="64.9" x2="149.5" y2="69.0" stroke="rgb(0,0,0)"  stroke-width="2.0"/>
<line x1="148.6" y1="61.6" x2="153.1" y2="66.6" stroke="rgb(0,0,0)"  stroke-width="2.0"/>
<line x1="151.3" y1="58.2" x2="156.7" y2="64.2" stroke="rgb(0,0,0)"  stroke-width="2.0"/>
<line x1="134.1" y1="79.1" x2="128.5" y2="52.7" stroke="rgb(0,0,0)"  stroke-width="2.0"/>
<line x1="223.9" y1="111.5" x2="223.9" y2="84.5" stroke="rgb(0,0,0)"  stroke-width="2.0"/>
<line x1="229.9" y1="111.5" x2="229.9" y2="84.5" stroke="rgb(0,0,0)"  stroke-width="2.0"/>
<line x1="157.6" y1="111.5" x2="141.7" y2="133.3" stroke="rgb(0,0,0)"  stroke-width="2.0"/>
<line x1="121.7" y1="139.8" x2="96.1" y2="131.5" stroke="rgb(0,0,0)"  stroke-width="2.0"/>
<line x1="96.1" y1="131.5" x2="96.1" y2="91.5" stroke="rgb(0,0,0)"  stroke-width="2.0"/>
<line x1="96.1" y1="91.5" x2="134.1" y2="79.1" stroke="rgb(0,0,0)"  stroke-width="2.0"/>
<line x1="134.1" y1="79.1" x2="157.6" y2="111.5" stroke="rgb(0,0,0)"  stroke-width="2.0"/>
<line x1="261.5" y1="171.5" x2="226.9" y2="191.5" stroke="rgb(0,0,0)"  stroke-width="2.0"/>
<line x1="226.9" y1="191.5" x2="192.2" y2="171.5" stroke="rgb(0,0,0)"  stroke-width="2.0"/>
<line x1="225.3" y1="182.3" x2="201.0" y2="168.3" stroke="rgb(0,0,0)"  stroke-width="2.0"/>
<line x1="192.2" y1="171.5" x2="192.2" y2="144.5" stroke="rgb(0,0,0)"  stroke-width="2.0"/>
<line x1="203.5" y1="125.0" x2="226.9" y2="111.5" stroke="rgb(0,0,0)"  stroke-width="2.0"/>
<line x1="226.9" y1="111.5" x2="250.3" y2="125.0" stroke="rgb(0,0,0)"  stroke-width="2.0"/>
<line x1="261.5" y1="144.7" x2="261.5" y2="171.5" stroke="rgb(0,0,0)"  stroke-width="2.0"/>
<line x1="254.3" y1="146.7" x2="254.3" y2="165.5" stroke="rgb(0,0,0)"  stroke-width="2.0"/>
<text x="292.168077" y="199.486584" fill="rgb(12,12,255)"  stroke="rgb(12,12,255)" stroke-width="1" font-size="16" >NH</text>
<text x="316.168077" y="203.166584" fill="rgb(12,12,255)"  stroke="rgb(12,12,255)" stroke-width="1" font-size="13" >2</text>
<text x="186.245028" y="139.486584" fill="rgb(12,12,255)"  stroke="rgb(12,12,255)" stroke-width="1" font-size="16" >N</text>
<text x="186.245028" y="99.486584" fill="rgb(191,191,191)"  stroke="rgb(191,191,191)" stroke-width="1" font-size="16" >H</text>
<text x="128.092602" y="151.847264" fill="rgb(255,12,12)"  stroke="rgb(255,12,12)" stroke-width="1" font-size="16" >O</text>
<text x="50.269466" y="143.667722" fill="rgb(191,191,191)"  stroke="rgb(191,191,191)" stroke-width="1" font-size="16" >H</text>
<text x="22.000000" y="180.209541" fill="rgb(255,12,12)"  stroke="rgb(255,12,12)" stroke-width="1" font-size="16" >HO</text>
<text x="73.780876" y="62.944765" fill="rgb(191,191,191)"  stroke="rgb(191,191,191)" stroke-width="1" font-size="16" >H</text>
<text x="38.269466" y="95.305445" fill="rgb(255,12,12)"  stroke="rgb(255,12,12)" stroke-width="1" font-size="16" >HO</text>
<text x="157.818395" y="60.360680" fill="rgb(191,191,191)"  stroke="rgb(191,191,191)" stroke-width="1" font-size="16" >H</text>
<text x="107.776135" y="48.000000" fill="rgb(255,12,12)"  stroke="rgb(255,12,12)" stroke-width="1" font-size="16" >HO</text>
<text x="220.886045" y="79.486584" fill="rgb(255,12,12)"  stroke="rgb(255,12,12)" stroke-width="1" font-size="16" >O</text>
<text x="255.527061" y="139.486584" fill="rgb(12,12,255)"  stroke="rgb(12,12,255)" stroke-width="1" font-size="16" >N</text>
</svg>
</g>
</svg>

