<?xml version="1.0"?>
<svg version="1.1" id="topsvg"
xmlns="http://www.w3.org/2000/svg" xmlns:xlink="http://www.w3.org/1999/xlink"
xmlns:cml="http://www.xml-cml.org/schema" x="0" y="0" width="200px" height="200px" viewBox="0 0 100 100">
<title>OBDepict</title>
<rect x="0" y="0" width="100" height="100" fill="white"/>
<text text-anchor="middle" font-size="6" fill ="black" font-family="sans-serif"
x="50" y="98" ></text>
<g transform="translate(0,0)">
<svg width="100" height="100" x="0" y="0" viewBox="0 0 501.051 434.641"
font-family="sans-serif" stroke="rgb(0,0,0)" stroke-width="2"  stroke-linecap="round">
<line x1="195.2" y1="306.5" x2="207.3" y2="313.5" stroke="rgb(0,0,0)"  stroke-width="2.0"/>
<line x1="229.8" y1="313.5" x2="253.2" y2="300.0" stroke="rgb(0,0,0)"  stroke-width="2.0"/>
<line x1="287.8" y1="320.0" x2="287.8" y2="360.0" stroke="rgb(0,0,0)"  stroke-width="2.0"/>
<line x1="287.8" y1="360.0" x2="301.3" y2="383.4" stroke="rgb(0,0,0)"  stroke-width="2.0"/>
<line x1="287.8" y1="360.0" x2="314.8" y2="360.0" stroke="rgb(0,0,0)"  stroke-width="2.0"/>
<line x1="287.8" y1="360.0" x2="264.5" y2="373.5" stroke="rgb(0,0,0)"  stroke-width="2.0"/>
<line x1="322.5" y1="260.0" x2="345.9" y2="246.5" stroke="rgb(0,0,0)"  stroke-width="2.0"/>
<line x1="424.9" y1="197.4" x2="448.3" y2="183.9" stroke="rgb(0,0,0)"  stroke-width="2.0"/>
<line x1="427.9" y1="202.6" x2="451.3" y2="189.1" stroke="rgb(0,0,0)"  stroke-width="2.0"/>
<line x1="437.7" y1="246.5" x2="449.8" y2="253.5" stroke="rgb(0,0,0)"  stroke-width="2.0"/>
<line x1="394.8" y1="260.0" x2="394.8" y2="287.0" stroke="rgb(0,0,0)"  stroke-width="2.0"/>
<line x1="388.8" y1="260.0" x2="388.8" y2="287.0" stroke="rgb(0,0,0)"  stroke-width="2.0"/>
<line x1="253.2" y1="260.0" x2="218.6" y2="240.0" stroke="rgb(0,0,0)"  stroke-width="2.0"/>
<line x1="114.6" y1="140.0" x2="91.3" y2="126.5" stroke="rgb(0,0,0)"  stroke-width="2.0"/>
<line x1="80.0" y1="107.0" x2="80.0" y2="93.0" stroke="rgb(0,0,0)"  stroke-width="2.0"/>
<line x1="93.0" y1="80.0" x2="107.0" y2="80.0" stroke="rgb(0,0,0)"  stroke-width="2.0"/>
<line x1="77.0" y1="67.0" x2="77.0" y2="53.0" stroke="rgb(0,0,0)"  stroke-width="2.0"/>
<line x1="83.0" y1="67.0" x2="83.0" y2="53.0" stroke="rgb(0,0,0)"  stroke-width="2.0"/>
<line x1="67.0" y1="83.0" x2="53.0" y2="83.0" stroke="rgb(0,0,0)"  stroke-width="2.0"/>
<line x1="67.0" y1="77.0" x2="53.0" y2="77.0" stroke="rgb(0,0,0)"  stroke-width="2.0"/>
<line x1="253.2" y1="300.0" x2="253.2" y2="260.0" stroke="rgb(0,0,0)"  stroke-width="2.0"/>
<line x1="260.4" y1="294.0" x2="260.4" y2="266.0" stroke="rgb(0,0,0)"  stroke-width="2.0"/>
<line x1="253.2" y1="260.0" x2="287.8" y2="240.0" stroke="rgb(0,0,0)"  stroke-width="2.0"/>
<line x1="287.8" y1="240.0" x2="322.5" y2="260.0" stroke="rgb(0,0,0)"  stroke-width="2.0"/>
<line x1="289.4" y1="249.2" x2="313.7" y2="263.2" stroke="rgb(0,0,0)"  stroke-width="2.0"/>
<line x1="322.5" y1="260.0" x2="322.5" y2="300.0" stroke="rgb(0,0,0)"  stroke-width="2.0"/>
<line x1="322.5" y1="300.0" x2="287.8" y2="320.0" stroke="rgb(0,0,0)"  stroke-width="2.0"/>
<line x1="313.7" y1="296.8" x2="289.4" y2="310.8" stroke="rgb(0,0,0)"  stroke-width="2.0"/>
<line x1="287.8" y1="320.0" x2="253.2" y2="300.0" stroke="rgb(0,0,0)"  stroke-width="2.0"/>
<line x1="357.1" y1="227.0" x2="357.1" y2="200.0" stroke="rgb(0,0,0)"  stroke-width="2.0"/>
<line x1="357.1" y1="200.0" x2="391.8" y2="180.0" stroke="rgb(0,0,0)"  stroke-width="2.0"/>
<line x1="365.9" y1="203.2" x2="390.2" y2="189.2" stroke="rgb(0,0,0)"  stroke-width="2.0"/>
<line x1="391.8" y1="180.0" x2="426.4" y2="200.0" stroke="rgb(0,0,0)"  stroke-width="2.0"/>
<line x1="426.4" y1="200.0" x2="426.4" y2="227.0" stroke="rgb(0,0,0)"  stroke-width="2.0"/>
<line x1="415.2" y1="246.5" x2="391.8" y2="260.0" stroke="rgb(0,0,0)"  stroke-width="2.0"/>
<line x1="391.8" y1="260.0" x2="368.4" y2="246.5" stroke="rgb(0,0,0)"  stroke-width="2.0"/>
<line x1="218.6" y1="240.0" x2="183.9" y2="260.0" stroke="rgb(0,0,0)"  stroke-width="2.0"/>
<line x1="209.8" y1="236.8" x2="185.5" y2="250.8" stroke="rgb(0,0,0)"  stroke-width="2.0"/>
<line x1="183.9" y1="260.0" x2="149.3" y2="240.0" stroke="rgb(0,0,0)"  stroke-width="2.0"/>
<line x1="149.3" y1="240.0" x2="149.3" y2="200.0" stroke="rgb(0,0,0)"  stroke-width="2.0"/>
<line x1="156.5" y1="234.0" x2="156.5" y2="206.0" stroke="rgb(0,0,0)"  stroke-width="2.0"/>
<line x1="149.3" y1="200.0" x2="183.9" y2="180.0" stroke="rgb(0,0,0)"  stroke-width="2.0"/>
<line x1="183.9" y1="180.0" x2="218.6" y2="200.0" stroke="rgb(0,0,0)"  stroke-width="2.0"/>
<line x1="185.5" y1="189.2" x2="209.8" y2="203.2" stroke="rgb(0,0,0)"  stroke-width="2.0"/>
<line x1="218.6" y1="200.0" x2="218.6" y2="240.0" stroke="rgb(0,0,0)"  stroke-width="2.0"/>
<line x1="114.6" y1="180.0" x2="114.6" y2="140.0" stroke="rgb(0,0,0)"  stroke-width="2.0"/>
<line x1="121.8" y1="174.0" x2="121.8" y2="146.0" stroke="rgb(0,0,0)"  stroke-width="2.0"/>
<line x1="114.6" y1="140.0" x2="149.3" y2="120.0" stroke="rgb(0,0,0)"  stroke-width="2.0"/>
<line x1="149.3" y1="120.0" x2="183.9" y2="140.0" stroke="rgb(0,0,0)"  stroke-width="2.0"/>
<line x1="150.9" y1="129.2" x2="175.1" y2="143.2" stroke="rgb(0,0,0)"  stroke-width="2.0"/>
<line x1="183.9" y1="140.0" x2="183.9" y2="180.0" stroke="rgb(0,0,0)"  stroke-width="2.0"/>
<line x1="149.3" y1="200.0" x2="114.6" y2="180.0" stroke="rgb(0,0,0)"  stroke-width="2.0"/>
<text x="157.923048" y="308.000000" fill="rgb(102,102,102)"  stroke="rgb(102,102,102)" stroke-width="1" font-size="16" >H</text>
<text x="169.923048" y="311.680000" fill="rgb(102,102,102)"  stroke="rgb(102,102,102)" stroke-width="1" font-size="13" >3</text>
<text x="176.423048" y="308.000000" fill="rgb(102,102,102)"  stroke="rgb(102,102,102)" stroke-width="1" font-size="16" >C</text>
<text x="212.564065" y="328.000000" fill="rgb(255,12,12)"  stroke="rgb(255,12,12)" stroke-width="1" font-size="16" >O</text>
<text x="303.846097" y="402.641016" fill="rgb(102,102,102)"  stroke="rgb(102,102,102)" stroke-width="1" font-size="16" >CH</text>
<text x="327.846097" y="406.321016" fill="rgb(102,102,102)"  stroke="rgb(102,102,102)" stroke-width="1" font-size="13" >3</text>
<text x="323.846097" y="368.000000" fill="rgb(102,102,102)"  stroke="rgb(102,102,102)" stroke-width="1" font-size="16" >CH</text>
<text x="347.846097" y="371.680000" fill="rgb(102,102,102)"  stroke="rgb(102,102,102)" stroke-width="1" font-size="13" >3</text>
<text x="227.205081" y="388.000000" fill="rgb(102,102,102)"  stroke="rgb(102,102,102)" stroke-width="1" font-size="16" >H</text>
<text x="239.205081" y="391.680000" fill="rgb(102,102,102)"  stroke="rgb(102,102,102)" stroke-width="1" font-size="13" >3</text>
<text x="245.705081" y="388.000000" fill="rgb(102,102,102)"  stroke="rgb(102,102,102)" stroke-width="1" font-size="16" >C</text>
<text x="351.128129" y="248.000000" fill="rgb(12,12,255)"  stroke="rgb(12,12,255)" stroke-width="1" font-size="16" >N</text>
<text x="455.051178" y="188.000000" fill="rgb(255,12,12)"  stroke="rgb(255,12,12)" stroke-width="1" font-size="16" >O</text>
<text x="420.410162" y="248.000000" fill="rgb(12,12,255)"  stroke="rgb(12,12,255)" stroke-width="1" font-size="16" >N</text>
<text x="455.051178" y="268.000000" fill="rgb(191,191,191)"  stroke="rgb(191,191,191)" stroke-width="1" font-size="16" >H</text>
<text x="385.769145" y="308.000000" fill="rgb(255,12,12)"  stroke="rgb(255,12,12)" stroke-width="1" font-size="16" >O</text>
<text x="62.000000" y="128.000000" fill="rgb(12,12,255)"  stroke="rgb(12,12,255)" stroke-width="1" font-size="16" >HN</text>
<text x="74.000000" y="88.000000" fill="rgb(178,178,0)"  stroke="rgb(178,178,0)" stroke-width="1" font-size="16" >S</text>
<text x="116.000000" y="88.000000" fill="rgb(102,102,102)"  stroke="rgb(102,102,102)" stroke-width="1" font-size="16" >CH</text>
<text x="140.000000" y="91.680000" fill="rgb(102,102,102)"  stroke="rgb(102,102,102)" stroke-width="1" font-size="13" >3</text>
<text x="74.000000" y="48.000000" fill="rgb(255,12,12)"  stroke="rgb(255,12,12)" stroke-width="1" font-size="16" >O</text>
<text x="34.000000" y="88.000000" fill="rgb(255,12,12)"  stroke="rgb(255,12,12)" stroke-width="1" font-size="16" >O</text>
</svg>
</g>
</svg>

