<?xml version="1.0"?>
<svg version="1.1" id="topsvg"
xmlns="http://www.w3.org/2000/svg" xmlns:xlink="http://www.w3.org/1999/xlink"
xmlns:cml="http://www.xml-cml.org/schema" x="0" y="0" width="200px" height="200px" viewBox="0 0 100 100">
<title>OBDepict</title>
<rect x="0" y="0" width="100" height="100" fill="white"/>
<text text-anchor="middle" font-size="6" fill ="black" font-family="sans-serif"
x="50" y="98" ></text>
<g transform="translate(0,0)">
<svg width="100" height="100" x="0" y="0" viewBox="0 0 322.487 280"
font-family="sans-serif" stroke="rgb(0,0,0)" stroke-width="2"  stroke-linecap="round">
<line x1="85.9" y1="226.5" x2="109.3" y2="240.0" stroke="rgb(0,0,0)"  stroke-width="2.0"/>
<line x1="109.3" y1="240.0" x2="132.7" y2="226.5" stroke="rgb(0,0,0)"  stroke-width="2.0"/>
<line x1="143.9" y1="207.0" x2="143.9" y2="180.0" stroke="rgb(0,0,0)"  stroke-width="2.0"/>
<line x1="143.9" y1="180.0" x2="167.3" y2="166.5" stroke="rgb(0,0,0)"  stroke-width="2.0"/>
<line x1="178.6" y1="120.0" x2="143.9" y2="100.0" stroke="rgb(0,0,0)"  stroke-width="2.0"/>
<line x1="143.9" y1="100.0" x2="109.3" y2="120.0" stroke="rgb(0,0,0)"  stroke-width="2.0"/>
<line x1="213.2" y1="100.0" x2="213.2" y2="60.0" stroke="rgb(0,0,0)"  stroke-width="2.0"/>
<line x1="213.2" y1="60.0" x2="236.6" y2="46.5" stroke="rgb(0,0,0)"  stroke-width="2.0"/>
<line x1="213.2" y1="60.0" x2="189.8" y2="46.5" stroke="rgb(0,0,0)"  stroke-width="2.0"/>
<line x1="246.3" y1="117.4" x2="269.7" y2="103.9" stroke="rgb(0,0,0)"  stroke-width="2.0"/>
<line x1="249.3" y1="122.6" x2="272.7" y2="109.1" stroke="rgb(0,0,0)"  stroke-width="2.0"/>
<line x1="259.1" y1="166.5" x2="271.2" y2="173.5" stroke="rgb(0,0,0)"  stroke-width="2.0"/>
<line x1="216.2" y1="180.0" x2="216.2" y2="207.0" stroke="rgb(0,0,0)"  stroke-width="2.0"/>
<line x1="210.2" y1="180.0" x2="210.2" y2="207.0" stroke="rgb(0,0,0)"  stroke-width="2.0"/>
<line x1="109.3" y1="120.0" x2="74.6" y2="100.0" stroke="rgb(0,0,0)"  stroke-width="2.0"/>
<line x1="100.5" y1="123.2" x2="76.2" y2="109.2" stroke="rgb(0,0,0)"  stroke-width="2.0"/>
<line x1="74.6" y1="100.0" x2="40.0" y2="120.0" stroke="rgb(0,0,0)"  stroke-width="2.0"/>
<line x1="40.0" y1="120.0" x2="40.0" y2="160.0" stroke="rgb(0,0,0)"  stroke-width="2.0"/>
<line x1="47.2" y1="126.0" x2="47.2" y2="154.0" stroke="rgb(0,0,0)"  stroke-width="2.0"/>
<line x1="40.0" y1="160.0" x2="74.6" y2="180.0" stroke="rgb(0,0,0)"  stroke-width="2.0"/>
<line x1="74.6" y1="180.0" x2="109.3" y2="160.0" stroke="rgb(0,0,0)"  stroke-width="2.0"/>
<line x1="76.2" y1="170.8" x2="100.5" y2="156.8" stroke="rgb(0,0,0)"  stroke-width="2.0"/>
<line x1="109.3" y1="160.0" x2="109.3" y2="120.0" stroke="rgb(0,0,0)"  stroke-width="2.0"/>
<line x1="178.6" y1="147.0" x2="178.6" y2="120.0" stroke="rgb(0,0,0)"  stroke-width="2.0"/>
<line x1="178.6" y1="120.0" x2="213.2" y2="100.0" stroke="rgb(0,0,0)"  stroke-width="2.0"/>
<line x1="187.4" y1="123.2" x2="211.6" y2="109.2" stroke="rgb(0,0,0)"  stroke-width="2.0"/>
<line x1="213.2" y1="100.0" x2="247.8" y2="120.0" stroke="rgb(0,0,0)"  stroke-width="2.0"/>
<line x1="247.8" y1="120.0" x2="247.8" y2="147.0" stroke="rgb(0,0,0)"  stroke-width="2.0"/>
<line x1="236.6" y1="166.5" x2="213.2" y2="180.0" stroke="rgb(0,0,0)"  stroke-width="2.0"/>
<line x1="213.2" y1="180.0" x2="189.8" y2="166.5" stroke="rgb(0,0,0)"  stroke-width="2.0"/>
<text x="48.641016" y="228.000000" fill="rgb(102,102,102)"  stroke="rgb(102,102,102)" stroke-width="1" font-size="16" >H</text>
<text x="60.641016" y="231.680000" fill="rgb(102,102,102)"  stroke="rgb(102,102,102)" stroke-width="1" font-size="13" >3</text>
<text x="67.141016" y="228.000000" fill="rgb(102,102,102)"  stroke="rgb(102,102,102)" stroke-width="1" font-size="16" >C</text>
<text x="137.923048" y="228.000000" fill="rgb(255,12,12)"  stroke="rgb(255,12,12)" stroke-width="1" font-size="16" >O</text>
<text x="172.564065" y="168.000000" fill="rgb(12,12,255)"  stroke="rgb(12,12,255)" stroke-width="1" font-size="16" >N</text>
<text x="243.846097" y="48.000000" fill="rgb(102,102,102)"  stroke="rgb(102,102,102)" stroke-width="1" font-size="16" >CH</text>
<text x="267.846097" y="51.680000" fill="rgb(102,102,102)"  stroke="rgb(102,102,102)" stroke-width="1" font-size="13" >3</text>
<text x="152.564065" y="48.000000" fill="rgb(102,102,102)"  stroke="rgb(102,102,102)" stroke-width="1" font-size="16" >H</text>
<text x="164.564065" y="51.680000" fill="rgb(102,102,102)"  stroke="rgb(102,102,102)" stroke-width="1" font-size="13" >3</text>
<text x="171.064065" y="48.000000" fill="rgb(102,102,102)"  stroke="rgb(102,102,102)" stroke-width="1" font-size="16" >C</text>
<text x="276.487113" y="108.000000" fill="rgb(255,12,12)"  stroke="rgb(255,12,12)" stroke-width="1" font-size="16" >O</text>
<text x="241.846097" y="168.000000" fill="rgb(12,12,255)"  stroke="rgb(12,12,255)" stroke-width="1" font-size="16" >N</text>
<text x="276.487113" y="188.000000" fill="rgb(191,191,191)"  stroke="rgb(191,191,191)" stroke-width="1" font-size="16" >H</text>
<text x="207.205081" y="228.000000" fill="rgb(255,12,12)"  stroke="rgb(255,12,12)" stroke-width="1" font-size="16" >O</text>
</svg>
</g>
</svg>

