<?xml version="1.0"?>
<svg version="1.1" id="topsvg"
xmlns="http://www.w3.org/2000/svg" xmlns:xlink="http://www.w3.org/1999/xlink"
xmlns:cml="http://www.xml-cml.org/schema" x="0" y="0" width="200px" height="200px" viewBox="0 0 100 100">
<title>OBDepict</title>
<rect x="0" y="0" width="100" height="100" fill="white"/>
<text text-anchor="middle" font-size="6" fill ="black" font-family="sans-serif"
x="50" y="98" ></text>
<g transform="translate(0,0)">
<svg width="100" height="100" x="0" y="0" viewBox="0 0 411.332 272.797"
font-family="sans-serif" stroke="rgb(0,0,0)" stroke-width="2"  stroke-linecap="round">
<line x1="106.8" y1="53.0" x2="106.8" y2="78.6" stroke="rgb(0,0,0)"  stroke-width="2.0"/>
<line x1="74.9" y1="139.0" x2="52.8" y2="151.8" stroke="rgb(0,0,0)"  stroke-width="2.0"/>
<line x1="71.9" y1="133.8" x2="49.8" y2="146.6" stroke="rgb(0,0,0)"  stroke-width="2.0"/>
<line x1="62.1" y1="91.4" x2="51.3" y2="85.1" stroke="rgb(0,0,0)"  stroke-width="2.0"/>
<line x1="181.6" y1="159.5" x2="244.3" y2="146.2" stroke="rgb(0,0,0)"  stroke-width="2.0"/>
<polygon points="244.332769 146.198993 240.096241 120.393856 248.095906 120.320584 " stroke-width="2.000000" fill="rgb(0,0,0)"  stroke="rgb(0,0,0)" />
<polygon points="304.616086 162.351859 329.458203 170.520245 325.826279 177.648297 " stroke-width="2.000000" fill="rgb(0,0,0)"  stroke="rgb(0,0,0)" />
<line x1="304.6" y1="162.4" x2="337.0" y2="141.3" stroke="rgb(0,0,0)"  stroke-width="2.0"/>
<line x1="337.0" y1="141.3" x2="359.7" y2="153.0" stroke="rgb(0,0,0)"  stroke-width="2.0"/>
<line x1="283.6" y1="199.9" x2="282.0" y2="199.7" stroke="rgb(0,0,0)"  stroke-width="2.0"/>
<line x1="283.6" y1="204.1" x2="280.7" y2="203.7" stroke="rgb(0,0,0)"  stroke-width="2.0"/>
<line x1="283.6" y1="208.3" x2="279.5" y2="207.6" stroke="rgb(0,0,0)"  stroke-width="2.0"/>
<line x1="283.5" y1="212.5" x2="278.2" y2="211.6" stroke="rgb(0,0,0)"  stroke-width="2.0"/>
<line x1="283.5" y1="216.7" x2="276.9" y2="215.6" stroke="rgb(0,0,0)"  stroke-width="2.0"/>
<line x1="283.5" y1="220.9" x2="275.6" y2="219.6" stroke="rgb(0,0,0)"  stroke-width="2.0"/>
<line x1="283.6" y1="194.7" x2="303.5" y2="210.8" stroke="rgb(0,0,0)"  stroke-width="2.0"/>
<line x1="241.4" y1="186.3" x2="241.1" y2="184.7" stroke="rgb(0,0,0)"  stroke-width="2.0"/>
<line x1="237.4" y1="187.6" x2="236.9" y2="184.8" stroke="rgb(0,0,0)"  stroke-width="2.0"/>
<line x1="233.4" y1="188.9" x2="232.8" y2="184.8" stroke="rgb(0,0,0)"  stroke-width="2.0"/>
<line x1="229.4" y1="190.2" x2="228.6" y2="184.8" stroke="rgb(0,0,0)"  stroke-width="2.0"/>
<line x1="225.4" y1="191.4" x2="224.4" y2="184.8" stroke="rgb(0,0,0)"  stroke-width="2.0"/>
<line x1="221.5" y1="192.7" x2="220.2" y2="184.8" stroke="rgb(0,0,0)"  stroke-width="2.0"/>
<line x1="246.4" y1="184.7" x2="237.2" y2="208.6" stroke="rgb(0,0,0)"  stroke-width="2.0"/>
<line x1="140.2" y1="136.4" x2="159.2" y2="153.5" stroke="rgb(0,0,0)"  stroke-width="2.0"/>
<line x1="163.6" y1="174.1" x2="153.2" y2="197.5" stroke="rgb(0,0,0)"  stroke-width="2.0"/>
<line x1="153.2" y1="197.5" x2="127.5" y2="194.8" stroke="rgb(0,0,0)"  stroke-width="2.0"/>
<line x1="148.0" y1="189.7" x2="130.4" y2="187.8" stroke="rgb(0,0,0)"  stroke-width="2.0"/>
<line x1="112.1" y1="180.7" x2="106.8" y2="155.7" stroke="rgb(0,0,0)"  stroke-width="2.0"/>
<line x1="106.8" y1="155.7" x2="140.2" y2="136.4" stroke="rgb(0,0,0)"  stroke-width="2.0"/>
<line x1="115.6" y1="158.9" x2="138.6" y2="145.7" stroke="rgb(0,0,0)"  stroke-width="2.0"/>
<line x1="244.3" y1="146.2" x2="268.2" y2="137.0" stroke="rgb(0,0,0)"  stroke-width="2.0"/>
<line x1="288.5" y1="142.5" x2="304.6" y2="162.4" stroke="rgb(0,0,0)"  stroke-width="2.0"/>
<line x1="304.6" y1="162.4" x2="283.6" y2="194.7" stroke="rgb(0,0,0)"  stroke-width="2.0"/>
<line x1="283.6" y1="194.7" x2="246.4" y2="184.7" stroke="rgb(0,0,0)"  stroke-width="2.0"/>
<line x1="246.4" y1="184.7" x2="244.3" y2="146.2" stroke="rgb(0,0,0)"  stroke-width="2.0"/>
<line x1="84.7" y1="91.4" x2="106.8" y2="78.6" stroke="rgb(0,0,0)"  stroke-width="2.0"/>
<line x1="106.8" y1="78.6" x2="129.2" y2="91.5" stroke="rgb(0,0,0)"  stroke-width="2.0"/>
<line x1="108.4" y1="87.8" x2="123.7" y2="96.7" stroke="rgb(0,0,0)"  stroke-width="2.0"/>
<line x1="140.2" y1="110.9" x2="140.2" y2="136.4" stroke="rgb(0,0,0)"  stroke-width="2.0"/>
<line x1="106.8" y1="155.7" x2="73.4" y2="136.4" stroke="rgb(0,0,0)"  stroke-width="2.0"/>
<line x1="73.4" y1="136.4" x2="73.4" y2="110.9" stroke="rgb(0,0,0)"  stroke-width="2.0"/>
<text x="102.807674" y="48.000000" fill="rgb(12,12,255)"  stroke="rgb(12,12,255)" stroke-width="1" font-size="16" >NH</text>
<text x="126.807674" y="51.680000" fill="rgb(12,12,255)"  stroke="rgb(12,12,255)" stroke-width="1" font-size="13" >2</text>
<text x="134.211511" y="105.857143" fill="rgb(12,12,255)"  stroke="rgb(12,12,255)" stroke-width="1" font-size="16" >N</text>
<text x="162.875669" y="170.237895" fill="rgb(12,12,255)"  stroke="rgb(12,12,255)" stroke-width="1" font-size="16" >N</text>
<text x="108.827125" y="201.442836" fill="rgb(12,12,255)"  stroke="rgb(12,12,255)" stroke-width="1" font-size="16" >N</text>
<text x="34.000000" y="163.714286" fill="rgb(255,12,12)"  stroke="rgb(255,12,12)" stroke-width="1" font-size="16" >O</text>
<text x="67.403837" y="105.857143" fill="rgb(12,12,255)"  stroke="rgb(12,12,255)" stroke-width="1" font-size="16" >N</text>
<text x="34.000000" y="86.571429" fill="rgb(191,191,191)"  stroke="rgb(191,191,191)" stroke-width="1" font-size="16" >H</text>
<text x="237.979492" y="115.629182" fill="rgb(191,191,191)"  stroke="rgb(191,191,191)" stroke-width="1" font-size="16" >H</text>
<text x="274.342300" y="140.376229" fill="rgb(255,12,12)"  stroke="rgb(255,12,12)" stroke-width="1" font-size="16" >O</text>
<text x="332.983481" y="187.862921" fill="rgb(191,191,191)"  stroke="rgb(191,191,191)" stroke-width="1" font-size="16" >H</text>
<text x="365.332203" y="166.855416" fill="rgb(255,12,12)"  stroke="rgb(255,12,12)" stroke-width="1" font-size="16" >OH</text>
<text x="271.574680" y="240.797131" fill="rgb(191,191,191)"  stroke="rgb(191,191,191)" stroke-width="1" font-size="16" >H</text>
<text x="307.584211" y="226.974368" fill="rgb(255,12,12)"  stroke="rgb(255,12,12)" stroke-width="1" font-size="16" >OH</text>
<text x="202.254892" y="198.751462" fill="rgb(191,191,191)"  stroke="rgb(191,191,191)" stroke-width="1" font-size="16" >H</text>
<text x="214.528678" y="228.727091" fill="rgb(255,12,12)"  stroke="rgb(255,12,12)" stroke-width="1" font-size="16" >HO</text>
</svg>
</g>
</svg>

