<?xml version="1.0"?>
<svg version="1.1" id="topsvg"
xmlns="http://www.w3.org/2000/svg" xmlns:xlink="http://www.w3.org/1999/xlink"
xmlns:cml="http://www.xml-cml.org/schema" x="0" y="0" width="200px" height="200px" viewBox="0 0 100 100">
<title>OBDepict</title>
<rect x="0" y="0" width="100" height="100" fill="white"/>
<text text-anchor="middle" font-size="6" fill ="black" font-family="sans-serif"
x="50" y="98" ></text>
<g transform="translate(0,0)">
<svg width="100" height="100" x="0" y="0" viewBox="0 0 314.759 300"
font-family="sans-serif" stroke="rgb(0,0,0)" stroke-width="2"  stroke-linecap="round">
<line x1="182.1" y1="213.5" x2="205.5" y2="200.0" stroke="rgb(0,0,0)"  stroke-width="2.0"/>
<line x1="205.5" y1="200.0" x2="205.5" y2="173.0" stroke="rgb(0,0,0)"  stroke-width="2.0"/>
<line x1="194.2" y1="153.5" x2="170.8" y2="140.0" stroke="rgb(0,0,0)"  stroke-width="2.0"/>
<line x1="59.5" y1="164.7" x2="55.2" y2="178.0" stroke="rgb(0,0,0)"  stroke-width="2.0"/>
<line x1="133.2" y1="80.0" x2="133.2" y2="53.0" stroke="rgb(0,0,0)"  stroke-width="2.0"/>
<line x1="139.2" y1="80.0" x2="139.2" y2="53.0" stroke="rgb(0,0,0)"  stroke-width="2.0"/>
<line x1="182.1" y1="93.5" x2="194.2" y2="86.5" stroke="rgb(0,0,0)"  stroke-width="2.0"/>
<line x1="205.5" y1="200.0" x2="240.1" y2="220.0" stroke="rgb(0,0,0)"  stroke-width="2.0"/>
<line x1="240.1" y1="220.0" x2="240.1" y2="247.0" stroke="rgb(0,0,0)"  stroke-width="2.0"/>
<line x1="238.6" y1="217.4" x2="262.0" y2="203.9" stroke="rgb(0,0,0)"  stroke-width="2.0"/>
<line x1="241.6" y1="222.6" x2="265.0" y2="209.1" stroke="rgb(0,0,0)"  stroke-width="2.0"/>
<line x1="101.6" y1="140.0" x2="75.9" y2="148.3" stroke="rgb(0,0,0)"  stroke-width="2.0"/>
<line x1="55.9" y1="141.8" x2="40.0" y2="120.0" stroke="rgb(0,0,0)"  stroke-width="2.0"/>
<line x1="40.0" y1="120.0" x2="55.8" y2="98.3" stroke="rgb(0,0,0)"  stroke-width="2.0"/>
<line x1="49.4" y1="119.4" x2="60.4" y2="104.2" stroke="rgb(0,0,0)"  stroke-width="2.0"/>
<line x1="75.9" y1="91.7" x2="101.6" y2="100.0" stroke="rgb(0,0,0)"  stroke-width="2.0"/>
<line x1="101.6" y1="100.0" x2="101.6" y2="140.0" stroke="rgb(0,0,0)"  stroke-width="2.0"/>
<line x1="94.4" y1="106.0" x2="94.4" y2="134.0" stroke="rgb(0,0,0)"  stroke-width="2.0"/>
<line x1="170.8" y1="113.0" x2="170.8" y2="140.0" stroke="rgb(0,0,0)"  stroke-width="2.0"/>
<line x1="170.8" y1="140.0" x2="147.6" y2="153.4" stroke="rgb(0,0,0)"  stroke-width="2.0"/>
<line x1="162.0" y1="136.8" x2="145.8" y2="146.2" stroke="rgb(0,0,0)"  stroke-width="2.0"/>
<line x1="124.9" y1="153.5" x2="101.6" y2="140.0" stroke="rgb(0,0,0)"  stroke-width="2.0"/>
<line x1="101.6" y1="100.0" x2="136.2" y2="80.0" stroke="rgb(0,0,0)"  stroke-width="2.0"/>
<line x1="136.2" y1="80.0" x2="159.6" y2="93.5" stroke="rgb(0,0,0)"  stroke-width="2.0"/>
<text x="144.835703" y="228.000000" fill="rgb(102,102,102)"  stroke="rgb(102,102,102)" stroke-width="1" font-size="16" >H</text>
<text x="156.835703" y="231.680000" fill="rgb(102,102,102)"  stroke="rgb(102,102,102)" stroke-width="1" font-size="13" >3</text>
<text x="163.335703" y="228.000000" fill="rgb(102,102,102)"  stroke="rgb(102,102,102)" stroke-width="1" font-size="16" >C</text>
<text x="199.476719" y="168.000000" fill="rgb(12,12,255)"  stroke="rgb(12,12,255)" stroke-width="1" font-size="16" >NH</text>
<text x="130.194687" y="168.000000" fill="rgb(12,12,255)"  stroke="rgb(12,12,255)" stroke-width="1" font-size="16" >N</text>
<text x="57.511410" y="160.360680" fill="rgb(12,12,255)"  stroke="rgb(12,12,255)" stroke-width="1" font-size="16" >N</text>
<text x="45.150730" y="198.402940" fill="rgb(191,191,191)"  stroke="rgb(191,191,191)" stroke-width="1" font-size="16" >H</text>
<text x="57.511410" y="95.639320" fill="rgb(12,12,255)"  stroke="rgb(12,12,255)" stroke-width="1" font-size="16" >N</text>
<text x="130.194687" y="48.000000" fill="rgb(255,12,12)"  stroke="rgb(255,12,12)" stroke-width="1" font-size="16" >O</text>
<text x="164.835703" y="108.000000" fill="rgb(12,12,255)"  stroke="rgb(12,12,255)" stroke-width="1" font-size="16" >N</text>
<text x="199.476719" y="88.000000" fill="rgb(191,191,191)"  stroke="rgb(191,191,191)" stroke-width="1" font-size="16" >H</text>
<text x="234.117735" y="268.000000" fill="rgb(255,12,12)"  stroke="rgb(255,12,12)" stroke-width="1" font-size="16" >OH</text>
<text x="268.758752" y="208.000000" fill="rgb(255,12,12)"  stroke="rgb(255,12,12)" stroke-width="1" font-size="16" >O</text>
</svg>
</g>
</svg>

