<?xml version="1.0"?>
<svg version="1.1" id="topsvg"
xmlns="http://www.w3.org/2000/svg" xmlns:xlink="http://www.w3.org/1999/xlink"
xmlns:cml="http://www.xml-cml.org/schema" x="0" y="0" width="200px" height="200px" viewBox="0 0 100 100">
<title>OBDepict</title>
<rect x="0" y="0" width="100" height="100" fill="white"/>
<text text-anchor="middle" font-size="6" fill ="black" font-family="sans-serif"
x="50" y="98" ></text>
<g transform="translate(0,0)">
<svg width="100" height="100" x="0" y="0" viewBox="0 0 322.487 288.852"
font-family="sans-serif" stroke="rgb(0,0,0)" stroke-width="2"  stroke-linecap="round">
<line x1="178.6" y1="168.9" x2="155.2" y2="182.4" stroke="rgb(0,0,0)"  stroke-width="2.0"/>
<line x1="132.7" y1="182.4" x2="109.3" y2="168.9" stroke="rgb(0,0,0)"  stroke-width="2.0"/>
<line x1="74.3" y1="60.1" x2="64.9" y2="49.7" stroke="rgb(0,0,0)"  stroke-width="2.0"/>
<line x1="178.6" y1="168.9" x2="213.2" y2="188.9" stroke="rgb(0,0,0)"  stroke-width="2.0"/>
<line x1="122.7" y1="65.5" x2="133.6" y2="90.0" stroke="rgb(0,0,0)"  stroke-width="2.0"/>
<line x1="118.6" y1="74.0" x2="126.2" y2="91.1" stroke="rgb(0,0,0)"  stroke-width="2.0"/>
<line x1="129.3" y1="110.8" x2="109.3" y2="128.9" stroke="rgb(0,0,0)"  stroke-width="2.0"/>
<line x1="109.3" y1="128.9" x2="74.6" y2="108.9" stroke="rgb(0,0,0)"  stroke-width="2.0"/>
<line x1="107.7" y1="119.6" x2="83.4" y2="105.6" stroke="rgb(0,0,0)"  stroke-width="2.0"/>
<line x1="74.6" y1="108.9" x2="80.3" y2="82.4" stroke="rgb(0,0,0)"  stroke-width="2.0"/>
<line x1="95.9" y1="68.4" x2="122.7" y2="65.5" stroke="rgb(0,0,0)"  stroke-width="2.0"/>
<line x1="109.3" y1="168.9" x2="86.1" y2="182.3" stroke="rgb(0,0,0)"  stroke-width="2.0"/>
<line x1="100.5" y1="165.6" x2="84.2" y2="175.0" stroke="rgb(0,0,0)"  stroke-width="2.0"/>
<line x1="63.4" y1="182.4" x2="40.0" y2="168.9" stroke="rgb(0,0,0)"  stroke-width="2.0"/>
<line x1="40.0" y1="168.9" x2="40.0" y2="142.1" stroke="rgb(0,0,0)"  stroke-width="2.0"/>
<line x1="47.2" y1="162.9" x2="47.2" y2="144.1" stroke="rgb(0,0,0)"  stroke-width="2.0"/>
<line x1="51.3" y1="122.4" x2="74.6" y2="108.9" stroke="rgb(0,0,0)"  stroke-width="2.0"/>
<line x1="109.3" y1="128.9" x2="109.3" y2="168.9" stroke="rgb(0,0,0)"  stroke-width="2.0"/>
<line x1="213.2" y1="188.9" x2="247.8" y2="168.9" stroke="rgb(0,0,0)"  stroke-width="2.0"/>
<line x1="222.0" y1="192.1" x2="246.2" y2="178.1" stroke="rgb(0,0,0)"  stroke-width="2.0"/>
<line x1="247.8" y1="168.9" x2="282.5" y2="188.9" stroke="rgb(0,0,0)"  stroke-width="2.0"/>
<line x1="282.5" y1="188.9" x2="282.5" y2="228.9" stroke="rgb(0,0,0)"  stroke-width="2.0"/>
<line x1="275.3" y1="194.9" x2="275.3" y2="222.9" stroke="rgb(0,0,0)"  stroke-width="2.0"/>
<line x1="282.5" y1="228.9" x2="247.8" y2="248.9" stroke="rgb(0,0,0)"  stroke-width="2.0"/>
<line x1="247.8" y1="248.9" x2="213.2" y2="228.9" stroke="rgb(0,0,0)"  stroke-width="2.0"/>
<line x1="246.2" y1="239.6" x2="222.0" y2="225.6" stroke="rgb(0,0,0)"  stroke-width="2.0"/>
<line x1="213.2" y1="228.9" x2="213.2" y2="188.9" stroke="rgb(0,0,0)"  stroke-width="2.0"/>
<text x="137.923048" y="196.851697" fill="rgb(12,12,255)"  stroke="rgb(12,12,255)" stroke-width="1" font-size="16" >N</text>
<text x="137.923048" y="212.851697" fill="rgb(12,12,255)"  stroke="rgb(12,12,255)" stroke-width="1" font-size="16" >H</text>
<text x="68.641016" y="196.851697" fill="rgb(12,12,255)"  stroke="rgb(12,12,255)" stroke-width="1" font-size="16" >N</text>
<text x="34.000000" y="136.851697" fill="rgb(12,12,255)"  stroke="rgb(12,12,255)" stroke-width="1" font-size="16" >N</text>
<text x="76.957484" y="77.725793" fill="rgb(12,12,255)"  stroke="rgb(12,12,255)" stroke-width="1" font-size="16" >N</text>
<text x="50.192260" y="48.000000" fill="rgb(191,191,191)"  stroke="rgb(191,191,191)" stroke-width="1" font-size="16" >H</text>
<text x="133.007825" y="110.086473" fill="rgb(12,12,255)"  stroke="rgb(12,12,255)" stroke-width="1" font-size="16" >N</text>
</svg>
</g>
</svg>

