<?xml version="1.0"?>
<svg version="1.1" id="topsvg"
xmlns="http://www.w3.org/2000/svg" xmlns:xlink="http://www.w3.org/1999/xlink"
xmlns:cml="http://www.xml-cml.org/schema" x="0" y="0" width="200px" height="200px" viewBox="0 0 100 100">
<title>OBDepict</title>
<rect x="0" y="0" width="100" height="100" fill="white"/>
<text text-anchor="middle" font-size="6" fill ="black" font-family="sans-serif"
x="50" y="98" ></text>
<g transform="translate(0,0)">
<svg width="100" height="100" x="0" y="0" viewBox="0 0 455.402 274.801"
font-family="sans-serif" stroke="rgb(0,0,0)" stroke-width="2"  stroke-linecap="round">
<line x1="292.7" y1="207.9" x2="318.6" y2="209.2" stroke="rgb(0,0,0)"  stroke-width="2.0"/>
<line x1="318.6" y1="209.2" x2="339.8" y2="176.6" stroke="rgb(0,0,0)"  stroke-width="2.0"/>
<line x1="342.9" y1="180.9" x2="341.5" y2="181.6" stroke="rgb(0,0,0)"  stroke-width="2.0"/>
<line x1="345.4" y1="184.3" x2="342.8" y2="185.6" stroke="rgb(0,0,0)"  stroke-width="2.0"/>
<line x1="347.8" y1="187.7" x2="344.1" y2="189.6" stroke="rgb(0,0,0)"  stroke-width="2.0"/>
<line x1="350.3" y1="191.2" x2="345.4" y2="193.6" stroke="rgb(0,0,0)"  stroke-width="2.0"/>
<line x1="352.8" y1="194.6" x2="346.8" y2="197.6" stroke="rgb(0,0,0)"  stroke-width="2.0"/>
<line x1="355.2" y1="198.0" x2="348.1" y2="201.6" stroke="rgb(0,0,0)"  stroke-width="2.0"/>
<polygon points="309.219475 116.534436 314.790284 64.527422 322.656324 65.985306 " stroke-width="2.000000" fill="rgb(0,0,0)"  stroke="rgb(0,0,0)" />
<polygon points="343.896486 98.865617 354.743634 74.818159 361.452999 79.175271 " stroke-width="2.000000" fill="rgb(0,0,0)"  stroke="rgb(0,0,0)" />
<line x1="343.9" y1="98.9" x2="332.1" y2="75.8" stroke="rgb(0,0,0)"  stroke-width="2.0"/>
<line x1="381.8" y1="119.5" x2="381.7" y2="121.1" stroke="rgb(0,0,0)"  stroke-width="2.0"/>
<line x1="386.0" y1="119.1" x2="385.8" y2="122.0" stroke="rgb(0,0,0)"  stroke-width="2.0"/>
<line x1="390.2" y1="118.7" x2="390.0" y2="122.8" stroke="rgb(0,0,0)"  stroke-width="2.0"/>
<line x1="394.4" y1="118.3" x2="394.1" y2="123.7" stroke="rgb(0,0,0)"  stroke-width="2.0"/>
<line x1="398.6" y1="117.9" x2="398.2" y2="124.6" stroke="rgb(0,0,0)"  stroke-width="2.0"/>
<line x1="402.8" y1="117.4" x2="402.4" y2="125.4" stroke="rgb(0,0,0)"  stroke-width="2.0"/>
<line x1="376.5" y1="120.1" x2="390.7" y2="98.3" stroke="rgb(0,0,0)"  stroke-width="2.0"/>
<polygon points="374.499779 158.927961 389.901914 180.345596 382.773862 183.977520 " stroke-width="2.000000" fill="rgb(0,0,0)"  stroke="rgb(0,0,0)" />
<line x1="374.5" y1="158.9" x2="400.4" y2="160.3" stroke="rgb(0,0,0)"  stroke-width="2.0"/>
<line x1="309.2" y1="116.5" x2="283.9" y2="121.9" stroke="rgb(0,0,0)"  stroke-width="2.0"/>
<line x1="174.8" y1="98.6" x2="152.4" y2="111.5" stroke="rgb(0,0,0)"  stroke-width="2.0"/>
<line x1="141.1" y1="131.0" x2="141.1" y2="157.0" stroke="rgb(0,0,0)"  stroke-width="2.0"/>
<line x1="141.1" y1="157.0" x2="107.4" y2="176.4" stroke="rgb(0,0,0)"  stroke-width="2.0"/>
<line x1="265.9" y1="136.5" x2="255.3" y2="160.2" stroke="rgb(0,0,0)"  stroke-width="2.0"/>
<line x1="255.3" y1="160.2" x2="229.4" y2="157.5" stroke="rgb(0,0,0)"  stroke-width="2.0"/>
<line x1="250.1" y1="152.4" x2="232.2" y2="150.5" stroke="rgb(0,0,0)"  stroke-width="2.0"/>
<line x1="213.9" y1="143.4" x2="208.5" y2="118.0" stroke="rgb(0,0,0)"  stroke-width="2.0"/>
<line x1="208.5" y1="118.0" x2="242.2" y2="98.6" stroke="rgb(0,0,0)"  stroke-width="2.0"/>
<line x1="242.2" y1="98.6" x2="261.5" y2="115.9" stroke="rgb(0,0,0)"  stroke-width="2.0"/>
<line x1="339.8" y1="176.6" x2="318.1" y2="162.5" stroke="rgb(0,0,0)"  stroke-width="2.0"/>
<line x1="307.9" y1="142.4" x2="309.2" y2="116.5" stroke="rgb(0,0,0)"  stroke-width="2.0"/>
<line x1="309.2" y1="116.5" x2="343.9" y2="98.9" stroke="rgb(0,0,0)"  stroke-width="2.0"/>
<line x1="343.9" y1="98.9" x2="376.5" y2="120.1" stroke="rgb(0,0,0)"  stroke-width="2.0"/>
<line x1="376.5" y1="120.1" x2="374.5" y2="158.9" stroke="rgb(0,0,0)"  stroke-width="2.0"/>
<line x1="374.5" y1="158.9" x2="339.8" y2="176.6" stroke="rgb(0,0,0)"  stroke-width="2.0"/>
<line x1="174.8" y1="98.6" x2="174.8" y2="72.7" stroke="rgb(0,0,0)"  stroke-width="2.0"/>
<line x1="185.9" y1="53.2" x2="208.5" y2="40.2" stroke="rgb(0,0,0)"  stroke-width="2.0"/>
<line x1="191.4" y1="58.4" x2="206.9" y2="49.4" stroke="rgb(0,0,0)"  stroke-width="2.0"/>
<line x1="208.5" y1="40.2" x2="231.0" y2="53.2" stroke="rgb(0,0,0)"  stroke-width="2.0"/>
<line x1="242.2" y1="72.5" x2="242.2" y2="98.6" stroke="rgb(0,0,0)"  stroke-width="2.0"/>
<line x1="235.0" y1="74.6" x2="235.0" y2="92.6" stroke="rgb(0,0,0)"  stroke-width="2.0"/>
<line x1="208.5" y1="118.0" x2="174.8" y2="98.6" stroke="rgb(0,0,0)"  stroke-width="2.0"/>
<line x1="206.9" y1="108.8" x2="183.6" y2="95.3" stroke="rgb(0,0,0)"  stroke-width="2.0"/>
<line x1="107.4" y1="176.4" x2="107.4" y2="215.3" stroke="rgb(0,0,0)"  stroke-width="2.0"/>
<line x1="100.2" y1="182.4" x2="100.2" y2="209.3" stroke="rgb(0,0,0)"  stroke-width="2.0"/>
<line x1="107.4" y1="215.3" x2="73.7" y2="234.8" stroke="rgb(0,0,0)"  stroke-width="2.0"/>
<line x1="73.7" y1="234.8" x2="40.0" y2="215.3" stroke="rgb(0,0,0)"  stroke-width="2.0"/>
<line x1="72.1" y1="225.6" x2="48.8" y2="212.1" stroke="rgb(0,0,0)"  stroke-width="2.0"/>
<line x1="40.0" y1="215.3" x2="40.0" y2="176.4" stroke="rgb(0,0,0)"  stroke-width="2.0"/>
<line x1="40.0" y1="176.4" x2="73.7" y2="157.0" stroke="rgb(0,0,0)"  stroke-width="2.0"/>
<line x1="48.8" y1="179.7" x2="72.1" y2="166.2" stroke="rgb(0,0,0)"  stroke-width="2.0"/>
<line x1="73.7" y1="157.0" x2="107.4" y2="176.4" stroke="rgb(0,0,0)"  stroke-width="2.0"/>
<text x="261.760424" y="215.200073" fill="rgb(255,12,12)"  stroke="rgb(255,12,12)" stroke-width="1" font-size="16" >HO</text>
<text x="351.491588" y="219.273791" fill="rgb(191,191,191)"  stroke="rgb(191,191,191)" stroke-width="1" font-size="16" >H</text>
<text x="301.182616" y="163.400018" fill="rgb(255,12,12)"  stroke="rgb(255,12,12)" stroke-width="1" font-size="16" >O</text>
<text x="317.404294" y="48.000000" fill="rgb(191,191,191)"  stroke="rgb(191,191,191)" stroke-width="1" font-size="16" >H</text>
<text x="359.093248" y="74.225465" fill="rgb(191,191,191)"  stroke="rgb(191,191,191)" stroke-width="1" font-size="16" >H</text>
<text x="308.227666" y="72.188606" fill="rgb(255,12,12)"  stroke="rgb(255,12,12)" stroke-width="1" font-size="16" >HO</text>
<text x="409.402220" y="130.099238" fill="rgb(191,191,191)"  stroke="rgb(191,191,191)" stroke-width="1" font-size="16" >H</text>
<text x="391.733400" y="95.422227" fill="rgb(255,12,12)"  stroke="rgb(255,12,12)" stroke-width="1" font-size="16" >OH</text>
<text x="386.168598" y="201.604972" fill="rgb(191,191,191)"  stroke="rgb(191,191,191)" stroke-width="1" font-size="16" >H</text>
<text x="407.365361" y="168.964820" fill="rgb(255,12,12)"  stroke="rgb(255,12,12)" stroke-width="1" font-size="16" >OH</text>
<text x="265.151028" y="132.626134" fill="rgb(12,12,255)"  stroke="rgb(12,12,255)" stroke-width="1" font-size="16" >N</text>
<text x="210.615561" y="164.112201" fill="rgb(12,12,255)"  stroke="rgb(12,12,255)" stroke-width="1" font-size="16" >N</text>
<text x="123.114317" y="126.043754" fill="rgb(12,12,255)"  stroke="rgb(12,12,255)" stroke-width="1" font-size="16" >HN</text>
<text x="168.819090" y="67.665376" fill="rgb(12,12,255)"  stroke="rgb(12,12,255)" stroke-width="1" font-size="16" >N</text>
<text x="236.228635" y="67.665376" fill="rgb(12,12,255)"  stroke="rgb(12,12,255)" stroke-width="1" font-size="16" >N</text>
</svg>
</g>
</svg>

