<?xml version="1.0"?>
<svg version="1.1" id="topsvg"
xmlns="http://www.w3.org/2000/svg" xmlns:xlink="http://www.w3.org/1999/xlink"
xmlns:cml="http://www.xml-cml.org/schema" x="0" y="0" width="200px" height="200px" viewBox="0 0 100 100">
<title>OBDepict</title>
<rect x="0" y="0" width="100" height="100" fill="white"/>
<text text-anchor="middle" font-size="6" fill ="black" font-family="sans-serif"
x="50" y="98" ></text>
<g transform="translate(0,0)">
<svg width="100" height="100" x="0" y="0" viewBox="0 0 444.736 272.797"
font-family="sans-serif" stroke="rgb(0,0,0)" stroke-width="2"  stroke-linecap="round">
<line x1="393.5" y1="129.9" x2="382.6" y2="123.6" stroke="rgb(0,0,0)"  stroke-width="2.0"/>
<line x1="360.1" y1="123.6" x2="337.9" y2="136.4" stroke="rgb(0,0,0)"  stroke-width="2.0"/>
<line x1="304.5" y1="194.2" x2="304.5" y2="219.8" stroke="rgb(0,0,0)"  stroke-width="2.0"/>
<line x1="229.7" y1="113.3" x2="167.0" y2="126.6" stroke="rgb(0,0,0)"  stroke-width="2.0"/>
<polygon points="166.999434 126.598138 171.235962 152.403275 163.236297 152.476548 " stroke-width="2.000000" fill="rgb(0,0,0)"  stroke="rgb(0,0,0)" />
<polygon points="106.716116 110.445272 81.874000 102.276887 85.505924 95.148834 " stroke-width="2.000000" fill="rgb(0,0,0)"  stroke="rgb(0,0,0)" />
<line x1="106.7" y1="110.4" x2="74.4" y2="131.5" stroke="rgb(0,0,0)"  stroke-width="2.0"/>
<line x1="74.4" y1="131.5" x2="51.6" y2="119.8" stroke="rgb(0,0,0)"  stroke-width="2.0"/>
<line x1="127.7" y1="72.9" x2="129.3" y2="73.1" stroke="rgb(0,0,0)"  stroke-width="2.0"/>
<line x1="127.8" y1="68.7" x2="130.6" y2="69.1" stroke="rgb(0,0,0)"  stroke-width="2.0"/>
<line x1="127.8" y1="64.5" x2="131.9" y2="65.1" stroke="rgb(0,0,0)"  stroke-width="2.0"/>
<line x1="127.8" y1="60.3" x2="133.2" y2="61.2" stroke="rgb(0,0,0)"  stroke-width="2.0"/>
<line x1="127.8" y1="56.1" x2="134.4" y2="57.2" stroke="rgb(0,0,0)"  stroke-width="2.0"/>
<line x1="127.8" y1="51.9" x2="135.7" y2="53.2" stroke="rgb(0,0,0)"  stroke-width="2.0"/>
<line x1="127.7" y1="78.1" x2="107.9" y2="62.0" stroke="rgb(0,0,0)"  stroke-width="2.0"/>
<polygon points="164.980761 88.079571 189.879712 80.086104 191.131188 87.987610 " stroke-width="2.000000" fill="rgb(0,0,0)"  stroke="rgb(0,0,0)" />
<line x1="165.0" y1="88.1" x2="174.1" y2="64.2" stroke="rgb(0,0,0)"  stroke-width="2.0"/>
<line x1="258.1" y1="75.3" x2="283.8" y2="78.0" stroke="rgb(0,0,0)"  stroke-width="2.0"/>
<line x1="263.4" y1="83.1" x2="281.0" y2="85.0" stroke="rgb(0,0,0)"  stroke-width="2.0"/>
<line x1="299.2" y1="92.1" x2="304.5" y2="117.1" stroke="rgb(0,0,0)"  stroke-width="2.0"/>
<line x1="304.5" y1="117.1" x2="271.1" y2="136.4" stroke="rgb(0,0,0)"  stroke-width="2.0"/>
<line x1="295.7" y1="113.8" x2="272.7" y2="127.1" stroke="rgb(0,0,0)"  stroke-width="2.0"/>
<line x1="271.1" y1="136.4" x2="252.1" y2="119.3" stroke="rgb(0,0,0)"  stroke-width="2.0"/>
<line x1="247.7" y1="98.7" x2="258.1" y2="75.3" stroke="rgb(0,0,0)"  stroke-width="2.0"/>
<line x1="167.0" y1="126.6" x2="143.1" y2="135.8" stroke="rgb(0,0,0)"  stroke-width="2.0"/>
<line x1="122.8" y1="130.3" x2="106.7" y2="110.4" stroke="rgb(0,0,0)"  stroke-width="2.0"/>
<line x1="106.7" y1="110.4" x2="127.7" y2="78.1" stroke="rgb(0,0,0)"  stroke-width="2.0"/>
<line x1="127.7" y1="78.1" x2="165.0" y2="88.1" stroke="rgb(0,0,0)"  stroke-width="2.0"/>
<line x1="165.0" y1="88.1" x2="167.0" y2="126.6" stroke="rgb(0,0,0)"  stroke-width="2.0"/>
<line x1="337.9" y1="136.4" x2="337.9" y2="162.2" stroke="rgb(0,0,0)"  stroke-width="2.0"/>
<line x1="330.7" y1="142.4" x2="330.7" y2="160.1" stroke="rgb(0,0,0)"  stroke-width="2.0"/>
<line x1="326.7" y1="181.4" x2="304.5" y2="194.2" stroke="rgb(0,0,0)"  stroke-width="2.0"/>
<line x1="304.5" y1="194.2" x2="282.1" y2="181.3" stroke="rgb(0,0,0)"  stroke-width="2.0"/>
<line x1="302.9" y1="185.0" x2="287.6" y2="176.1" stroke="rgb(0,0,0)"  stroke-width="2.0"/>
<line x1="271.1" y1="161.9" x2="271.1" y2="136.4" stroke="rgb(0,0,0)"  stroke-width="2.0"/>
<line x1="304.5" y1="117.1" x2="337.9" y2="136.4" stroke="rgb(0,0,0)"  stroke-width="2.0"/>
<text x="400.736040" y="144.368560" fill="rgb(102,102,102)"  stroke="rgb(102,102,102)" stroke-width="1" font-size="16" >CH</text>
<text x="424.736040" y="148.048560" fill="rgb(102,102,102)"  stroke="rgb(102,102,102)" stroke-width="1" font-size="13" >3</text>
<text x="365.332203" y="125.082846" fill="rgb(255,12,12)"  stroke="rgb(255,12,12)" stroke-width="1" font-size="16" >O</text>
<text x="331.928366" y="182.939988" fill="rgb(12,12,255)"  stroke="rgb(12,12,255)" stroke-width="1" font-size="16" >N</text>
<text x="300.524529" y="240.797131" fill="rgb(12,12,255)"  stroke="rgb(12,12,255)" stroke-width="1" font-size="16" >NH</text>
<text x="324.524529" y="244.477131" fill="rgb(12,12,255)"  stroke="rgb(12,12,255)" stroke-width="1" font-size="13" >2</text>
<text x="265.120692" y="182.939988" fill="rgb(12,12,255)"  stroke="rgb(12,12,255)" stroke-width="1" font-size="16" >N</text>
<text x="236.456534" y="118.559236" fill="rgb(12,12,255)"  stroke="rgb(12,12,255)" stroke-width="1" font-size="16" >N</text>
<text x="290.505078" y="87.354295" fill="rgb(12,12,255)"  stroke="rgb(12,12,255)" stroke-width="1" font-size="16" >N</text>
<text x="161.352711" y="173.167949" fill="rgb(191,191,191)"  stroke="rgb(191,191,191)" stroke-width="1" font-size="16" >H</text>
<text x="124.989903" y="148.420902" fill="rgb(255,12,12)"  stroke="rgb(255,12,12)" stroke-width="1" font-size="16" >O</text>
<text x="66.348722" y="100.934210" fill="rgb(191,191,191)"  stroke="rgb(191,191,191)" stroke-width="1" font-size="16" >H</text>
<text x="22.000000" y="121.941716" fill="rgb(255,12,12)"  stroke="rgb(255,12,12)" stroke-width="1" font-size="16" >HO</text>
<text x="127.757523" y="48.000000" fill="rgb(191,191,191)"  stroke="rgb(191,191,191)" stroke-width="1" font-size="16" >H</text>
<text x="79.747992" y="61.822764" fill="rgb(255,12,12)"  stroke="rgb(255,12,12)" stroke-width="1" font-size="16" >HO</text>
<text x="197.077311" y="90.045670" fill="rgb(191,191,191)"  stroke="rgb(191,191,191)" stroke-width="1" font-size="16" >H</text>
<text x="172.803525" y="60.070040" fill="rgb(255,12,12)"  stroke="rgb(255,12,12)" stroke-width="1" font-size="16" >OH</text>
</svg>
</g>
</svg>

