<?xml version="1.0"?>
<svg version="1.1" id="topsvg"
xmlns="http://www.w3.org/2000/svg" xmlns:xlink="http://www.w3.org/1999/xlink"
xmlns:cml="http://www.xml-cml.org/schema" x="0" y="0" width="200px" height="200px" viewBox="0 0 100 100">
<title>OBDepict</title>
<rect x="0" y="0" width="100" height="100" fill="white"/>
<text text-anchor="middle" font-size="6" fill ="black" font-family="sans-serif"
x="50" y="98" ></text>
<g transform="translate(0,0)">
<svg width="100" height="100" x="0" y="0" viewBox="0 0 341.447 217.98"
font-family="sans-serif" stroke="rgb(0,0,0)" stroke-width="2"  stroke-linecap="round">
<line x1="50.9" y1="132.5" x2="73.5" y2="117.8" stroke="rgb(0,0,0)"  stroke-width="2.0"/>
<line x1="186.4" y1="136.0" x2="212.5" y2="129.0" stroke="rgb(0,0,0)"  stroke-width="2.0"/>
<polygon points="212.456778 128.989795 209.384131 155.911883 201.656724 153.841331 " stroke-width="2.000000" fill="rgb(0,0,0)"  stroke="rgb(0,0,0)" />
<polygon points="252.456778 88.989795 277.308314 78.189741 279.378866 85.917148 " stroke-width="2.000000" fill="rgb(0,0,0)"  stroke="rgb(0,0,0)" />
<line x1="252.5" y1="89.0" x2="262.8" y2="50.4" stroke="rgb(0,0,0)"  stroke-width="2.0"/>
<line x1="262.8" y1="50.4" x2="288.9" y2="43.4" stroke="rgb(0,0,0)"  stroke-width="2.0"/>
<line x1="254.6" y1="134.0" x2="253.1" y2="134.4" stroke="rgb(0,0,0)"  stroke-width="2.0"/>
<line x1="256.3" y1="137.9" x2="253.6" y2="138.7" stroke="rgb(0,0,0)"  stroke-width="2.0"/>
<line x1="258.1" y1="141.9" x2="254.1" y2="143.0" stroke="rgb(0,0,0)"  stroke-width="2.0"/>
<line x1="259.8" y1="145.9" x2="254.5" y2="147.3" stroke="rgb(0,0,0)"  stroke-width="2.0"/>
<line x1="261.5" y1="149.9" x2="255.0" y2="151.6" stroke="rgb(0,0,0)"  stroke-width="2.0"/>
<line x1="263.3" y1="153.8" x2="255.5" y2="155.9" stroke="rgb(0,0,0)"  stroke-width="2.0"/>
<line x1="252.5" y1="129.0" x2="291.1" y2="139.3" stroke="rgb(0,0,0)"  stroke-width="2.0"/>
<line x1="291.1" y1="139.3" x2="298.1" y2="165.4" stroke="rgb(0,0,0)"  stroke-width="2.0"/>
<line x1="212.5" y1="129.0" x2="212.5" y2="102.0" stroke="rgb(0,0,0)"  stroke-width="2.0"/>
<line x1="225.5" y1="89.0" x2="252.5" y2="89.0" stroke="rgb(0,0,0)"  stroke-width="2.0"/>
<line x1="252.5" y1="89.0" x2="252.5" y2="129.0" stroke="rgb(0,0,0)"  stroke-width="2.0"/>
<line x1="252.5" y1="129.0" x2="212.5" y2="129.0" stroke="rgb(0,0,0)"  stroke-width="2.0"/>
<line x1="159.5" y1="176.7" x2="132.7" y2="175.3" stroke="rgb(0,0,0)"  stroke-width="2.0"/>
<line x1="153.9" y1="169.2" x2="135.1" y2="168.2" stroke="rgb(0,0,0)"  stroke-width="2.0"/>
<line x1="116.2" y1="162.0" x2="109.2" y2="136.0" stroke="rgb(0,0,0)"  stroke-width="2.0"/>
<line x1="109.2" y1="136.0" x2="142.7" y2="114.2" stroke="rgb(0,0,0)"  stroke-width="2.0"/>
<line x1="118.1" y1="138.7" x2="141.6" y2="123.5" stroke="rgb(0,0,0)"  stroke-width="2.0"/>
<line x1="142.7" y1="114.2" x2="163.7" y2="131.2" stroke="rgb(0,0,0)"  stroke-width="2.0"/>
<line x1="169.2" y1="151.5" x2="159.5" y2="176.7" stroke="rgb(0,0,0)"  stroke-width="2.0"/>
<line x1="73.5" y1="117.8" x2="72.1" y2="91.0" stroke="rgb(0,0,0)"  stroke-width="2.0"/>
<line x1="80.4" y1="111.4" x2="79.4" y2="92.7" stroke="rgb(0,0,0)"  stroke-width="2.0"/>
<line x1="82.4" y1="70.8" x2="105.0" y2="56.1" stroke="rgb(0,0,0)"  stroke-width="2.0"/>
<line x1="105.0" y1="56.1" x2="128.9" y2="68.2" stroke="rgb(0,0,0)"  stroke-width="2.0"/>
<line x1="107.1" y1="65.2" x2="123.8" y2="73.7" stroke="rgb(0,0,0)"  stroke-width="2.0"/>
<line x1="141.3" y1="87.2" x2="142.7" y2="114.2" stroke="rgb(0,0,0)"  stroke-width="2.0"/>
<line x1="109.2" y1="136.0" x2="73.5" y2="117.8" stroke="rgb(0,0,0)"  stroke-width="2.0"/>
<text x="14.000000" y="147.581244" fill="rgb(12,12,255)"  stroke="rgb(12,12,255)" stroke-width="1" font-size="16" >H</text>
<text x="26.000000" y="151.261244" fill="rgb(12,12,255)"  stroke="rgb(12,12,255)" stroke-width="1" font-size="13" >2</text>
<text x="32.500000" y="147.581244" fill="rgb(12,12,255)"  stroke="rgb(12,12,255)" stroke-width="1" font-size="16" >N</text>
<text x="65.453384" y="85.850501" fill="rgb(12,12,255)"  stroke="rgb(12,12,255)" stroke-width="1" font-size="16" >N</text>
<text x="134.640468" y="82.224560" fill="rgb(12,12,255)"  stroke="rgb(12,12,255)" stroke-width="1" font-size="16" >N</text>
<text x="167.819745" y="147.342557" fill="rgb(12,12,255)"  stroke="rgb(12,12,255)" stroke-width="1" font-size="16" >N</text>
<text x="113.539845" y="182.592335" fill="rgb(12,12,255)"  stroke="rgb(12,12,255)" stroke-width="1" font-size="16" >N</text>
<text x="196.104016" y="175.626828" fill="rgb(191,191,191)"  stroke="rgb(191,191,191)" stroke-width="1" font-size="16" >H</text>
<text x="206.456778" y="96.989795" fill="rgb(255,12,12)"  stroke="rgb(255,12,12)" stroke-width="1" font-size="16" >O</text>
<text x="285.093811" y="86.637033" fill="rgb(191,191,191)"  stroke="rgb(191,191,191)" stroke-width="1" font-size="16" >H</text>
<text x="295.446573" y="48.000000" fill="rgb(255,12,12)"  stroke="rgb(255,12,12)" stroke-width="1" font-size="16" >OH</text>
<text x="256.809540" y="175.626828" fill="rgb(191,191,191)"  stroke="rgb(191,191,191)" stroke-width="1" font-size="16" >H</text>
<text x="295.446573" y="185.979590" fill="rgb(255,12,12)"  stroke="rgb(255,12,12)" stroke-width="1" font-size="16" >OH</text>
</svg>
</g>
</svg>

