<?xml version="1.0"?>
<svg version="1.1" id="topsvg"
xmlns="http://www.w3.org/2000/svg" xmlns:xlink="http://www.w3.org/1999/xlink"
xmlns:cml="http://www.xml-cml.org/schema" x="0" y="0" width="200px" height="200px" viewBox="0 0 100 100">
<title>OBDepict</title>
<rect x="0" y="0" width="100" height="100" fill="white"/>
<text text-anchor="middle" font-size="6" fill ="black" font-family="sans-serif"
x="50" y="98" ></text>
<g transform="translate(0,0)">
<svg width="100" height="100" x="0" y="0" viewBox="0 0 343.41 256.542"
font-family="sans-serif" stroke="rgb(0,0,0)" stroke-width="2"  stroke-linecap="round">
<line x1="234.1" y1="203.5" x2="234.1" y2="176.5" stroke="rgb(0,0,0)"  stroke-width="2.0"/>
<line x1="188.2" y1="110.0" x2="164.8" y2="96.5" stroke="rgb(0,0,0)"  stroke-width="2.0"/>
<line x1="169.1" y1="93.2" x2="169.9" y2="94.6" stroke="rgb(0,0,0)"  stroke-width="2.0"/>
<line x1="172.5" y1="90.5" x2="173.9" y2="93.0" stroke="rgb(0,0,0)"  stroke-width="2.0"/>
<line x1="175.9" y1="87.8" x2="178.0" y2="91.4" stroke="rgb(0,0,0)"  stroke-width="2.0"/>
<line x1="179.3" y1="85.1" x2="182.0" y2="89.8" stroke="rgb(0,0,0)"  stroke-width="2.0"/>
<line x1="182.7" y1="82.4" x2="186.0" y2="88.2" stroke="rgb(0,0,0)"  stroke-width="2.0"/>
<line x1="186.1" y1="79.7" x2="190.1" y2="86.6" stroke="rgb(0,0,0)"  stroke-width="2.0"/>
<polygon points="103.292286 116.541818 77.057213 123.321269 76.220985 115.365094 " stroke-width="2.000000" fill="rgb(0,0,0)"  stroke="rgb(0,0,0)" />
<line x1="103.3" y1="116.5" x2="92.3" y2="141.2" stroke="rgb(0,0,0)"  stroke-width="2.0"/>
<line x1="100.4" y1="72.0" x2="101.8" y2="71.3" stroke="rgb(0,0,0)"  stroke-width="2.0"/>
<line x1="98.1" y1="68.3" x2="100.7" y2="67.1" stroke="rgb(0,0,0)"  stroke-width="2.0"/>
<line x1="95.7" y1="64.7" x2="99.5" y2="63.0" stroke="rgb(0,0,0)"  stroke-width="2.0"/>
<line x1="93.4" y1="61.0" x2="98.4" y2="58.8" stroke="rgb(0,0,0)"  stroke-width="2.0"/>
<line x1="91.1" y1="57.3" x2="97.2" y2="54.6" stroke="rgb(0,0,0)"  stroke-width="2.0"/>
<line x1="88.7" y1="53.7" x2="96.0" y2="50.4" stroke="rgb(0,0,0)"  stroke-width="2.0"/>
<line x1="103.3" y1="76.5" x2="63.5" y2="72.4" stroke="rgb(0,0,0)"  stroke-width="2.0"/>
<line x1="63.5" y1="72.4" x2="47.6" y2="94.2" stroke="rgb(0,0,0)"  stroke-width="2.0"/>
<line x1="231.1" y1="96.5" x2="231.1" y2="69.5" stroke="rgb(0,0,0)"  stroke-width="2.0"/>
<line x1="237.1" y1="96.5" x2="237.1" y2="69.5" stroke="rgb(0,0,0)"  stroke-width="2.0"/>
<line x1="280.0" y1="110.0" x2="292.2" y2="103.0" stroke="rgb(0,0,0)"  stroke-width="2.0"/>
<line x1="270.3" y1="153.9" x2="293.7" y2="167.4" stroke="rgb(0,0,0)"  stroke-width="2.0"/>
<line x1="267.3" y1="159.1" x2="290.7" y2="172.6" stroke="rgb(0,0,0)"  stroke-width="2.0"/>
<line x1="164.8" y1="96.5" x2="141.3" y2="128.9" stroke="rgb(0,0,0)"  stroke-width="2.0"/>
<line x1="141.3" y1="128.9" x2="103.3" y2="116.5" stroke="rgb(0,0,0)"  stroke-width="2.0"/>
<line x1="103.3" y1="116.5" x2="103.3" y2="76.5" stroke="rgb(0,0,0)"  stroke-width="2.0"/>
<line x1="103.3" y1="76.5" x2="129.0" y2="68.2" stroke="rgb(0,0,0)"  stroke-width="2.0"/>
<line x1="149.0" y1="74.7" x2="164.8" y2="96.5" stroke="rgb(0,0,0)"  stroke-width="2.0"/>
<line x1="234.1" y1="176.5" x2="199.5" y2="156.5" stroke="rgb(0,0,0)"  stroke-width="2.0"/>
<line x1="232.5" y1="167.3" x2="208.3" y2="153.3" stroke="rgb(0,0,0)"  stroke-width="2.0"/>
<line x1="199.5" y1="156.5" x2="199.5" y2="129.5" stroke="rgb(0,0,0)"  stroke-width="2.0"/>
<line x1="210.7" y1="110.0" x2="234.1" y2="96.5" stroke="rgb(0,0,0)"  stroke-width="2.0"/>
<line x1="234.1" y1="96.5" x2="257.5" y2="110.0" stroke="rgb(0,0,0)"  stroke-width="2.0"/>
<line x1="268.8" y1="129.5" x2="268.8" y2="156.5" stroke="rgb(0,0,0)"  stroke-width="2.0"/>
<line x1="268.8" y1="156.5" x2="234.1" y2="176.5" stroke="rgb(0,0,0)"  stroke-width="2.0"/>
<text x="230.127989" y="224.541818" fill="rgb(102,102,102)"  stroke="rgb(102,102,102)" stroke-width="1" font-size="16" >CH</text>
<text x="254.127989" y="228.221818" fill="rgb(102,102,102)"  stroke="rgb(102,102,102)" stroke-width="1" font-size="13" >3</text>
<text x="193.486973" y="124.541818" fill="rgb(12,12,255)"  stroke="rgb(12,12,255)" stroke-width="1" font-size="16" >N</text>
<text x="193.486973" y="84.541818" fill="rgb(191,191,191)"  stroke="rgb(191,191,191)" stroke-width="1" font-size="16" >H</text>
<text x="57.511410" y="128.722957" fill="rgb(191,191,191)"  stroke="rgb(191,191,191)" stroke-width="1" font-size="16" >H</text>
<text x="69.022820" y="161.083637" fill="rgb(255,12,12)"  stroke="rgb(255,12,12)" stroke-width="1" font-size="16" >HO</text>
<text x="81.022820" y="48.000000" fill="rgb(191,191,191)"  stroke="rgb(191,191,191)" stroke-width="1" font-size="16" >H</text>
<text x="22.000000" y="112.721360" fill="rgb(255,12,12)"  stroke="rgb(255,12,12)" stroke-width="1" font-size="16" >HO</text>
<text x="135.334547" y="72.181139" fill="rgb(255,12,12)"  stroke="rgb(255,12,12)" stroke-width="1" font-size="16" >O</text>
<text x="228.127989" y="64.541818" fill="rgb(255,12,12)"  stroke="rgb(255,12,12)" stroke-width="1" font-size="16" >O</text>
<text x="262.769005" y="124.541818" fill="rgb(12,12,255)"  stroke="rgb(12,12,255)" stroke-width="1" font-size="16" >N</text>
<text x="297.410021" y="104.541818" fill="rgb(191,191,191)"  stroke="rgb(191,191,191)" stroke-width="1" font-size="16" >H</text>
<text x="297.410021" y="184.541818" fill="rgb(255,12,12)"  stroke="rgb(255,12,12)" stroke-width="1" font-size="16" >O</text>
</svg>
</g>
</svg>

