<?xml version="1.0"?>
<svg version="1.1" id="topsvg"
xmlns="http://www.w3.org/2000/svg" xmlns:xlink="http://www.w3.org/1999/xlink"
xmlns:cml="http://www.xml-cml.org/schema" x="0" y="0" width="200px" height="200px" viewBox="0 0 100 100">
<title>OBDepict</title>
<rect x="0" y="0" width="100" height="100" fill="white"/>
<text text-anchor="middle" font-size="6" fill ="black" font-family="sans-serif"
x="50" y="98" ></text>
<g transform="translate(0,0)">
<svg width="100" height="100" x="0" y="0" viewBox="0 0 218.564 228.284"
font-family="sans-serif" stroke="rgb(0,0,0)" stroke-width="2"  stroke-linecap="round">
<line x1="90.2" y1="49.2" x2="109.3" y2="68.3" stroke="rgb(0,0,0)"  stroke-width="2.0"/>
<line x1="109.3" y1="68.3" x2="134.2" y2="58.0" stroke="rgb(0,0,0)"  stroke-width="2.0"/>
<line x1="143.9" y1="88.3" x2="167.3" y2="74.8" stroke="rgb(0,0,0)"  stroke-width="2.0"/>
<line x1="112.3" y1="148.3" x2="112.3" y2="175.3" stroke="rgb(0,0,0)"  stroke-width="2.0"/>
<line x1="106.3" y1="148.3" x2="106.3" y2="175.3" stroke="rgb(0,0,0)"  stroke-width="2.0"/>
<line x1="73.1" y1="90.9" x2="49.8" y2="77.4" stroke="rgb(0,0,0)"  stroke-width="2.0"/>
<line x1="76.1" y1="85.7" x2="52.8" y2="72.2" stroke="rgb(0,0,0)"  stroke-width="2.0"/>
<line x1="109.3" y1="68.3" x2="143.9" y2="88.3" stroke="rgb(0,0,0)"  stroke-width="2.0"/>
<line x1="143.9" y1="88.3" x2="143.9" y2="115.3" stroke="rgb(0,0,0)"  stroke-width="2.0"/>
<line x1="132.7" y1="134.8" x2="109.3" y2="148.3" stroke="rgb(0,0,0)"  stroke-width="2.0"/>
<line x1="109.3" y1="148.3" x2="85.9" y2="134.8" stroke="rgb(0,0,0)"  stroke-width="2.0"/>
<line x1="74.6" y1="115.3" x2="74.6" y2="88.3" stroke="rgb(0,0,0)"  stroke-width="2.0"/>
<line x1="74.6" y1="88.3" x2="109.3" y2="68.3" stroke="rgb(0,0,0)"  stroke-width="2.0"/>
<text x="54.997761" y="48.000000" fill="rgb(102,102,102)"  stroke="rgb(102,102,102)" stroke-width="1" font-size="16" >H</text>
<text x="66.997761" y="51.680000" fill="rgb(102,102,102)"  stroke="rgb(102,102,102)" stroke-width="1" font-size="13" >3</text>
<text x="73.497761" y="48.000000" fill="rgb(102,102,102)"  stroke="rgb(102,102,102)" stroke-width="1" font-size="16" >C</text>
<text x="140.237214" y="60.976934" fill="rgb(255,12,12)"  stroke="rgb(255,12,12)" stroke-width="1" font-size="16" >OH</text>
<text x="172.564065" y="76.284271" fill="rgb(255,12,12)"  stroke="rgb(255,12,12)" stroke-width="1" font-size="16" >OH</text>
<text x="137.923048" y="136.284271" fill="rgb(12,12,255)"  stroke="rgb(12,12,255)" stroke-width="1" font-size="16" >NH</text>
<text x="103.282032" y="196.284271" fill="rgb(255,12,12)"  stroke="rgb(255,12,12)" stroke-width="1" font-size="16" >O</text>
<text x="56.641016" y="136.284271" fill="rgb(12,12,255)"  stroke="rgb(12,12,255)" stroke-width="1" font-size="16" >HN</text>
<text x="34.000000" y="76.284271" fill="rgb(255,12,12)"  stroke="rgb(255,12,12)" stroke-width="1" font-size="16" >O</text>
</svg>
</g>
</svg>

