<?xml version="1.0"?>
<svg version="1.1" id="topsvg"
xmlns="http://www.w3.org/2000/svg" xmlns:xlink="http://www.w3.org/1999/xlink"
xmlns:cml="http://www.xml-cml.org/schema" x="0" y="0" width="200px" height="200px" viewBox="0 0 100 100">
<title>OBDepict</title>
<rect x="0" y="0" width="100" height="100" fill="white"/>
<text text-anchor="middle" font-size="6" fill ="black" font-family="sans-serif"
x="50" y="98" ></text>
<g transform="translate(0,0)">
<svg width="100" height="100" x="0" y="0" viewBox="0 0 344.798 231.487"
font-family="sans-serif" stroke="rgb(0,0,0)" stroke-width="2"  stroke-linecap="round">
<line x1="296.6" y1="146.2" x2="279.6" y2="125.2" stroke="rgb(0,0,0)"  stroke-width="2.0"/>
<line x1="279.6" y1="125.2" x2="240.1" y2="131.5" stroke="rgb(0,0,0)"  stroke-width="2.0"/>
<line x1="240.7" y1="136.9" x2="239.1" y2="136.8" stroke="rgb(0,0,0)"  stroke-width="2.0"/>
<line x1="241.1" y1="141.2" x2="238.3" y2="141.1" stroke="rgb(0,0,0)"  stroke-width="2.0"/>
<line x1="241.6" y1="145.5" x2="237.4" y2="145.3" stroke="rgb(0,0,0)"  stroke-width="2.0"/>
<line x1="242.0" y1="149.8" x2="236.6" y2="149.6" stroke="rgb(0,0,0)"  stroke-width="2.0"/>
<line x1="242.5" y1="154.1" x2="235.8" y2="153.8" stroke="rgb(0,0,0)"  stroke-width="2.0"/>
<line x1="243.0" y1="158.4" x2="235.0" y2="158.1" stroke="rgb(0,0,0)"  stroke-width="2.0"/>
<line x1="173.5" y1="109.5" x2="174.3" y2="108.1" stroke="rgb(0,0,0)"  stroke-width="2.0"/>
<line x1="169.5" y1="107.9" x2="170.9" y2="105.4" stroke="rgb(0,0,0)"  stroke-width="2.0"/>
<line x1="165.5" y1="106.3" x2="167.5" y2="102.7" stroke="rgb(0,0,0)"  stroke-width="2.0"/>
<line x1="161.4" y1="104.7" x2="164.1" y2="100.0" stroke="rgb(0,0,0)"  stroke-width="2.0"/>
<line x1="157.4" y1="103.1" x2="160.7" y2="97.3" stroke="rgb(0,0,0)"  stroke-width="2.0"/>
<line x1="153.4" y1="101.6" x2="157.4" y2="94.6" stroke="rgb(0,0,0)"  stroke-width="2.0"/>
<polygon points="202.075475 79.125904 203.734918 52.079902 211.560098 53.743195 " stroke-width="2.000000" fill="rgb(0,0,0)"  stroke="rgb(0,0,0)" />
<line x1="202.1" y1="79.1" x2="182.0" y2="61.1" stroke="rgb(0,0,0)"  stroke-width="2.0"/>
<polygon points="240.117735 91.486584 266.352808 84.707133 267.189036 92.663309 " stroke-width="2.000000" fill="rgb(0,0,0)"  stroke="rgb(0,0,0)" />
<line x1="240.1" y1="91.5" x2="251.1" y2="66.8" stroke="rgb(0,0,0)"  stroke-width="2.0"/>
<line x1="178.6" y1="111.5" x2="155.2" y2="125.0" stroke="rgb(0,0,0)"  stroke-width="2.0"/>
<line x1="76.1" y1="174.1" x2="52.8" y2="187.6" stroke="rgb(0,0,0)"  stroke-width="2.0"/>
<line x1="73.1" y1="168.9" x2="49.8" y2="182.4" stroke="rgb(0,0,0)"  stroke-width="2.0"/>
<line x1="63.4" y1="125.0" x2="51.3" y2="118.0" stroke="rgb(0,0,0)"  stroke-width="2.0"/>
<line x1="106.3" y1="111.5" x2="106.3" y2="84.5" stroke="rgb(0,0,0)"  stroke-width="2.0"/>
<line x1="112.3" y1="111.5" x2="112.3" y2="84.5" stroke="rgb(0,0,0)"  stroke-width="2.0"/>
<line x1="240.1" y1="131.5" x2="214.4" y2="139.8" stroke="rgb(0,0,0)"  stroke-width="2.0"/>
<line x1="194.4" y1="133.3" x2="178.6" y2="111.5" stroke="rgb(0,0,0)"  stroke-width="2.0"/>
<line x1="178.6" y1="111.5" x2="202.1" y2="79.1" stroke="rgb(0,0,0)"  stroke-width="2.0"/>
<line x1="202.1" y1="79.1" x2="240.1" y2="91.5" stroke="rgb(0,0,0)"  stroke-width="2.0"/>
<line x1="240.1" y1="91.5" x2="240.1" y2="131.5" stroke="rgb(0,0,0)"  stroke-width="2.0"/>
<line x1="143.9" y1="144.5" x2="143.9" y2="171.5" stroke="rgb(0,0,0)"  stroke-width="2.0"/>
<line x1="143.9" y1="171.5" x2="109.3" y2="191.5" stroke="rgb(0,0,0)"  stroke-width="2.0"/>
<line x1="135.1" y1="168.3" x2="110.9" y2="182.3" stroke="rgb(0,0,0)"  stroke-width="2.0"/>
<line x1="109.3" y1="191.5" x2="74.6" y2="171.5" stroke="rgb(0,0,0)"  stroke-width="2.0"/>
<line x1="74.6" y1="171.5" x2="74.6" y2="144.5" stroke="rgb(0,0,0)"  stroke-width="2.0"/>
<line x1="85.9" y1="125.0" x2="109.3" y2="111.5" stroke="rgb(0,0,0)"  stroke-width="2.0"/>
<line x1="109.3" y1="111.5" x2="132.7" y2="125.0" stroke="rgb(0,0,0)"  stroke-width="2.0"/>
<text x="298.798085" y="164.315044" fill="rgb(255,12,12)"  stroke="rgb(255,12,12)" stroke-width="1" font-size="16" >OH</text>
<text x="232.390245" y="179.449264" fill="rgb(191,191,191)"  stroke="rgb(191,191,191)" stroke-width="1" font-size="16" >H</text>
<text x="196.075475" y="151.847264" fill="rgb(255,12,12)"  stroke="rgb(255,12,12)" stroke-width="1" font-size="16" >O</text>
<text x="137.923048" y="99.486584" fill="rgb(191,191,191)"  stroke="rgb(191,191,191)" stroke-width="1" font-size="16" >H</text>
<text x="204.391942" y="48.000000" fill="rgb(191,191,191)"  stroke="rgb(191,191,191)" stroke-width="1" font-size="16" >H</text>
<text x="154.349682" y="60.360680" fill="rgb(255,12,12)"  stroke="rgb(255,12,12)" stroke-width="1" font-size="16" >HO</text>
<text x="273.898611" y="95.305445" fill="rgb(191,191,191)"  stroke="rgb(191,191,191)" stroke-width="1" font-size="16" >H</text>
<text x="250.387201" y="62.944765" fill="rgb(255,12,12)"  stroke="rgb(255,12,12)" stroke-width="1" font-size="16" >OH</text>
<text x="137.923048" y="139.486584" fill="rgb(12,12,255)"  stroke="rgb(12,12,255)" stroke-width="1" font-size="16" >N</text>
<text x="34.000000" y="199.486584" fill="rgb(255,12,12)"  stroke="rgb(255,12,12)" stroke-width="1" font-size="16" >O</text>
<text x="68.641016" y="139.486584" fill="rgb(12,12,255)"  stroke="rgb(12,12,255)" stroke-width="1" font-size="16" >N</text>
<text x="34.000000" y="119.486584" fill="rgb(191,191,191)"  stroke="rgb(191,191,191)" stroke-width="1" font-size="16" >H</text>
<text x="103.282032" y="79.486584" fill="rgb(255,12,12)"  stroke="rgb(255,12,12)" stroke-width="1" font-size="16" >O</text>
</svg>
</g>
</svg>

