<?xml version="1.0"?>
<svg version="1.1" id="topsvg"
xmlns="http://www.w3.org/2000/svg" xmlns:xlink="http://www.w3.org/1999/xlink"
xmlns:cml="http://www.xml-cml.org/schema" x="0" y="0" width="200px" height="200px" viewBox="0 0 100 100">
<title>OBDepict</title>
<rect x="0" y="0" width="100" height="100" fill="white"/>
<text text-anchor="middle" font-size="6" fill ="black" font-family="sans-serif"
x="50" y="98" ></text>
<g transform="translate(0,0)">
<svg width="100" height="100" x="0" y="0" viewBox="0 0 469.081 369.479"
font-family="sans-serif" stroke="rgb(0,0,0)" stroke-width="2"  stroke-linecap="round">
<line x1="48.7" y1="250.0" x2="66.8" y2="270.0" stroke="rgb(0,0,0)"  stroke-width="2.0"/>
<line x1="66.8" y1="270.0" x2="58.4" y2="295.7" stroke="rgb(0,0,0)"  stroke-width="2.0"/>
<line x1="66.8" y1="270.0" x2="105.9" y2="261.7" stroke="rgb(0,0,0)"  stroke-width="2.0"/>
<polygon points="105.891128 261.711072 123.130887 240.805792 128.483932 246.750951 " stroke-width="2.000000" fill="rgb(0,0,0)"  stroke="rgb(0,0,0)" />
<line x1="105.9" y1="261.7" x2="100.3" y2="235.3" stroke="rgb(0,0,0)"  stroke-width="2.0"/>
<line x1="105.9" y1="261.7" x2="132.7" y2="291.4" stroke="rgb(0,0,0)"  stroke-width="2.0"/>
<line x1="135.5" y1="292.4" x2="127.2" y2="318.0" stroke="rgb(0,0,0)"  stroke-width="2.0"/>
<line x1="129.8" y1="290.5" x2="121.5" y2="316.2" stroke="rgb(0,0,0)"  stroke-width="2.0"/>
<line x1="132.7" y1="291.4" x2="159.1" y2="285.8" stroke="rgb(0,0,0)"  stroke-width="2.0"/>
<line x1="175.8" y1="270.8" x2="184.1" y2="245.1" stroke="rgb(0,0,0)"  stroke-width="2.0"/>
<line x1="184.1" y1="245.1" x2="223.3" y2="236.8" stroke="rgb(0,0,0)"  stroke-width="2.0"/>
<line x1="223.3" y1="236.8" x2="231.6" y2="211.1" stroke="rgb(0,0,0)"  stroke-width="2.0"/>
<line x1="248.3" y1="196.0" x2="274.8" y2="190.4" stroke="rgb(0,0,0)"  stroke-width="2.0"/>
<line x1="274.8" y1="190.4" x2="283.1" y2="164.7" stroke="rgb(0,0,0)"  stroke-width="2.0"/>
<line x1="394.4" y1="140.0" x2="417.8" y2="153.5" stroke="rgb(0,0,0)"  stroke-width="2.0"/>
<line x1="405.7" y1="93.5" x2="417.8" y2="86.5" stroke="rgb(0,0,0)"  stroke-width="2.0"/>
<line x1="356.8" y1="80.0" x2="356.8" y2="53.0" stroke="rgb(0,0,0)"  stroke-width="2.0"/>
<line x1="362.8" y1="80.0" x2="362.8" y2="53.0" stroke="rgb(0,0,0)"  stroke-width="2.0"/>
<line x1="279.5" y1="141.8" x2="263.6" y2="120.0" stroke="rgb(0,0,0)"  stroke-width="2.0"/>
<line x1="263.6" y1="120.0" x2="279.4" y2="98.3" stroke="rgb(0,0,0)"  stroke-width="2.0"/>
<line x1="273.0" y1="119.4" x2="284.0" y2="104.2" stroke="rgb(0,0,0)"  stroke-width="2.0"/>
<line x1="299.5" y1="91.7" x2="325.2" y2="100.0" stroke="rgb(0,0,0)"  stroke-width="2.0"/>
<line x1="325.2" y1="100.0" x2="325.2" y2="140.0" stroke="rgb(0,0,0)"  stroke-width="2.0"/>
<line x1="318.0" y1="106.0" x2="318.0" y2="134.0" stroke="rgb(0,0,0)"  stroke-width="2.0"/>
<line x1="325.2" y1="140.0" x2="299.5" y2="148.3" stroke="rgb(0,0,0)"  stroke-width="2.0"/>
<line x1="394.4" y1="113.0" x2="394.4" y2="140.0" stroke="rgb(0,0,0)"  stroke-width="2.0"/>
<line x1="394.4" y1="140.0" x2="371.2" y2="153.4" stroke="rgb(0,0,0)"  stroke-width="2.0"/>
<line x1="385.6" y1="136.8" x2="369.4" y2="146.2" stroke="rgb(0,0,0)"  stroke-width="2.0"/>
<line x1="348.5" y1="153.5" x2="325.2" y2="140.0" stroke="rgb(0,0,0)"  stroke-width="2.0"/>
<line x1="325.2" y1="100.0" x2="359.8" y2="80.0" stroke="rgb(0,0,0)"  stroke-width="2.0"/>
<line x1="359.8" y1="80.0" x2="383.2" y2="93.5" stroke="rgb(0,0,0)"  stroke-width="2.0"/>
<text x="14.000000" y="248.301746" fill="rgb(102,102,102)"  stroke="rgb(102,102,102)" stroke-width="1" font-size="16" >H</text>
<text x="26.000000" y="251.981746" fill="rgb(102,102,102)"  stroke="rgb(102,102,102)" stroke-width="1" font-size="13" >3</text>
<text x="32.500000" y="248.301746" fill="rgb(102,102,102)"  stroke="rgb(102,102,102)" stroke-width="1" font-size="16" >C</text>
<text x="28.404544" y="316.069800" fill="rgb(102,102,102)"  stroke="rgb(102,102,102)" stroke-width="1" font-size="16" >H</text>
<text x="40.404544" y="319.749800" fill="rgb(102,102,102)"  stroke="rgb(102,102,102)" stroke-width="1" font-size="13" >3</text>
<text x="46.904544" y="316.069800" fill="rgb(102,102,102)"  stroke="rgb(102,102,102)" stroke-width="1" font-size="16" >C</text>
<text x="129.616921" y="242.945847" fill="rgb(191,191,191)"  stroke="rgb(191,191,191)" stroke-width="1" font-size="16" >H</text>
<text x="71.574661" y="230.585168" fill="rgb(12,12,255)"  stroke="rgb(12,12,255)" stroke-width="1" font-size="16" >H</text>
<text x="83.574661" y="234.265168" fill="rgb(12,12,255)"  stroke="rgb(12,12,255)" stroke-width="1" font-size="13" >2</text>
<text x="90.074661" y="230.585168" fill="rgb(12,12,255)"  stroke="rgb(12,12,255)" stroke-width="1" font-size="16" >N</text>
<text x="114.295673" y="337.479125" fill="rgb(255,12,12)"  stroke="rgb(255,12,12)" stroke-width="1" font-size="16" >O</text>
<text x="165.782257" y="291.120397" fill="rgb(255,12,12)"  stroke="rgb(255,12,12)" stroke-width="1" font-size="16" >O</text>
<text x="229.629520" y="206.719408" fill="rgb(255,12,12)"  stroke="rgb(255,12,12)" stroke-width="1" font-size="16" >O</text>
<text x="281.116104" y="160.360680" fill="rgb(12,12,255)"  stroke="rgb(12,12,255)" stroke-width="1" font-size="16" >N</text>
<text x="281.116104" y="95.639320" fill="rgb(12,12,255)"  stroke="rgb(12,12,255)" stroke-width="1" font-size="16" >N</text>
<text x="353.799381" y="168.000000" fill="rgb(12,12,255)"  stroke="rgb(12,12,255)" stroke-width="1" font-size="16" >N</text>
<text x="425.081413" y="168.000000" fill="rgb(12,12,255)"  stroke="rgb(12,12,255)" stroke-width="1" font-size="16" >NH</text>
<text x="449.081413" y="171.680000" fill="rgb(12,12,255)"  stroke="rgb(12,12,255)" stroke-width="1" font-size="13" >2</text>
<text x="388.440397" y="108.000000" fill="rgb(12,12,255)"  stroke="rgb(12,12,255)" stroke-width="1" font-size="16" >N</text>
<text x="423.081413" y="88.000000" fill="rgb(191,191,191)"  stroke="rgb(191,191,191)" stroke-width="1" font-size="16" >H</text>
<text x="353.799381" y="48.000000" fill="rgb(255,12,12)"  stroke="rgb(255,12,12)" stroke-width="1" font-size="16" >O</text>
</svg>
</g>
</svg>

