<?xml version="1.0"?>
<svg version="1.1" id="topsvg"
xmlns="http://www.w3.org/2000/svg" xmlns:xlink="http://www.w3.org/1999/xlink"
xmlns:cml="http://www.xml-cml.org/schema" x="0" y="0" width="200px" height="200px" viewBox="0 0 100 100">
<title>OBDepict</title>
<rect x="0" y="0" width="100" height="100" fill="white"/>
<text text-anchor="middle" font-size="6" fill ="black" font-family="sans-serif"
x="50" y="98" ></text>
<g transform="translate(0,0)">
<svg width="100" height="100" x="0" y="0" viewBox="0 0 469.081 369.479"
font-family="sans-serif" stroke="rgb(0,0,0)" stroke-width="2"  stroke-linecap="round">
<line x1="420.4" y1="119.5" x2="402.3" y2="99.5" stroke="rgb(0,0,0)"  stroke-width="2.0"/>
<line x1="402.3" y1="99.5" x2="410.7" y2="73.8" stroke="rgb(0,0,0)"  stroke-width="2.0"/>
<line x1="402.3" y1="99.5" x2="363.2" y2="107.8" stroke="rgb(0,0,0)"  stroke-width="2.0"/>
<polygon points="363.190285 107.768054 345.950526 128.673333 340.597481 122.728175 " stroke-width="2.000000" fill="rgb(0,0,0)"  stroke="rgb(0,0,0)" />
<line x1="363.2" y1="107.8" x2="368.8" y2="134.2" stroke="rgb(0,0,0)"  stroke-width="2.0"/>
<line x1="363.2" y1="107.8" x2="336.4" y2="78.0" stroke="rgb(0,0,0)"  stroke-width="2.0"/>
<line x1="333.6" y1="77.1" x2="341.9" y2="51.4" stroke="rgb(0,0,0)"  stroke-width="2.0"/>
<line x1="339.3" y1="79.0" x2="347.6" y2="53.3" stroke="rgb(0,0,0)"  stroke-width="2.0"/>
<line x1="336.4" y1="78.0" x2="310.0" y2="83.7" stroke="rgb(0,0,0)"  stroke-width="2.0"/>
<line x1="293.3" y1="98.7" x2="284.9" y2="124.4" stroke="rgb(0,0,0)"  stroke-width="2.0"/>
<line x1="284.9" y1="124.4" x2="245.8" y2="132.7" stroke="rgb(0,0,0)"  stroke-width="2.0"/>
<line x1="245.8" y1="132.7" x2="219.0" y2="103.0" stroke="rgb(0,0,0)"  stroke-width="2.0"/>
<line x1="219.0" y1="103.0" x2="192.6" y2="108.6" stroke="rgb(0,0,0)"  stroke-width="2.0"/>
<line x1="245.8" y1="132.7" x2="237.5" y2="158.4" stroke="rgb(0,0,0)"  stroke-width="2.0"/>
<line x1="220.7" y1="173.5" x2="194.3" y2="179.1" stroke="rgb(0,0,0)"  stroke-width="2.0"/>
<line x1="194.3" y1="179.1" x2="186.0" y2="204.8" stroke="rgb(0,0,0)"  stroke-width="2.0"/>
<line x1="109.3" y1="196.5" x2="109.3" y2="182.5" stroke="rgb(0,0,0)"  stroke-width="2.0"/>
<line x1="74.6" y1="229.5" x2="51.3" y2="216.0" stroke="rgb(0,0,0)"  stroke-width="2.0"/>
<line x1="112.3" y1="289.5" x2="112.3" y2="316.5" stroke="rgb(0,0,0)"  stroke-width="2.0"/>
<line x1="106.3" y1="289.5" x2="106.3" y2="316.5" stroke="rgb(0,0,0)"  stroke-width="2.0"/>
<line x1="189.6" y1="227.6" x2="205.5" y2="249.5" stroke="rgb(0,0,0)"  stroke-width="2.0"/>
<line x1="205.5" y1="249.5" x2="189.7" y2="271.2" stroke="rgb(0,0,0)"  stroke-width="2.0"/>
<line x1="196.1" y1="250.1" x2="185.1" y2="265.3" stroke="rgb(0,0,0)"  stroke-width="2.0"/>
<line x1="169.6" y1="277.8" x2="143.9" y2="269.5" stroke="rgb(0,0,0)"  stroke-width="2.0"/>
<line x1="143.9" y1="269.5" x2="143.9" y2="229.5" stroke="rgb(0,0,0)"  stroke-width="2.0"/>
<line x1="151.1" y1="263.5" x2="151.1" y2="235.5" stroke="rgb(0,0,0)"  stroke-width="2.0"/>
<line x1="143.9" y1="229.5" x2="169.6" y2="221.1" stroke="rgb(0,0,0)"  stroke-width="2.0"/>
<line x1="74.6" y1="256.3" x2="74.6" y2="229.5" stroke="rgb(0,0,0)"  stroke-width="2.0"/>
<line x1="81.8" y1="254.3" x2="81.8" y2="235.5" stroke="rgb(0,0,0)"  stroke-width="2.0"/>
<line x1="74.6" y1="229.5" x2="98.0" y2="216.0" stroke="rgb(0,0,0)"  stroke-width="2.0"/>
<line x1="120.5" y1="216.0" x2="143.9" y2="229.5" stroke="rgb(0,0,0)"  stroke-width="2.0"/>
<line x1="143.9" y1="269.5" x2="109.3" y2="289.5" stroke="rgb(0,0,0)"  stroke-width="2.0"/>
<line x1="109.3" y1="289.5" x2="85.9" y2="276.0" stroke="rgb(0,0,0)"  stroke-width="2.0"/>
<text x="425.081413" y="137.177379" fill="rgb(102,102,102)"  stroke="rgb(102,102,102)" stroke-width="1" font-size="16" >CH</text>
<text x="449.081413" y="140.857379" fill="rgb(102,102,102)"  stroke="rgb(102,102,102)" stroke-width="1" font-size="13" >3</text>
<text x="410.676869" y="69.409325" fill="rgb(102,102,102)"  stroke="rgb(102,102,102)" stroke-width="1" font-size="16" >CH</text>
<text x="434.676869" y="73.089325" fill="rgb(102,102,102)"  stroke="rgb(102,102,102)" stroke-width="1" font-size="13" >3</text>
<text x="327.464492" y="142.533278" fill="rgb(191,191,191)"  stroke="rgb(191,191,191)" stroke-width="1" font-size="16" >H</text>
<text x="367.506752" y="154.893958" fill="rgb(12,12,255)"  stroke="rgb(12,12,255)" stroke-width="1" font-size="16" >NH</text>
<text x="391.506752" y="158.573958" fill="rgb(12,12,255)"  stroke="rgb(12,12,255)" stroke-width="1" font-size="13" >2</text>
<text x="342.785740" y="48.000000" fill="rgb(255,12,12)"  stroke="rgb(255,12,12)" stroke-width="1" font-size="16" >O</text>
<text x="291.299156" y="94.358728" fill="rgb(255,12,12)"  stroke="rgb(255,12,12)" stroke-width="1" font-size="16" >O</text>
<text x="161.921444" y="119.308131" fill="rgb(255,12,12)"  stroke="rgb(255,12,12)" stroke-width="1" font-size="16" >HO</text>
<text x="227.451893" y="178.759717" fill="rgb(255,12,12)"  stroke="rgb(255,12,12)" stroke-width="1" font-size="16" >O</text>
<text x="175.965309" y="225.118446" fill="rgb(12,12,255)"  stroke="rgb(12,12,255)" stroke-width="1" font-size="16" >N</text>
<text x="175.965309" y="289.839805" fill="rgb(12,12,255)"  stroke="rgb(12,12,255)" stroke-width="1" font-size="16" >N</text>
<text x="103.282032" y="217.479125" fill="rgb(12,12,255)"  stroke="rgb(12,12,255)" stroke-width="1" font-size="16" >N</text>
<text x="103.282032" y="177.479125" fill="rgb(191,191,191)"  stroke="rgb(191,191,191)" stroke-width="1" font-size="16" >H</text>
<text x="14.000000" y="217.479125" fill="rgb(12,12,255)"  stroke="rgb(12,12,255)" stroke-width="1" font-size="16" >H</text>
<text x="26.000000" y="221.159125" fill="rgb(12,12,255)"  stroke="rgb(12,12,255)" stroke-width="1" font-size="13" >2</text>
<text x="32.500000" y="217.479125" fill="rgb(12,12,255)"  stroke="rgb(12,12,255)" stroke-width="1" font-size="16" >N</text>
<text x="68.641016" y="277.479125" fill="rgb(12,12,255)"  stroke="rgb(12,12,255)" stroke-width="1" font-size="16" >N</text>
<text x="103.282032" y="337.479125" fill="rgb(255,12,12)"  stroke="rgb(255,12,12)" stroke-width="1" font-size="16" >O</text>
</svg>
</g>
</svg>

